M48
METRIC,LZ,000.000
;FILE_FORMAT=3:3
;TYPE=PLATED
;Layer: PTH_Through
;EasyEDA v6.5.9, 2023-12-18 21:36:12
;10
;Gerber Generator version 0.2
;Holesize 1 = 0.305 mm
T01C0.305
;Holesize 2 = 0.901 mm
T02C0.901
;Holesize 3 = 1.021 mm
T03C1.021
;Holesize 4 = 1.101 mm
T04C1.101
%
G05
G90
T01
X025000Y039500
X025000Y044500
X048000Y042000
X030872Y049871
X041001Y041001
X079500Y041001
X070000Y049000
X059000Y047000
X048000Y043230
X066500Y047500
X042499Y038001
T02
X038650Y038650
X041190Y038650
X043730Y038650
X046270Y038650
X048810Y038650
X051350Y038650
X051350Y051350
X048810Y051350
X046270Y051350
X043730Y051350
X041190Y051350
X038650Y051350
X079650Y038650
X082190Y038650
X084730Y038650
X087270Y038650
X089810Y038650
X092350Y038650
X092350Y051350
X089810Y051350
X087270Y051350
X084730Y051350
X082190Y051350
X079650Y051350
T03
X110770Y045500
X108230Y045500
T04
X108230Y038000
X110770Y038000
X022850Y043230
X022850Y045770
X020310Y043230
X020310Y045770
X017770Y043230
X017770Y045770
X015230Y043230
X015230Y045770
X012690Y043230
X012690Y045770
X010150Y043230
X010150Y045770
X010150Y040770
X010150Y038230
X012690Y040770
X012690Y038230
X015230Y040770
X015230Y038230
X017770Y040770
X017770Y038230
X020310Y040770
X020310Y038230
X022850Y040770
X022850Y038230
M30
