G04 Layer: BottomLayer*
G04 EasyEDA v6.5.9, 2023-12-18 21:36:12*
G04 Gerber Generator version 0.2*
G04 Scale: 100 percent, Rotated: No, Reflected: No *
G04 Dimensions in millimeters *
G04 leading zeros omitted , absolute positions ,4 integer and 5 decimal *
%FSLAX45Y45*%
%MOMM*%

%ADD10C,0.2540*%
%ADD11C,1.8000*%
%ADD12C,1.7000*%
%ADD13C,1.5000*%
%ADD14C,0.6096*%
%ADD15C,0.0116*%

%LPD*%
G36*
X886053Y3675887D02*
G01*
X882192Y3676650D01*
X878890Y3678885D01*
X876655Y3682187D01*
X875893Y3686048D01*
X875893Y5313934D01*
X876655Y5317794D01*
X878890Y5321096D01*
X882192Y5323332D01*
X886053Y5324094D01*
X11213896Y5324094D01*
X11217808Y5323332D01*
X11221110Y5321096D01*
X11223294Y5317794D01*
X11224056Y5313934D01*
X11224056Y3686048D01*
X11223294Y3682187D01*
X11221110Y3678885D01*
X11217808Y3676650D01*
X11213896Y3675887D01*
X11130889Y3675887D01*
X11126571Y3676853D01*
X11124641Y3678377D01*
X11122050Y3676650D01*
X11118189Y3675887D01*
X11035792Y3675887D01*
X11031880Y3676650D01*
X11029340Y3678377D01*
X11027359Y3676853D01*
X11023041Y3675887D01*
X10939729Y3675887D01*
X10935868Y3676650D01*
X10932566Y3678885D01*
X10930331Y3682187D01*
X10929569Y3686048D01*
X10930331Y3689959D01*
X10933176Y3693871D01*
X10936274Y3698798D01*
X10938154Y3704234D01*
X10938865Y3710584D01*
X10938865Y3889400D01*
X10938154Y3895750D01*
X10936274Y3901186D01*
X10933176Y3906113D01*
X10929112Y3910177D01*
X10924184Y3913276D01*
X10918748Y3915206D01*
X10912398Y3915918D01*
X10733532Y3915918D01*
X10727232Y3915206D01*
X10721746Y3913276D01*
X10716869Y3910177D01*
X10712754Y3906113D01*
X10709706Y3901186D01*
X10707776Y3895750D01*
X10707065Y3889400D01*
X10707065Y3710584D01*
X10707776Y3704234D01*
X10709706Y3698798D01*
X10715599Y3689959D01*
X10716361Y3686048D01*
X10715599Y3682187D01*
X10713415Y3678885D01*
X10710113Y3676650D01*
X10706201Y3675887D01*
X8109051Y3675887D01*
X8105140Y3676650D01*
X8101838Y3678885D01*
X8099653Y3682187D01*
X8098891Y3686048D01*
X8099653Y3689959D01*
X8101838Y3693261D01*
X8175853Y3767277D01*
X8179104Y3769410D01*
X8182864Y3770223D01*
X8186674Y3769563D01*
X8189112Y3768648D01*
X8202218Y3765499D01*
X8215630Y3764178D01*
X8229092Y3764635D01*
X8242350Y3766870D01*
X8255253Y3770833D01*
X8267446Y3776522D01*
X8278825Y3783787D01*
X8289137Y3792474D01*
X8298180Y3802481D01*
X8305800Y3813556D01*
X8311845Y3825595D01*
X8316264Y3838346D01*
X8318957Y3851554D01*
X8319871Y3864965D01*
X8318957Y3878427D01*
X8316264Y3891635D01*
X8311845Y3904386D01*
X8305800Y3916426D01*
X8298180Y3927500D01*
X8289137Y3937508D01*
X8278825Y3946194D01*
X8267446Y3953459D01*
X8255253Y3959148D01*
X8242350Y3963111D01*
X8229092Y3965346D01*
X8215630Y3965803D01*
X8202218Y3964482D01*
X8189112Y3961333D01*
X8176514Y3956507D01*
X8164677Y3950004D01*
X8153857Y3942029D01*
X8144154Y3932682D01*
X8135823Y3922064D01*
X8128965Y3910482D01*
X8123681Y3898087D01*
X8120125Y3885082D01*
X8118348Y3871722D01*
X8118348Y3858260D01*
X8120125Y3844899D01*
X8123783Y3831590D01*
X8124088Y3828084D01*
X8123174Y3824630D01*
X8121142Y3821734D01*
X8040979Y3741572D01*
X8037677Y3739387D01*
X8033816Y3738575D01*
X6567728Y3738575D01*
X6563817Y3739387D01*
X6560515Y3741572D01*
X6558330Y3744874D01*
X6557568Y3748735D01*
X6558330Y3752646D01*
X6560515Y3755948D01*
X6648450Y3843832D01*
X6653580Y3850081D01*
X6657136Y3856736D01*
X6659321Y3864000D01*
X6660134Y3872026D01*
X6660134Y4151325D01*
X6660896Y4155186D01*
X6663080Y4158487D01*
X6705955Y4201363D01*
X6709257Y4203547D01*
X6713118Y4204309D01*
X6717030Y4203547D01*
X6720331Y4201363D01*
X6723888Y4197807D01*
X6728764Y4194708D01*
X6734251Y4192778D01*
X6736080Y4192574D01*
X6740093Y4191254D01*
X6743192Y4188460D01*
X6744868Y4184599D01*
X6744868Y4180382D01*
X6743192Y4176522D01*
X6740093Y4173728D01*
X6736080Y4172407D01*
X6734251Y4172204D01*
X6728764Y4170273D01*
X6723888Y4167174D01*
X6719773Y4163110D01*
X6716725Y4158183D01*
X6714794Y4152747D01*
X6714083Y4146397D01*
X6714083Y4139336D01*
X6769404Y4139336D01*
X6769404Y4181906D01*
X6770166Y4185818D01*
X6772351Y4189120D01*
X6775653Y4191304D01*
X6779564Y4192066D01*
X6843420Y4192066D01*
X6847331Y4191304D01*
X6850634Y4189120D01*
X6852818Y4185818D01*
X6853580Y4181906D01*
X6853580Y4139336D01*
X6908901Y4139336D01*
X6908901Y4146397D01*
X6908190Y4152747D01*
X6906259Y4158183D01*
X6903212Y4163110D01*
X6899097Y4167174D01*
X6894220Y4170273D01*
X6888734Y4172204D01*
X6886905Y4172407D01*
X6882892Y4173728D01*
X6879793Y4176522D01*
X6878066Y4180382D01*
X6878066Y4184599D01*
X6879793Y4188460D01*
X6882892Y4191254D01*
X6886905Y4192574D01*
X6888734Y4192778D01*
X6894220Y4194708D01*
X6899097Y4197807D01*
X6903212Y4201871D01*
X6906158Y4206646D01*
X6908444Y4209186D01*
X6911441Y4210812D01*
X6914794Y4211370D01*
X8749487Y4211370D01*
X8757513Y4212183D01*
X8764727Y4214368D01*
X8771382Y4217924D01*
X8777630Y4223054D01*
X8808008Y4253382D01*
X8811310Y4255617D01*
X8815171Y4256379D01*
X8899601Y4256379D01*
X8903766Y4255465D01*
X8907170Y4252976D01*
X8909304Y4249318D01*
X8909710Y4245102D01*
X8909100Y4239412D01*
X8909100Y4226356D01*
X8953652Y4226356D01*
X8953652Y4246219D01*
X8954414Y4250080D01*
X8956598Y4253382D01*
X8959900Y4255617D01*
X8963812Y4256379D01*
X9006179Y4256379D01*
X9010040Y4255617D01*
X9013342Y4253382D01*
X9015577Y4250080D01*
X9016339Y4246219D01*
X9016339Y4226356D01*
X9060891Y4226356D01*
X9060891Y4239412D01*
X9060281Y4245102D01*
X9060688Y4249318D01*
X9062770Y4252976D01*
X9066225Y4255465D01*
X9070340Y4256379D01*
X9130080Y4256379D01*
X9134144Y4255516D01*
X9137548Y4253128D01*
X9139682Y4249572D01*
X9141714Y4243781D01*
X9144762Y4238904D01*
X9148876Y4234789D01*
X9153753Y4231741D01*
X9159240Y4229811D01*
X9165539Y4229100D01*
X9264396Y4229100D01*
X9270746Y4229811D01*
X9276181Y4231741D01*
X9281109Y4234789D01*
X9285173Y4238904D01*
X9288272Y4243781D01*
X9290202Y4249267D01*
X9290913Y4255566D01*
X9290913Y4334408D01*
X9290202Y4340758D01*
X9288272Y4346194D01*
X9285173Y4351121D01*
X9281109Y4355185D01*
X9276181Y4358284D01*
X9270746Y4360214D01*
X9264396Y4360926D01*
X9165539Y4360926D01*
X9159240Y4360214D01*
X9153753Y4358284D01*
X9148876Y4355185D01*
X9144762Y4351121D01*
X9141714Y4346194D01*
X9139682Y4340402D01*
X9137497Y4336846D01*
X9134144Y4334459D01*
X9130080Y4333595D01*
X8795461Y4333595D01*
X8787434Y4332782D01*
X8780221Y4330598D01*
X8773566Y4327042D01*
X8767318Y4321911D01*
X8736990Y4291584D01*
X8733688Y4289348D01*
X8729776Y4288586D01*
X6908901Y4288586D01*
X6904990Y4289348D01*
X6901738Y4291584D01*
X6899097Y4294174D01*
X6894220Y4297273D01*
X6888734Y4299204D01*
X6886905Y4299407D01*
X6882892Y4300728D01*
X6879793Y4303522D01*
X6878066Y4307382D01*
X6878066Y4311599D01*
X6879793Y4315460D01*
X6882892Y4318254D01*
X6886905Y4319574D01*
X6888734Y4319778D01*
X6894220Y4321708D01*
X6899097Y4324807D01*
X6905955Y4332173D01*
X6908901Y4333849D01*
X6912254Y4334408D01*
X8652510Y4334408D01*
X8660536Y4335170D01*
X8667750Y4337354D01*
X8674404Y4340961D01*
X8680653Y4346041D01*
X8920683Y4586071D01*
X8923985Y4588306D01*
X8927846Y4589068D01*
X8984386Y4589068D01*
X8990736Y4589780D01*
X8996172Y4591710D01*
X9001099Y4594758D01*
X9005163Y4598873D01*
X9008262Y4603750D01*
X9010192Y4609236D01*
X9010904Y4615535D01*
X9010904Y4694428D01*
X9010192Y4700727D01*
X9008262Y4706213D01*
X9005163Y4711090D01*
X9001099Y4715205D01*
X8996172Y4718253D01*
X8990736Y4720183D01*
X8984386Y4720894D01*
X8885529Y4720894D01*
X8879230Y4720183D01*
X8873744Y4718253D01*
X8868867Y4715205D01*
X8864752Y4711090D01*
X8861704Y4706213D01*
X8859418Y4700473D01*
X8859570Y4698949D01*
X8859062Y4694428D01*
X8859062Y4637887D01*
X8858300Y4634026D01*
X8856116Y4630724D01*
X8639962Y4414570D01*
X8636660Y4412386D01*
X8632799Y4411624D01*
X6912254Y4411624D01*
X6908901Y4412183D01*
X6905904Y4413808D01*
X6903212Y4417110D01*
X6899097Y4421174D01*
X6894220Y4424273D01*
X6888734Y4426204D01*
X6886905Y4426407D01*
X6882892Y4427728D01*
X6879793Y4430522D01*
X6878066Y4434382D01*
X6878066Y4438599D01*
X6879793Y4442460D01*
X6882892Y4445254D01*
X6886905Y4446574D01*
X6888734Y4446778D01*
X6894220Y4448708D01*
X6899097Y4451807D01*
X6905955Y4459173D01*
X6908901Y4460849D01*
X6912254Y4461408D01*
X8379510Y4461408D01*
X8387537Y4462170D01*
X8394750Y4464354D01*
X8401405Y4467961D01*
X8407654Y4473041D01*
X8520684Y4586071D01*
X8523986Y4588306D01*
X8527846Y4589068D01*
X8584387Y4589068D01*
X8590737Y4589780D01*
X8596172Y4591710D01*
X8601100Y4594758D01*
X8605164Y4598873D01*
X8608263Y4603750D01*
X8610193Y4609236D01*
X8610904Y4615535D01*
X8610904Y4694428D01*
X8610193Y4700727D01*
X8608263Y4706213D01*
X8605164Y4711090D01*
X8601100Y4715205D01*
X8596172Y4718253D01*
X8590737Y4720183D01*
X8584387Y4720894D01*
X8485530Y4720894D01*
X8479231Y4720183D01*
X8473744Y4718253D01*
X8468868Y4715205D01*
X8464753Y4711090D01*
X8461705Y4706213D01*
X8459419Y4700473D01*
X8459571Y4698949D01*
X8459063Y4694428D01*
X8459063Y4637887D01*
X8458301Y4634026D01*
X8456117Y4630724D01*
X8366963Y4541570D01*
X8363661Y4539386D01*
X8359800Y4538624D01*
X6912254Y4538624D01*
X6908901Y4539183D01*
X6905904Y4540808D01*
X6903212Y4544110D01*
X6899097Y4548174D01*
X6894220Y4551273D01*
X6888734Y4553204D01*
X6886905Y4553407D01*
X6882892Y4554728D01*
X6879793Y4557522D01*
X6878066Y4561382D01*
X6878066Y4565599D01*
X6879793Y4569460D01*
X6882892Y4572254D01*
X6886905Y4573574D01*
X6888734Y4573778D01*
X6894220Y4575708D01*
X6899097Y4578807D01*
X6903212Y4582871D01*
X6906259Y4587798D01*
X6908190Y4593234D01*
X6908901Y4599584D01*
X6908901Y4606239D01*
X6909663Y4610100D01*
X6911848Y4613402D01*
X6915150Y4615637D01*
X6919061Y4616399D01*
X8050072Y4616399D01*
X8054136Y4615535D01*
X8057540Y4613148D01*
X8059674Y4609592D01*
X8061706Y4603750D01*
X8064753Y4598873D01*
X8068868Y4594758D01*
X8073745Y4591710D01*
X8079231Y4589780D01*
X8085531Y4589068D01*
X8184388Y4589068D01*
X8190738Y4589780D01*
X8196173Y4591710D01*
X8201101Y4594758D01*
X8205165Y4598873D01*
X8208264Y4603750D01*
X8210194Y4609236D01*
X8210905Y4615535D01*
X8210905Y4694428D01*
X8210194Y4700727D01*
X8208264Y4706213D01*
X8205165Y4711090D01*
X8201101Y4715205D01*
X8196173Y4718253D01*
X8190738Y4720183D01*
X8184388Y4720894D01*
X8085531Y4720894D01*
X8079231Y4720183D01*
X8073745Y4718253D01*
X8068868Y4715205D01*
X8064753Y4711090D01*
X8061706Y4706213D01*
X8059674Y4700422D01*
X8057540Y4696866D01*
X8054136Y4694478D01*
X8050072Y4693615D01*
X6911340Y4693615D01*
X6907123Y4694529D01*
X6903720Y4697069D01*
X6901637Y4700828D01*
X6901281Y4705146D01*
X6902754Y4709160D01*
X6906259Y4714798D01*
X6908190Y4720234D01*
X6908901Y4726584D01*
X6908901Y4781397D01*
X6908190Y4787747D01*
X6906259Y4793183D01*
X6903212Y4798110D01*
X6899097Y4802174D01*
X6894220Y4805273D01*
X6888734Y4807204D01*
X6886905Y4807407D01*
X6882892Y4808728D01*
X6879793Y4811522D01*
X6878066Y4815382D01*
X6878066Y4819599D01*
X6879793Y4823460D01*
X6882892Y4826254D01*
X6886905Y4827574D01*
X6888734Y4827778D01*
X6894220Y4829708D01*
X6899097Y4832807D01*
X6905955Y4840173D01*
X6908901Y4841849D01*
X6912254Y4842408D01*
X6980478Y4842408D01*
X6988505Y4843170D01*
X6990384Y4843729D01*
X6994194Y4844135D01*
X6999986Y4843627D01*
X7009790Y4844491D01*
X7019239Y4847031D01*
X7028180Y4851196D01*
X7036206Y4856835D01*
X7043166Y4863744D01*
X7048804Y4871821D01*
X7052919Y4880711D01*
X7055459Y4890211D01*
X7056323Y4899964D01*
X7055459Y4909769D01*
X7052919Y4919268D01*
X7048804Y4928158D01*
X7043166Y4936236D01*
X7036206Y4943144D01*
X7028180Y4948783D01*
X7019239Y4952949D01*
X7009790Y4955489D01*
X6999986Y4956352D01*
X6990181Y4955489D01*
X6980732Y4952949D01*
X6971792Y4948783D01*
X6963765Y4943144D01*
X6956806Y4936236D01*
X6951167Y4928158D01*
X6949948Y4925466D01*
X6947712Y4922367D01*
X6944461Y4920335D01*
X6940702Y4919624D01*
X6912254Y4919624D01*
X6908901Y4920183D01*
X6905904Y4921808D01*
X6903212Y4925110D01*
X6899097Y4929174D01*
X6894220Y4932273D01*
X6888734Y4934204D01*
X6882434Y4934915D01*
X6740550Y4934915D01*
X6734251Y4934204D01*
X6728764Y4932273D01*
X6723888Y4929174D01*
X6719773Y4925110D01*
X6716725Y4920183D01*
X6714794Y4914747D01*
X6714083Y4908397D01*
X6714083Y4853584D01*
X6714794Y4847234D01*
X6716725Y4841798D01*
X6719773Y4836871D01*
X6723888Y4832807D01*
X6728764Y4829708D01*
X6734251Y4827778D01*
X6736080Y4827574D01*
X6740093Y4826254D01*
X6743192Y4823460D01*
X6744868Y4819599D01*
X6744868Y4815382D01*
X6743192Y4811522D01*
X6740093Y4808728D01*
X6736080Y4807407D01*
X6734251Y4807204D01*
X6728764Y4805273D01*
X6723888Y4802174D01*
X6717030Y4794808D01*
X6714083Y4793183D01*
X6710730Y4792624D01*
X6690207Y4792624D01*
X6687108Y4793081D01*
X6684365Y4794453D01*
X6678168Y4798771D01*
X6669278Y4802936D01*
X6659778Y4805476D01*
X6649974Y4806340D01*
X6640220Y4805476D01*
X6630720Y4802936D01*
X6621830Y4798771D01*
X6613753Y4793132D01*
X6606844Y4786223D01*
X6601206Y4778146D01*
X6597040Y4769256D01*
X6594500Y4759756D01*
X6593636Y4750003D01*
X6594500Y4740198D01*
X6597040Y4730699D01*
X6601206Y4721809D01*
X6606844Y4713782D01*
X6613753Y4706823D01*
X6621830Y4701184D01*
X6630720Y4697018D01*
X6640220Y4694478D01*
X6649974Y4693666D01*
X6659778Y4694478D01*
X6669278Y4697018D01*
X6678168Y4701184D01*
X6686194Y4706823D01*
X6691782Y4712411D01*
X6695084Y4714646D01*
X6698996Y4715408D01*
X6710680Y4715408D01*
X6714032Y4714849D01*
X6717030Y4713173D01*
X6719773Y4709871D01*
X6723888Y4705807D01*
X6728764Y4702708D01*
X6734251Y4700778D01*
X6736080Y4700574D01*
X6740093Y4699254D01*
X6743192Y4696460D01*
X6744868Y4692599D01*
X6744868Y4688382D01*
X6743192Y4684522D01*
X6740093Y4681728D01*
X6736080Y4680407D01*
X6734251Y4680204D01*
X6728764Y4678273D01*
X6723888Y4675174D01*
X6719773Y4671110D01*
X6716725Y4666183D01*
X6714794Y4660747D01*
X6714083Y4654397D01*
X6714083Y4599584D01*
X6714794Y4593234D01*
X6716725Y4587798D01*
X6719773Y4582871D01*
X6723888Y4578807D01*
X6728764Y4575708D01*
X6734251Y4573778D01*
X6736080Y4573574D01*
X6740093Y4572254D01*
X6743192Y4569460D01*
X6744868Y4565599D01*
X6744868Y4561382D01*
X6743192Y4557522D01*
X6740093Y4554728D01*
X6736080Y4553407D01*
X6734251Y4553204D01*
X6728764Y4551273D01*
X6723888Y4548174D01*
X6719773Y4544110D01*
X6716725Y4539183D01*
X6714794Y4533747D01*
X6714083Y4527397D01*
X6714083Y4472584D01*
X6714794Y4466234D01*
X6716725Y4460798D01*
X6719773Y4455871D01*
X6723888Y4451807D01*
X6728764Y4448708D01*
X6734251Y4446778D01*
X6736080Y4446574D01*
X6740093Y4445254D01*
X6743192Y4442460D01*
X6744868Y4438599D01*
X6744868Y4434382D01*
X6743192Y4430522D01*
X6740093Y4427728D01*
X6736080Y4426407D01*
X6734251Y4426204D01*
X6728764Y4424273D01*
X6723888Y4421174D01*
X6719773Y4417110D01*
X6716725Y4412183D01*
X6714794Y4406747D01*
X6714083Y4400397D01*
X6714083Y4345584D01*
X6714794Y4339234D01*
X6716725Y4333798D01*
X6719773Y4328871D01*
X6723888Y4324807D01*
X6728764Y4321708D01*
X6734251Y4319778D01*
X6736080Y4319574D01*
X6740093Y4318254D01*
X6743192Y4315460D01*
X6744868Y4311599D01*
X6744868Y4307382D01*
X6743192Y4303522D01*
X6740093Y4300728D01*
X6736080Y4299407D01*
X6734251Y4299204D01*
X6728764Y4297273D01*
X6723888Y4294174D01*
X6717030Y4286808D01*
X6714083Y4285183D01*
X6710730Y4284624D01*
X6696506Y4284624D01*
X6688480Y4283811D01*
X6681266Y4281627D01*
X6674561Y4278071D01*
X6668363Y4272940D01*
X6594551Y4199178D01*
X6589420Y4192930D01*
X6585864Y4186275D01*
X6583680Y4179011D01*
X6582918Y4170984D01*
X6582918Y3891686D01*
X6582105Y3887825D01*
X6579920Y3884523D01*
X6486956Y3791559D01*
X6483654Y3789375D01*
X6479794Y3788613D01*
X5223916Y3788613D01*
X5219649Y3789527D01*
X5216194Y3792169D01*
X5214162Y3796080D01*
X5213908Y3800449D01*
X5215585Y3804513D01*
X5221782Y3813556D01*
X5227878Y3825595D01*
X5232603Y3839514D01*
X5234736Y3843121D01*
X5238140Y3845560D01*
X5242255Y3846372D01*
X5378907Y3846372D01*
X5382564Y3845712D01*
X5385765Y3843782D01*
X5388000Y3840784D01*
X5389016Y3837228D01*
X5389829Y3829151D01*
X5391708Y3823766D01*
X5394807Y3818890D01*
X5398871Y3814775D01*
X5403799Y3811727D01*
X5409234Y3809796D01*
X5415534Y3809085D01*
X5494426Y3809085D01*
X5500725Y3809796D01*
X5506212Y3811727D01*
X5511088Y3814775D01*
X5515203Y3818890D01*
X5518251Y3823766D01*
X5520182Y3829253D01*
X5520893Y3835552D01*
X5520893Y3934409D01*
X5520182Y3940759D01*
X5518251Y3946194D01*
X5515203Y3951122D01*
X5511088Y3955186D01*
X5506212Y3958285D01*
X5500725Y3960164D01*
X5494426Y3960876D01*
X5415534Y3960876D01*
X5409234Y3960164D01*
X5403799Y3958285D01*
X5398871Y3955186D01*
X5394807Y3951122D01*
X5391708Y3946194D01*
X5389829Y3940810D01*
X5389016Y3932783D01*
X5388000Y3929227D01*
X5385765Y3926230D01*
X5382564Y3924300D01*
X5378907Y3923588D01*
X5222189Y3923588D01*
X5218074Y3924503D01*
X5214670Y3926941D01*
X5205120Y3937508D01*
X5194858Y3946194D01*
X5183479Y3953459D01*
X5171236Y3959148D01*
X5158384Y3963111D01*
X5145074Y3965346D01*
X5131612Y3965803D01*
X5118201Y3964482D01*
X5105095Y3961333D01*
X5092547Y3956507D01*
X5080711Y3950004D01*
X5069840Y3942029D01*
X5060188Y3932682D01*
X5051806Y3922064D01*
X5044948Y3910482D01*
X5039664Y3898087D01*
X5036108Y3885082D01*
X5034330Y3871722D01*
X5034330Y3858260D01*
X5036108Y3844899D01*
X5039664Y3831894D01*
X5044948Y3819499D01*
X5051806Y3807917D01*
X5054041Y3805072D01*
X5056022Y3800957D01*
X5055971Y3796487D01*
X5054041Y3792423D01*
X5050485Y3789578D01*
X5046065Y3788613D01*
X4969916Y3788613D01*
X4965649Y3789527D01*
X4962194Y3792220D01*
X4960162Y3796080D01*
X4959908Y3800449D01*
X4961585Y3804513D01*
X4967782Y3813556D01*
X4973878Y3825595D01*
X4978298Y3838346D01*
X4980990Y3851554D01*
X4981854Y3864965D01*
X4980990Y3878427D01*
X4978298Y3891635D01*
X4973878Y3904386D01*
X4967782Y3916426D01*
X4960162Y3927500D01*
X4951120Y3937508D01*
X4940858Y3946194D01*
X4929479Y3953459D01*
X4917236Y3959148D01*
X4904384Y3963111D01*
X4891074Y3965346D01*
X4877612Y3965803D01*
X4864201Y3964482D01*
X4851095Y3961333D01*
X4847488Y3961129D01*
X4843983Y3962247D01*
X4841138Y3964533D01*
X4839258Y3967632D01*
X4838598Y3971239D01*
X4838598Y4154982D01*
X4839360Y4158894D01*
X4841595Y4162196D01*
X4843170Y4163771D01*
X4848809Y4171797D01*
X4852924Y4180738D01*
X4855464Y4190187D01*
X4856327Y4199991D01*
X4855464Y4209796D01*
X4852924Y4219244D01*
X4848809Y4228185D01*
X4843170Y4236212D01*
X4836210Y4243171D01*
X4828184Y4248810D01*
X4820666Y4252264D01*
X4817567Y4254500D01*
X4815535Y4257751D01*
X4814824Y4261510D01*
X4815535Y4265218D01*
X4817567Y4268470D01*
X4820666Y4270705D01*
X4828184Y4274210D01*
X4836210Y4279849D01*
X4843170Y4286758D01*
X4848809Y4294835D01*
X4852924Y4303725D01*
X4855464Y4313224D01*
X4856327Y4322978D01*
X4855464Y4332782D01*
X4852924Y4342282D01*
X4850739Y4346956D01*
X4849774Y4350918D01*
X4850485Y4354931D01*
X4852619Y4358335D01*
X4855972Y4360621D01*
X4859934Y4361434D01*
X4929733Y4361434D01*
X4933645Y4360672D01*
X4936947Y4358436D01*
X5076240Y4219194D01*
X5082438Y4214063D01*
X5089144Y4210507D01*
X5096357Y4208322D01*
X5104384Y4207510D01*
X5494121Y4207510D01*
X5498338Y4206595D01*
X5501843Y4203954D01*
X5503875Y4200144D01*
X5504180Y4195826D01*
X5502605Y4191762D01*
X5499557Y4188764D01*
X5493867Y4185208D01*
X5489803Y4181094D01*
X5486704Y4176217D01*
X5484774Y4170730D01*
X5484063Y4164431D01*
X5484063Y4146346D01*
X5523636Y4146346D01*
X5523636Y4197350D01*
X5524398Y4201261D01*
X5526633Y4204512D01*
X5529935Y4206748D01*
X5533796Y4207510D01*
X5566156Y4207510D01*
X5570067Y4206748D01*
X5573369Y4204512D01*
X5575554Y4201261D01*
X5576316Y4197350D01*
X5576316Y4146346D01*
X5615889Y4146346D01*
X5615889Y4164431D01*
X5615178Y4170730D01*
X5613298Y4176217D01*
X5610199Y4181094D01*
X5606084Y4185208D01*
X5600446Y4188764D01*
X5597347Y4191762D01*
X5595823Y4195826D01*
X5596077Y4200144D01*
X5598160Y4203954D01*
X5601614Y4206595D01*
X5605830Y4207510D01*
X6187643Y4207510D01*
X6190996Y4206951D01*
X6193942Y4205274D01*
X6196787Y4201871D01*
X6200851Y4197807D01*
X6205778Y4194708D01*
X6211214Y4192778D01*
X6213094Y4192574D01*
X6217056Y4191254D01*
X6220206Y4188460D01*
X6221882Y4184599D01*
X6221882Y4180382D01*
X6220206Y4176522D01*
X6217056Y4173728D01*
X6213094Y4172407D01*
X6211214Y4172204D01*
X6205778Y4170273D01*
X6200851Y4167174D01*
X6196787Y4163110D01*
X6193688Y4158183D01*
X6191808Y4152747D01*
X6191097Y4146397D01*
X6191097Y4091584D01*
X6191808Y4085234D01*
X6193688Y4079798D01*
X6196787Y4074871D01*
X6200851Y4070807D01*
X6205778Y4067708D01*
X6211214Y4065778D01*
X6217564Y4065066D01*
X6335928Y4065066D01*
X6339840Y4064304D01*
X6343142Y4062120D01*
X6345326Y4058818D01*
X6346088Y4054906D01*
X6345326Y4051046D01*
X6343142Y4047744D01*
X6221984Y3926586D01*
X6218682Y3924401D01*
X6214770Y3923588D01*
X5721045Y3923588D01*
X5717387Y3924300D01*
X5714238Y3926230D01*
X5712002Y3929176D01*
X5710936Y3932783D01*
X5710174Y3940810D01*
X5708294Y3946194D01*
X5705195Y3951122D01*
X5701131Y3955186D01*
X5696204Y3958285D01*
X5690768Y3960164D01*
X5684418Y3960876D01*
X5605576Y3960876D01*
X5599226Y3960164D01*
X5593791Y3958285D01*
X5588863Y3955186D01*
X5584799Y3951122D01*
X5581700Y3946194D01*
X5579821Y3940759D01*
X5579110Y3934409D01*
X5579110Y3835552D01*
X5579821Y3829253D01*
X5581700Y3823766D01*
X5584799Y3818890D01*
X5588863Y3814775D01*
X5593791Y3811727D01*
X5599226Y3809796D01*
X5605576Y3809085D01*
X5684418Y3809085D01*
X5690768Y3809796D01*
X5696204Y3811727D01*
X5701131Y3814775D01*
X5705195Y3818890D01*
X5708294Y3823766D01*
X5710174Y3829151D01*
X5710936Y3837228D01*
X5712002Y3840784D01*
X5714238Y3843731D01*
X5717387Y3845712D01*
X5721045Y3846372D01*
X6234480Y3846372D01*
X6242507Y3847185D01*
X6249771Y3849370D01*
X6256426Y3852926D01*
X6262624Y3858056D01*
X6426911Y4022344D01*
X6432042Y4028592D01*
X6435598Y4035247D01*
X6437782Y4042460D01*
X6438595Y4050487D01*
X6438595Y4699508D01*
X6437782Y4707534D01*
X6435598Y4714748D01*
X6432042Y4721402D01*
X6426911Y4727651D01*
X6388862Y4765700D01*
X6386677Y4769002D01*
X6385915Y4772914D01*
X6385915Y4781397D01*
X6385204Y4787747D01*
X6383274Y4793183D01*
X6380175Y4798110D01*
X6376111Y4802174D01*
X6371183Y4805273D01*
X6365748Y4807204D01*
X6363868Y4807407D01*
X6359906Y4808728D01*
X6356807Y4811522D01*
X6355080Y4815382D01*
X6355080Y4819599D01*
X6356807Y4823460D01*
X6359906Y4826254D01*
X6363868Y4827574D01*
X6365748Y4827778D01*
X6371183Y4829708D01*
X6376111Y4832807D01*
X6380175Y4836871D01*
X6383274Y4841798D01*
X6385204Y4847234D01*
X6385915Y4853584D01*
X6385915Y4908397D01*
X6385204Y4914747D01*
X6383274Y4920183D01*
X6380175Y4925110D01*
X6376111Y4929174D01*
X6371183Y4932273D01*
X6365748Y4934204D01*
X6359398Y4934915D01*
X6217564Y4934915D01*
X6211214Y4934204D01*
X6205778Y4932273D01*
X6200851Y4929174D01*
X6194044Y4921808D01*
X6191046Y4920183D01*
X6187694Y4919624D01*
X6081522Y4919624D01*
X6073495Y4918811D01*
X6066231Y4916627D01*
X6059576Y4913071D01*
X6053328Y4907940D01*
X5904534Y4759147D01*
X5901639Y4757115D01*
X5898235Y4756200D01*
X5890209Y4755489D01*
X5880709Y4752949D01*
X5871819Y4748784D01*
X5863742Y4743145D01*
X5856833Y4736236D01*
X5851194Y4728159D01*
X5847029Y4719269D01*
X5844489Y4709769D01*
X5843625Y4699965D01*
X5844489Y4690211D01*
X5848299Y4676140D01*
X5847638Y4672126D01*
X5845454Y4668723D01*
X5842101Y4666437D01*
X5838139Y4665624D01*
X5175707Y4665624D01*
X5171744Y4666437D01*
X5168392Y4668723D01*
X5166258Y4672126D01*
X5165547Y4676089D01*
X5166512Y4680051D01*
X5168900Y4683302D01*
X5172354Y4685385D01*
X5176215Y4686706D01*
X5181092Y4689805D01*
X5185206Y4693869D01*
X5188254Y4698796D01*
X5190185Y4704232D01*
X5190896Y4710582D01*
X5190896Y4723638D01*
X5146344Y4723638D01*
X5146344Y4675784D01*
X5145582Y4671872D01*
X5143347Y4668570D01*
X5140045Y4666386D01*
X5136184Y4665624D01*
X5093817Y4665624D01*
X5089906Y4666386D01*
X5086604Y4668570D01*
X5084419Y4671872D01*
X5083657Y4675784D01*
X5083657Y4723638D01*
X5039055Y4723638D01*
X5039055Y4710582D01*
X5039766Y4704232D01*
X5041696Y4698796D01*
X5044795Y4693869D01*
X5048859Y4689805D01*
X5053787Y4686706D01*
X5057597Y4685385D01*
X5061102Y4683302D01*
X5063490Y4680051D01*
X5064404Y4676089D01*
X5063744Y4672126D01*
X5061559Y4668723D01*
X5058206Y4666437D01*
X5054244Y4665624D01*
X4971034Y4665624D01*
X4967173Y4666386D01*
X4963871Y4668570D01*
X4961686Y4671872D01*
X4960874Y4675784D01*
X4960874Y4694428D01*
X4960162Y4700727D01*
X4958283Y4706213D01*
X4955184Y4711090D01*
X4951120Y4715205D01*
X4946192Y4718253D01*
X4940757Y4720183D01*
X4934407Y4720894D01*
X4835550Y4720894D01*
X4829251Y4720183D01*
X4823764Y4718253D01*
X4818888Y4715205D01*
X4814773Y4711090D01*
X4811725Y4706213D01*
X4809439Y4700473D01*
X4809591Y4698949D01*
X4809083Y4694428D01*
X4809083Y4615535D01*
X4809794Y4609236D01*
X4812995Y4599736D01*
X4812588Y4595520D01*
X4810455Y4591862D01*
X4807051Y4589373D01*
X4802886Y4588510D01*
X4610252Y4588510D01*
X4606340Y4589272D01*
X4603038Y4591507D01*
X4563872Y4630674D01*
X4561687Y4633976D01*
X4560874Y4637836D01*
X4560874Y4694428D01*
X4560163Y4700727D01*
X4558284Y4706213D01*
X4555185Y4711090D01*
X4551121Y4715205D01*
X4546193Y4718253D01*
X4540758Y4720183D01*
X4534408Y4720894D01*
X4435551Y4720894D01*
X4429252Y4720183D01*
X4423765Y4718253D01*
X4418888Y4715205D01*
X4414774Y4711090D01*
X4411726Y4706213D01*
X4409440Y4700473D01*
X4409592Y4698949D01*
X4409084Y4694428D01*
X4409084Y4615535D01*
X4409795Y4609236D01*
X4411726Y4603750D01*
X4414774Y4598873D01*
X4418888Y4594758D01*
X4423765Y4591710D01*
X4429252Y4589780D01*
X4435551Y4589068D01*
X4492040Y4589068D01*
X4495952Y4588306D01*
X4499254Y4586071D01*
X4562398Y4522978D01*
X4568596Y4517847D01*
X4575302Y4514291D01*
X4582515Y4512106D01*
X4590542Y4511294D01*
X6180937Y4511294D01*
X6184798Y4510532D01*
X6188100Y4508296D01*
X6190284Y4505045D01*
X6191097Y4501134D01*
X6191097Y4472584D01*
X6191808Y4466234D01*
X6193688Y4460798D01*
X6196787Y4455871D01*
X6200851Y4451807D01*
X6205778Y4448708D01*
X6211214Y4446778D01*
X6213094Y4446574D01*
X6217056Y4445254D01*
X6220206Y4442460D01*
X6221882Y4438599D01*
X6221882Y4434382D01*
X6220206Y4430522D01*
X6217056Y4427728D01*
X6213094Y4426407D01*
X6211214Y4426204D01*
X6205778Y4424273D01*
X6200851Y4421174D01*
X6194145Y4413961D01*
X6191148Y4412284D01*
X6187795Y4411726D01*
X6097168Y4411726D01*
X6093256Y4412488D01*
X6089954Y4414723D01*
X6027623Y4477004D01*
X6021425Y4482134D01*
X6014720Y4485690D01*
X6007506Y4487875D01*
X5999480Y4488688D01*
X4310278Y4488688D01*
X4306366Y4489450D01*
X4303064Y4491685D01*
X4163872Y4630877D01*
X4161688Y4634179D01*
X4160875Y4638040D01*
X4160875Y4694428D01*
X4160164Y4700727D01*
X4158284Y4706213D01*
X4155186Y4711090D01*
X4151122Y4715205D01*
X4146194Y4718253D01*
X4140758Y4720183D01*
X4134408Y4720894D01*
X4035551Y4720894D01*
X4029252Y4720183D01*
X4023766Y4718253D01*
X4018889Y4715205D01*
X4014774Y4711090D01*
X4011726Y4706213D01*
X4009796Y4700727D01*
X4009085Y4694428D01*
X4009085Y4615535D01*
X4009796Y4609236D01*
X4011726Y4603750D01*
X4014774Y4598873D01*
X4018889Y4594758D01*
X4023766Y4591710D01*
X4029252Y4589780D01*
X4035551Y4589068D01*
X4092244Y4589068D01*
X4096156Y4588306D01*
X4099458Y4586071D01*
X4229557Y4455972D01*
X4231741Y4452721D01*
X4232503Y4448810D01*
X4231741Y4444898D01*
X4229557Y4441647D01*
X4226255Y4439412D01*
X4222343Y4438650D01*
X2870098Y4438650D01*
X2866186Y4439412D01*
X2862935Y4441647D01*
X2700782Y4604004D01*
X2694533Y4609134D01*
X2687878Y4612690D01*
X2680665Y4614875D01*
X2672638Y4615688D01*
X2395575Y4615688D01*
X2391867Y4616399D01*
X2388666Y4618380D01*
X2386431Y4621428D01*
X2381605Y4631436D01*
X2373833Y4643323D01*
X2364638Y4654143D01*
X2354122Y4663694D01*
X2342489Y4671822D01*
X2329891Y4678375D01*
X2316530Y4683302D01*
X2302713Y4686452D01*
X2288540Y4687824D01*
X2274366Y4687366D01*
X2260295Y4685131D01*
X2246680Y4681067D01*
X2233726Y4675327D01*
X2221534Y4667961D01*
X2210460Y4659071D01*
X2200554Y4648860D01*
X2192070Y4637481D01*
X2185111Y4625136D01*
X2179777Y4611928D01*
X2176170Y4598212D01*
X2174341Y4584090D01*
X2174341Y4569917D01*
X2176170Y4555794D01*
X2179777Y4542078D01*
X2185111Y4528870D01*
X2192070Y4516526D01*
X2200757Y4504842D01*
X2202586Y4500778D01*
X2202484Y4496308D01*
X2200503Y4492345D01*
X2196998Y4489602D01*
X2192629Y4488586D01*
X2123033Y4488586D01*
X2119274Y4489297D01*
X2116074Y4491380D01*
X2113838Y4494479D01*
X2112924Y4498238D01*
X2113432Y4501997D01*
X2115312Y4505350D01*
X2119833Y4510684D01*
X2127605Y4522571D01*
X2133752Y4535373D01*
X2138273Y4548886D01*
X2140966Y4562805D01*
X2141880Y4576978D01*
X2140966Y4591202D01*
X2138273Y4605121D01*
X2133752Y4618634D01*
X2127605Y4631436D01*
X2119833Y4643323D01*
X2110638Y4654143D01*
X2100122Y4663694D01*
X2088489Y4671822D01*
X2075891Y4678375D01*
X2062530Y4683302D01*
X2048713Y4686452D01*
X2034539Y4687824D01*
X2020366Y4687366D01*
X2006295Y4685131D01*
X1992680Y4681067D01*
X1979726Y4675327D01*
X1967534Y4667961D01*
X1956460Y4659071D01*
X1946554Y4648860D01*
X1938070Y4637481D01*
X1931111Y4625136D01*
X1925777Y4611928D01*
X1922170Y4598212D01*
X1920341Y4584090D01*
X1920341Y4569917D01*
X1922170Y4555794D01*
X1925777Y4542078D01*
X1931111Y4528870D01*
X1938070Y4516526D01*
X1946757Y4504842D01*
X1948586Y4500778D01*
X1948484Y4496308D01*
X1946503Y4492345D01*
X1942998Y4489602D01*
X1938629Y4488586D01*
X1869033Y4488586D01*
X1865274Y4489297D01*
X1862074Y4491380D01*
X1859838Y4494479D01*
X1858924Y4498238D01*
X1859432Y4501997D01*
X1861312Y4505350D01*
X1865833Y4510684D01*
X1873605Y4522571D01*
X1879752Y4535373D01*
X1884273Y4548886D01*
X1886966Y4562805D01*
X1887880Y4576978D01*
X1886966Y4591202D01*
X1884273Y4605121D01*
X1879752Y4618634D01*
X1873605Y4631436D01*
X1865833Y4643323D01*
X1856638Y4654143D01*
X1846122Y4663694D01*
X1834489Y4671822D01*
X1821891Y4678375D01*
X1808530Y4683302D01*
X1794713Y4686452D01*
X1780539Y4687824D01*
X1766366Y4687366D01*
X1752295Y4685131D01*
X1738680Y4681067D01*
X1725726Y4675327D01*
X1713534Y4667961D01*
X1705102Y4661204D01*
X1701749Y4659426D01*
X1697989Y4659020D01*
X1694332Y4659985D01*
X1691284Y4662220D01*
X1689303Y4665421D01*
X1688592Y4669129D01*
X1688592Y4729835D01*
X1689354Y4733747D01*
X1691589Y4737049D01*
X1912924Y4958384D01*
X1916226Y4960620D01*
X1920138Y4961382D01*
X3031337Y4961382D01*
X3034538Y4960874D01*
X3037433Y4959350D01*
X3039668Y4957064D01*
X3043986Y4950866D01*
X3050946Y4943906D01*
X3058972Y4938318D01*
X3067913Y4934153D01*
X3077362Y4931613D01*
X3087166Y4930749D01*
X3096971Y4931613D01*
X3106420Y4934153D01*
X3115360Y4938318D01*
X3123387Y4943906D01*
X3130346Y4950866D01*
X3135985Y4958943D01*
X3140100Y4967833D01*
X3142640Y4977333D01*
X3143504Y4987086D01*
X3142640Y4996891D01*
X3140100Y5006390D01*
X3135985Y5015280D01*
X3130346Y5023307D01*
X3123387Y5030266D01*
X3115360Y5035905D01*
X3106420Y5040020D01*
X3096971Y5042611D01*
X3087166Y5043424D01*
X3077362Y5042611D01*
X3062528Y5038598D01*
X1917750Y5038598D01*
X1913839Y5039360D01*
X1910537Y5041595D01*
X1908352Y5044846D01*
X1907590Y5048758D01*
X1908352Y5052669D01*
X1910537Y5055920D01*
X2062988Y5208422D01*
X2066289Y5210606D01*
X2070201Y5211368D01*
X3776065Y5211368D01*
X3780485Y5210403D01*
X3784041Y5207558D01*
X3785971Y5203494D01*
X3786022Y5198973D01*
X3784041Y5194909D01*
X3781806Y5192064D01*
X3774948Y5180482D01*
X3769664Y5168087D01*
X3766108Y5155082D01*
X3764330Y5141722D01*
X3764330Y5128260D01*
X3766108Y5114899D01*
X3769664Y5101894D01*
X3774948Y5089499D01*
X3781806Y5077917D01*
X3790187Y5067300D01*
X3799840Y5057952D01*
X3810711Y5049977D01*
X3822547Y5043474D01*
X3835095Y5038648D01*
X3848201Y5035499D01*
X3861612Y5034178D01*
X3875074Y5034635D01*
X3888384Y5036870D01*
X3897884Y5039817D01*
X3901541Y5040223D01*
X3905097Y5039360D01*
X3908094Y5037277D01*
X4022953Y4922418D01*
X4025036Y4919472D01*
X4025900Y4915916D01*
X4025493Y4912309D01*
X4023868Y4909108D01*
X4021175Y4906619D01*
X4018889Y4905197D01*
X4014774Y4901082D01*
X4011726Y4896205D01*
X4009796Y4890719D01*
X4009085Y4884420D01*
X4009085Y4805578D01*
X4009796Y4799228D01*
X4011726Y4793792D01*
X4014774Y4788865D01*
X4018889Y4784801D01*
X4023766Y4781702D01*
X4029252Y4779772D01*
X4035551Y4779060D01*
X4134408Y4779060D01*
X4140758Y4779772D01*
X4146194Y4781702D01*
X4151122Y4784801D01*
X4155186Y4788865D01*
X4158284Y4793792D01*
X4160164Y4799228D01*
X4160875Y4805578D01*
X4160875Y4884420D01*
X4160164Y4890719D01*
X4158284Y4896205D01*
X4155186Y4901082D01*
X4151122Y4905197D01*
X4146194Y4908296D01*
X4140758Y4910175D01*
X4133189Y4910886D01*
X4129532Y4911598D01*
X4126331Y4913528D01*
X4124096Y4916474D01*
X4123080Y4920081D01*
X4122826Y4922520D01*
X4120642Y4929733D01*
X4117035Y4936439D01*
X4111955Y4942636D01*
X3962654Y5091938D01*
X3960520Y5095036D01*
X3959707Y5098694D01*
X3960266Y5102453D01*
X3962298Y5108346D01*
X3964990Y5121554D01*
X3965854Y5134965D01*
X3964990Y5148427D01*
X3962298Y5161635D01*
X3957878Y5174386D01*
X3951782Y5186426D01*
X3945585Y5195468D01*
X3943908Y5199532D01*
X3944162Y5203901D01*
X3946194Y5207762D01*
X3949649Y5210454D01*
X3953967Y5211368D01*
X4030065Y5211368D01*
X4034485Y5210403D01*
X4038041Y5207558D01*
X4039971Y5203494D01*
X4040022Y5198973D01*
X4038041Y5194909D01*
X4035806Y5192064D01*
X4028948Y5180482D01*
X4023664Y5168087D01*
X4020108Y5155082D01*
X4018330Y5141722D01*
X4018330Y5128260D01*
X4020108Y5114899D01*
X4023664Y5101894D01*
X4028948Y5089499D01*
X4035806Y5077917D01*
X4044187Y5067300D01*
X4053840Y5057952D01*
X4064711Y5049977D01*
X4076547Y5043474D01*
X4089095Y5038648D01*
X4102201Y5035499D01*
X4115612Y5034178D01*
X4129074Y5034635D01*
X4142384Y5036870D01*
X4155236Y5040833D01*
X4167479Y5046522D01*
X4178858Y5053787D01*
X4189120Y5062474D01*
X4198162Y5072481D01*
X4205782Y5083556D01*
X4211878Y5095595D01*
X4216298Y5108346D01*
X4218990Y5121554D01*
X4219854Y5134965D01*
X4218990Y5148427D01*
X4216298Y5161635D01*
X4211878Y5174386D01*
X4205782Y5186426D01*
X4199585Y5195468D01*
X4197908Y5199532D01*
X4198162Y5203901D01*
X4200194Y5207762D01*
X4203649Y5210454D01*
X4207967Y5211368D01*
X4284065Y5211368D01*
X4288485Y5210403D01*
X4292041Y5207558D01*
X4293971Y5203494D01*
X4294022Y5198973D01*
X4292041Y5194909D01*
X4289806Y5192064D01*
X4282948Y5180482D01*
X4277664Y5168087D01*
X4274108Y5155082D01*
X4272330Y5141722D01*
X4272330Y5128260D01*
X4274108Y5114899D01*
X4277664Y5101894D01*
X4282948Y5089499D01*
X4289806Y5077917D01*
X4298188Y5067300D01*
X4307840Y5057952D01*
X4318711Y5049977D01*
X4330547Y5043474D01*
X4343095Y5038648D01*
X4356201Y5035499D01*
X4369612Y5034178D01*
X4383074Y5034635D01*
X4396384Y5036870D01*
X4409236Y5040833D01*
X4421479Y5046522D01*
X4432858Y5053787D01*
X4443120Y5062474D01*
X4452162Y5072481D01*
X4459782Y5083556D01*
X4465878Y5095595D01*
X4470298Y5108346D01*
X4472990Y5121554D01*
X4473854Y5134965D01*
X4472990Y5148427D01*
X4470298Y5161635D01*
X4465878Y5174386D01*
X4459782Y5186426D01*
X4453585Y5195468D01*
X4451908Y5199532D01*
X4452162Y5203901D01*
X4454194Y5207762D01*
X4457649Y5210454D01*
X4461967Y5211368D01*
X4538065Y5211368D01*
X4542485Y5210403D01*
X4546041Y5207558D01*
X4547971Y5203494D01*
X4548022Y5198973D01*
X4546041Y5194909D01*
X4543806Y5192064D01*
X4536948Y5180482D01*
X4531664Y5168087D01*
X4528108Y5155082D01*
X4526330Y5141722D01*
X4526330Y5128260D01*
X4528108Y5114899D01*
X4531766Y5101590D01*
X4532071Y5098084D01*
X4531207Y5094630D01*
X4529175Y5091734D01*
X4458055Y5020614D01*
X4452924Y5014417D01*
X4449368Y5007762D01*
X4447184Y5000498D01*
X4446371Y4992471D01*
X4446371Y4921046D01*
X4445711Y4917389D01*
X4443730Y4914239D01*
X4440783Y4912004D01*
X4437227Y4910937D01*
X4429150Y4910175D01*
X4423765Y4908296D01*
X4418888Y4905197D01*
X4414774Y4901082D01*
X4411726Y4896205D01*
X4409795Y4890719D01*
X4409084Y4884420D01*
X4409084Y4805578D01*
X4410049Y4798466D01*
X4411726Y4793792D01*
X4414774Y4788865D01*
X4418888Y4784801D01*
X4423765Y4781702D01*
X4429252Y4779772D01*
X4435551Y4779060D01*
X4534408Y4779060D01*
X4540758Y4779772D01*
X4546193Y4781702D01*
X4551121Y4784801D01*
X4555185Y4788865D01*
X4558284Y4793792D01*
X4560163Y4799228D01*
X4560874Y4805578D01*
X4560874Y4884420D01*
X4560163Y4890719D01*
X4558284Y4896205D01*
X4555185Y4901082D01*
X4551121Y4905197D01*
X4546193Y4908296D01*
X4540808Y4910175D01*
X4532782Y4910937D01*
X4529175Y4912004D01*
X4526229Y4914239D01*
X4524298Y4917389D01*
X4523587Y4921046D01*
X4523587Y4972761D01*
X4524400Y4976672D01*
X4526584Y4979974D01*
X4583887Y5037277D01*
X4587087Y5039410D01*
X4590897Y5040223D01*
X4594707Y5039563D01*
X4597095Y5038648D01*
X4610201Y5035499D01*
X4623612Y5034178D01*
X4637074Y5034635D01*
X4650384Y5036870D01*
X4663236Y5040833D01*
X4675479Y5046522D01*
X4686858Y5053787D01*
X4697120Y5062474D01*
X4706162Y5072481D01*
X4713782Y5083556D01*
X4719878Y5095595D01*
X4724298Y5108346D01*
X4726990Y5121554D01*
X4727854Y5134965D01*
X4726990Y5148427D01*
X4724298Y5161635D01*
X4719878Y5174386D01*
X4713782Y5186426D01*
X4707585Y5195468D01*
X4705908Y5199532D01*
X4706162Y5203901D01*
X4708194Y5207762D01*
X4711649Y5210454D01*
X4715967Y5211368D01*
X4792065Y5211368D01*
X4796485Y5210403D01*
X4800041Y5207558D01*
X4801971Y5203494D01*
X4802022Y5198973D01*
X4800041Y5194909D01*
X4797806Y5192064D01*
X4790948Y5180482D01*
X4785664Y5168087D01*
X4782108Y5155082D01*
X4780330Y5141722D01*
X4780330Y5128260D01*
X4782108Y5114899D01*
X4785664Y5101894D01*
X4790948Y5089499D01*
X4797806Y5077917D01*
X4806188Y5067300D01*
X4815840Y5057952D01*
X4826711Y5049977D01*
X4843272Y5040782D01*
X4845558Y5037429D01*
X4846370Y5033467D01*
X4846370Y4921046D01*
X4845710Y4917389D01*
X4843729Y4914239D01*
X4840782Y4912004D01*
X4837226Y4910937D01*
X4829149Y4910175D01*
X4823764Y4908296D01*
X4818888Y4905197D01*
X4814773Y4901082D01*
X4811725Y4896205D01*
X4809794Y4890719D01*
X4809083Y4884420D01*
X4809083Y4805578D01*
X4810048Y4798466D01*
X4811725Y4793792D01*
X4814773Y4788865D01*
X4818888Y4784801D01*
X4823764Y4781702D01*
X4829251Y4779772D01*
X4835550Y4779060D01*
X4934407Y4779060D01*
X4940757Y4779772D01*
X4946192Y4781702D01*
X4951120Y4784801D01*
X4955184Y4788865D01*
X4958283Y4793792D01*
X4960162Y4799228D01*
X4960874Y4805578D01*
X4960874Y4884420D01*
X4960162Y4890719D01*
X4958283Y4896205D01*
X4955184Y4901082D01*
X4951120Y4905197D01*
X4946192Y4908296D01*
X4940808Y4910175D01*
X4932781Y4910937D01*
X4929174Y4912004D01*
X4926228Y4914239D01*
X4924298Y4917389D01*
X4923586Y4921046D01*
X4923586Y5037328D01*
X4924298Y5041087D01*
X4926380Y5044287D01*
X4929479Y5046522D01*
X4940858Y5053787D01*
X4951120Y5062474D01*
X4960162Y5072481D01*
X4967782Y5083556D01*
X4973878Y5095595D01*
X4978298Y5108346D01*
X4980990Y5121554D01*
X4981854Y5134965D01*
X4980990Y5148427D01*
X4978298Y5161635D01*
X4973878Y5174386D01*
X4967782Y5186426D01*
X4961585Y5195468D01*
X4959908Y5199532D01*
X4960162Y5203901D01*
X4962194Y5207762D01*
X4965649Y5210454D01*
X4969967Y5211368D01*
X4999786Y5211368D01*
X5003698Y5210606D01*
X5007000Y5208422D01*
X5037175Y5178247D01*
X5039207Y5175351D01*
X5040071Y5171897D01*
X5039766Y5168392D01*
X5036108Y5155082D01*
X5034330Y5141722D01*
X5034330Y5128260D01*
X5036108Y5114899D01*
X5039664Y5101894D01*
X5044948Y5089499D01*
X5051806Y5077917D01*
X5060188Y5067300D01*
X5069840Y5057952D01*
X5080711Y5049977D01*
X5092547Y5043474D01*
X5105095Y5038648D01*
X5118201Y5035499D01*
X5131612Y5034178D01*
X5145074Y5034635D01*
X5158384Y5036870D01*
X5171236Y5040833D01*
X5183479Y5046522D01*
X5194858Y5053787D01*
X5205120Y5062474D01*
X5214162Y5072481D01*
X5221782Y5083556D01*
X5227878Y5095595D01*
X5232298Y5108346D01*
X5234990Y5121554D01*
X5235854Y5134965D01*
X5234990Y5148427D01*
X5232298Y5161635D01*
X5227878Y5174386D01*
X5221782Y5186426D01*
X5215585Y5195468D01*
X5213908Y5199532D01*
X5214162Y5203901D01*
X5216194Y5207762D01*
X5219649Y5210454D01*
X5223967Y5211368D01*
X7876082Y5211368D01*
X7880451Y5210403D01*
X7884007Y5207558D01*
X7885988Y5203494D01*
X7885988Y5198973D01*
X7884058Y5194909D01*
X7881823Y5192064D01*
X7874965Y5180482D01*
X7869681Y5168087D01*
X7866125Y5155082D01*
X7864348Y5141722D01*
X7864348Y5128260D01*
X7866125Y5114899D01*
X7869681Y5101894D01*
X7874965Y5089499D01*
X7881823Y5077917D01*
X7890154Y5067300D01*
X7899857Y5057952D01*
X7910677Y5049977D01*
X7922514Y5043474D01*
X7935112Y5038648D01*
X7948218Y5035499D01*
X7961630Y5034178D01*
X7975092Y5034635D01*
X7988350Y5036870D01*
X7997901Y5039817D01*
X8001508Y5040223D01*
X8005064Y5039360D01*
X8008112Y5037277D01*
X8093405Y4951984D01*
X8095589Y4948682D01*
X8096402Y4944821D01*
X8096402Y4921046D01*
X8095691Y4917389D01*
X8093760Y4914239D01*
X8090763Y4912004D01*
X8087207Y4910937D01*
X8079181Y4910175D01*
X8073745Y4908296D01*
X8068868Y4905197D01*
X8064753Y4901082D01*
X8061706Y4896205D01*
X8059775Y4890719D01*
X8059064Y4884420D01*
X8059064Y4805578D01*
X8059775Y4799228D01*
X8061706Y4793792D01*
X8064753Y4788865D01*
X8068868Y4784801D01*
X8073745Y4781702D01*
X8079231Y4779772D01*
X8085531Y4779060D01*
X8184388Y4779060D01*
X8190738Y4779772D01*
X8196173Y4781702D01*
X8201101Y4784801D01*
X8205165Y4788865D01*
X8208264Y4793792D01*
X8210194Y4799228D01*
X8210905Y4805578D01*
X8210905Y4884420D01*
X8210194Y4890719D01*
X8208264Y4896205D01*
X8205165Y4901082D01*
X8201101Y4905197D01*
X8196173Y4908296D01*
X8190788Y4910175D01*
X8182762Y4910937D01*
X8179206Y4912004D01*
X8176209Y4914239D01*
X8174278Y4917389D01*
X8173618Y4921046D01*
X8173618Y4964480D01*
X8172805Y4972507D01*
X8170621Y4979771D01*
X8167065Y4986426D01*
X8161934Y4992624D01*
X8062671Y5091938D01*
X8060537Y5095036D01*
X8059674Y5098694D01*
X8060232Y5102453D01*
X8062264Y5108346D01*
X8064957Y5121554D01*
X8065871Y5134965D01*
X8064957Y5148427D01*
X8062264Y5161635D01*
X8057845Y5174386D01*
X8051800Y5186426D01*
X8045551Y5195468D01*
X8043925Y5199532D01*
X8044129Y5203901D01*
X8046161Y5207762D01*
X8049666Y5210454D01*
X8053933Y5211368D01*
X8130082Y5211368D01*
X8134451Y5210403D01*
X8138007Y5207558D01*
X8139988Y5203494D01*
X8139988Y5198973D01*
X8138058Y5194909D01*
X8135823Y5192064D01*
X8128965Y5180482D01*
X8123681Y5168087D01*
X8120125Y5155082D01*
X8118348Y5141722D01*
X8118348Y5128260D01*
X8120125Y5114899D01*
X8123681Y5101894D01*
X8128965Y5089499D01*
X8135823Y5077917D01*
X8144154Y5067300D01*
X8153857Y5057952D01*
X8164677Y5049977D01*
X8176514Y5043474D01*
X8189112Y5038648D01*
X8202218Y5035499D01*
X8215630Y5034178D01*
X8229092Y5034635D01*
X8242350Y5036870D01*
X8255253Y5040833D01*
X8267446Y5046522D01*
X8278825Y5053787D01*
X8289137Y5062474D01*
X8298180Y5072481D01*
X8305800Y5083556D01*
X8311845Y5095595D01*
X8316264Y5108346D01*
X8318957Y5121554D01*
X8319871Y5134965D01*
X8318957Y5148427D01*
X8316264Y5161635D01*
X8311845Y5174386D01*
X8305800Y5186426D01*
X8299551Y5195468D01*
X8297925Y5199532D01*
X8298129Y5203901D01*
X8300161Y5207762D01*
X8303666Y5210454D01*
X8307933Y5211368D01*
X8384082Y5211368D01*
X8388451Y5210403D01*
X8392007Y5207558D01*
X8393988Y5203494D01*
X8393988Y5198973D01*
X8392058Y5194909D01*
X8389823Y5192064D01*
X8382965Y5180482D01*
X8377681Y5168087D01*
X8374125Y5155082D01*
X8372348Y5141722D01*
X8372348Y5128260D01*
X8374125Y5114899D01*
X8377681Y5101894D01*
X8382965Y5089499D01*
X8389823Y5077917D01*
X8398154Y5067300D01*
X8407857Y5057952D01*
X8418677Y5049977D01*
X8430514Y5043474D01*
X8443112Y5038648D01*
X8456218Y5035499D01*
X8469630Y5034178D01*
X8483092Y5034635D01*
X8496350Y5036870D01*
X8509254Y5040833D01*
X8521446Y5046522D01*
X8532825Y5053787D01*
X8543137Y5062474D01*
X8552180Y5072481D01*
X8559800Y5083556D01*
X8565845Y5095595D01*
X8570264Y5108346D01*
X8572957Y5121554D01*
X8573871Y5134965D01*
X8572957Y5148427D01*
X8570264Y5161635D01*
X8565845Y5174386D01*
X8559800Y5186426D01*
X8553551Y5195468D01*
X8551926Y5199532D01*
X8552129Y5203901D01*
X8554161Y5207762D01*
X8557666Y5210454D01*
X8561933Y5211368D01*
X8638082Y5211368D01*
X8642451Y5210403D01*
X8646007Y5207558D01*
X8647988Y5203494D01*
X8647988Y5198973D01*
X8646058Y5194909D01*
X8643823Y5192064D01*
X8636965Y5180482D01*
X8631682Y5168087D01*
X8628126Y5155082D01*
X8626348Y5141722D01*
X8626348Y5128260D01*
X8628126Y5114899D01*
X8631783Y5101590D01*
X8632088Y5098084D01*
X8631174Y5094630D01*
X8629142Y5091734D01*
X8508034Y4970627D01*
X8502904Y4964430D01*
X8499348Y4957724D01*
X8497163Y4950510D01*
X8496401Y4942484D01*
X8496401Y4921046D01*
X8495690Y4917389D01*
X8493760Y4914239D01*
X8490762Y4912004D01*
X8487206Y4910937D01*
X8479180Y4910175D01*
X8473744Y4908296D01*
X8468868Y4905197D01*
X8464753Y4901082D01*
X8461705Y4896205D01*
X8459774Y4890719D01*
X8459063Y4884420D01*
X8459063Y4805578D01*
X8459571Y4801006D01*
X8460079Y4798466D01*
X8461705Y4793792D01*
X8464753Y4788865D01*
X8468868Y4784801D01*
X8473744Y4781702D01*
X8479231Y4779772D01*
X8485530Y4779060D01*
X8584387Y4779060D01*
X8590737Y4779772D01*
X8596172Y4781702D01*
X8601100Y4784801D01*
X8605164Y4788865D01*
X8608263Y4793792D01*
X8610193Y4799228D01*
X8610904Y4805578D01*
X8610904Y4884420D01*
X8610193Y4890719D01*
X8608263Y4896205D01*
X8605164Y4901082D01*
X8601100Y4905197D01*
X8596172Y4908296D01*
X8590788Y4910175D01*
X8582761Y4910937D01*
X8579205Y4912004D01*
X8576208Y4914239D01*
X8574278Y4917389D01*
X8573617Y4922774D01*
X8574379Y4926685D01*
X8576564Y4929987D01*
X8683853Y5037277D01*
X8687104Y5039410D01*
X8690864Y5040223D01*
X8694674Y5039563D01*
X8697112Y5038648D01*
X8710218Y5035499D01*
X8723630Y5034178D01*
X8737092Y5034635D01*
X8750350Y5036870D01*
X8763254Y5040833D01*
X8775446Y5046522D01*
X8786825Y5053787D01*
X8797137Y5062474D01*
X8806180Y5072481D01*
X8813800Y5083556D01*
X8819845Y5095595D01*
X8824264Y5108346D01*
X8826957Y5121554D01*
X8827871Y5134965D01*
X8826957Y5148427D01*
X8824264Y5161635D01*
X8819845Y5174386D01*
X8813800Y5186426D01*
X8807551Y5195468D01*
X8805926Y5199532D01*
X8806129Y5203901D01*
X8808161Y5207762D01*
X8811666Y5210454D01*
X8815933Y5211368D01*
X8892082Y5211368D01*
X8896451Y5210403D01*
X8900007Y5207558D01*
X8901988Y5203494D01*
X8901988Y5198973D01*
X8900058Y5194909D01*
X8897823Y5192064D01*
X8890965Y5180482D01*
X8885682Y5168087D01*
X8882126Y5155082D01*
X8880348Y5141722D01*
X8880348Y5128260D01*
X8882126Y5114899D01*
X8885682Y5101894D01*
X8890965Y5089499D01*
X8894978Y5082692D01*
X8895994Y5080203D01*
X8896400Y5077510D01*
X8896400Y4921046D01*
X8895689Y4917389D01*
X8893759Y4914239D01*
X8890762Y4912004D01*
X8887206Y4910937D01*
X8879179Y4910175D01*
X8873744Y4908296D01*
X8868867Y4905197D01*
X8864752Y4901082D01*
X8861704Y4896205D01*
X8859774Y4890719D01*
X8859062Y4884420D01*
X8859062Y4805578D01*
X8859570Y4801006D01*
X8860078Y4798466D01*
X8861704Y4793792D01*
X8864752Y4788865D01*
X8868867Y4784801D01*
X8873744Y4781702D01*
X8879230Y4779772D01*
X8885529Y4779060D01*
X8984386Y4779060D01*
X8990736Y4779772D01*
X8996172Y4781702D01*
X9001099Y4784801D01*
X9005163Y4788865D01*
X9008262Y4793792D01*
X9010192Y4799228D01*
X9010904Y4805578D01*
X9010904Y4884420D01*
X9010192Y4890719D01*
X9008262Y4896205D01*
X9005163Y4901082D01*
X9001099Y4905197D01*
X8996172Y4908296D01*
X8990787Y4910175D01*
X8982760Y4910937D01*
X8979204Y4912004D01*
X8976207Y4914239D01*
X8974277Y4917389D01*
X8973616Y4921046D01*
X8973616Y5024221D01*
X8974328Y5028031D01*
X8976461Y5031282D01*
X8979611Y5033467D01*
X8983421Y5034330D01*
X8991092Y5034635D01*
X9004350Y5036870D01*
X9017254Y5040833D01*
X9029446Y5046522D01*
X9040825Y5053787D01*
X9051137Y5062474D01*
X9060180Y5072481D01*
X9067800Y5083556D01*
X9073845Y5095595D01*
X9078264Y5108346D01*
X9080957Y5121554D01*
X9081871Y5134965D01*
X9080957Y5148427D01*
X9078264Y5161635D01*
X9073845Y5174386D01*
X9067800Y5186426D01*
X9061551Y5195468D01*
X9059926Y5199532D01*
X9060129Y5203901D01*
X9062161Y5207762D01*
X9065666Y5210454D01*
X9069933Y5211368D01*
X9099804Y5211368D01*
X9103664Y5210606D01*
X9106966Y5208422D01*
X9137142Y5178247D01*
X9139174Y5175351D01*
X9140088Y5171897D01*
X9139783Y5168392D01*
X9136126Y5155082D01*
X9134348Y5141722D01*
X9134348Y5128260D01*
X9136126Y5114899D01*
X9139682Y5101894D01*
X9144965Y5089499D01*
X9151823Y5077917D01*
X9160154Y5067300D01*
X9169857Y5057952D01*
X9180677Y5049977D01*
X9192514Y5043474D01*
X9205112Y5038648D01*
X9218218Y5035499D01*
X9231630Y5034178D01*
X9245092Y5034635D01*
X9258350Y5036870D01*
X9271254Y5040833D01*
X9283446Y5046522D01*
X9294825Y5053787D01*
X9305137Y5062474D01*
X9314180Y5072481D01*
X9321800Y5083556D01*
X9327845Y5095595D01*
X9332264Y5108346D01*
X9334957Y5121554D01*
X9335871Y5134965D01*
X9334957Y5148427D01*
X9332264Y5161635D01*
X9327845Y5174386D01*
X9321800Y5186426D01*
X9314180Y5197500D01*
X9305137Y5207508D01*
X9294825Y5216194D01*
X9283446Y5223459D01*
X9271254Y5229148D01*
X9258350Y5233111D01*
X9245092Y5235346D01*
X9231630Y5235803D01*
X9218218Y5234482D01*
X9205112Y5231333D01*
X9202674Y5230418D01*
X9198864Y5229758D01*
X9195104Y5230571D01*
X9191853Y5232704D01*
X9147657Y5276951D01*
X9141409Y5282031D01*
X9134754Y5285638D01*
X9127540Y5287822D01*
X9119514Y5288584D01*
X2050491Y5288584D01*
X2042464Y5287822D01*
X2035251Y5285638D01*
X2028596Y5282031D01*
X2022348Y5276951D01*
X1496060Y4750663D01*
X1490929Y4744415D01*
X1487373Y4737760D01*
X1485188Y4730496D01*
X1484376Y4722520D01*
X1484376Y4687570D01*
X1483664Y4683709D01*
X1481531Y4680458D01*
X1478330Y4678273D01*
X1471726Y4675327D01*
X1459534Y4667961D01*
X1448460Y4659071D01*
X1438554Y4648860D01*
X1430070Y4637481D01*
X1423111Y4625136D01*
X1417777Y4611928D01*
X1414170Y4598212D01*
X1412341Y4584090D01*
X1412341Y4569917D01*
X1414170Y4555794D01*
X1417777Y4542078D01*
X1423111Y4528870D01*
X1430070Y4516526D01*
X1438706Y4504944D01*
X1440535Y4500829D01*
X1440434Y4496409D01*
X1438402Y4492396D01*
X1434896Y4489653D01*
X1430578Y4488688D01*
X1396492Y4488688D01*
X1388465Y4487875D01*
X1381252Y4485690D01*
X1374546Y4482134D01*
X1368348Y4477004D01*
X1319784Y4428490D01*
X1316634Y4426356D01*
X1312875Y4425543D01*
X1309116Y4426153D01*
X1300530Y4429302D01*
X1286713Y4432452D01*
X1272540Y4433824D01*
X1258366Y4433366D01*
X1244295Y4431131D01*
X1230680Y4427067D01*
X1217726Y4421327D01*
X1205534Y4413961D01*
X1194460Y4405071D01*
X1184554Y4394860D01*
X1176070Y4383481D01*
X1169111Y4371136D01*
X1163777Y4357928D01*
X1160170Y4344212D01*
X1158341Y4330090D01*
X1158341Y4315917D01*
X1160170Y4301794D01*
X1163777Y4288078D01*
X1169111Y4274870D01*
X1176070Y4262526D01*
X1181760Y4254855D01*
X1183589Y4250740D01*
X1183487Y4246321D01*
X1181506Y4242308D01*
X1178001Y4239564D01*
X1173632Y4238599D01*
X1138478Y4238599D01*
X1130452Y4237786D01*
X1123238Y4235602D01*
X1116584Y4232046D01*
X1110335Y4226915D01*
X1079296Y4195876D01*
X1075994Y4193692D01*
X1072134Y4192930D01*
X1030020Y4192930D01*
X1025702Y4193844D01*
X1022248Y4196537D01*
X1020216Y4200398D01*
X1020013Y4204766D01*
X1021638Y4208830D01*
X1024839Y4211828D01*
X1029055Y4213199D01*
X1032713Y4213555D01*
X1046530Y4216704D01*
X1059891Y4221581D01*
X1072489Y4228185D01*
X1084122Y4236313D01*
X1094638Y4245864D01*
X1103833Y4256684D01*
X1111605Y4268571D01*
X1117752Y4281373D01*
X1122273Y4294886D01*
X1124966Y4308805D01*
X1125880Y4322978D01*
X1124966Y4337202D01*
X1122273Y4351121D01*
X1117752Y4364634D01*
X1111605Y4377436D01*
X1103833Y4389323D01*
X1094638Y4400143D01*
X1084122Y4409694D01*
X1072489Y4417822D01*
X1059891Y4424375D01*
X1046530Y4429302D01*
X1032713Y4432452D01*
X1018540Y4433824D01*
X1004366Y4433366D01*
X990295Y4431131D01*
X976680Y4427067D01*
X963726Y4421327D01*
X951534Y4413961D01*
X940460Y4405071D01*
X930554Y4394860D01*
X922070Y4383481D01*
X915111Y4371136D01*
X909777Y4357928D01*
X906170Y4344212D01*
X904341Y4330090D01*
X904341Y4315917D01*
X906170Y4301794D01*
X909777Y4288078D01*
X915111Y4274870D01*
X922070Y4262526D01*
X930554Y4251096D01*
X940460Y4240936D01*
X951534Y4232046D01*
X963726Y4224680D01*
X976680Y4218940D01*
X990295Y4214876D01*
X1001420Y4213098D01*
X1005433Y4211523D01*
X1008430Y4208475D01*
X1009853Y4204411D01*
X1009497Y4200144D01*
X1007465Y4196384D01*
X1004011Y4193794D01*
X999794Y4192930D01*
X925576Y4192930D01*
X919276Y4192219D01*
X913790Y4190288D01*
X908913Y4187190D01*
X904798Y4183126D01*
X901700Y4178198D01*
X899820Y4172762D01*
X899109Y4166412D01*
X899109Y3987596D01*
X899820Y3981246D01*
X901700Y3975811D01*
X904798Y3970883D01*
X908913Y3966819D01*
X913790Y3963720D01*
X919276Y3961790D01*
X925576Y3961079D01*
X1104442Y3961079D01*
X1110742Y3961790D01*
X1116228Y3963720D01*
X1121105Y3966819D01*
X1125220Y3970883D01*
X1128268Y3975811D01*
X1130198Y3981246D01*
X1130909Y3987596D01*
X1130909Y4134104D01*
X1131671Y4137964D01*
X1133906Y4141266D01*
X1151026Y4158386D01*
X1154379Y4160621D01*
X1158341Y4161383D01*
X1167130Y4161282D01*
X1171346Y4160316D01*
X1174750Y4157726D01*
X1176782Y4153966D01*
X1177086Y4149699D01*
X1175613Y4145635D01*
X1167434Y4132834D01*
X1161237Y4119676D01*
X1156766Y4105808D01*
X1154023Y4091533D01*
X1153109Y4077004D01*
X1154023Y4062476D01*
X1156766Y4048201D01*
X1161237Y4034332D01*
X1167434Y4021175D01*
X1175258Y4008882D01*
X1184503Y3997655D01*
X1195120Y3987698D01*
X1206906Y3979164D01*
X1219657Y3972153D01*
X1233220Y3966768D01*
X1247292Y3963162D01*
X1261719Y3961333D01*
X1276299Y3961333D01*
X1290726Y3963162D01*
X1304798Y3966768D01*
X1318361Y3972153D01*
X1331112Y3979164D01*
X1342898Y3987698D01*
X1353464Y3997655D01*
X1362760Y4008882D01*
X1370584Y4021175D01*
X1376781Y4034332D01*
X1381252Y4048201D01*
X1383995Y4062476D01*
X1384909Y4077004D01*
X1383995Y4091533D01*
X1381252Y4105808D01*
X1376781Y4119676D01*
X1370584Y4132834D01*
X1362303Y4145787D01*
X1360830Y4149801D01*
X1361135Y4154119D01*
X1363218Y4157878D01*
X1366672Y4160469D01*
X1370888Y4161383D01*
X1421130Y4161383D01*
X1425346Y4160469D01*
X1428800Y4157878D01*
X1430832Y4154119D01*
X1431188Y4149801D01*
X1429664Y4145787D01*
X1421434Y4132834D01*
X1415237Y4119676D01*
X1410766Y4105808D01*
X1408023Y4091533D01*
X1407109Y4077004D01*
X1408023Y4062476D01*
X1410766Y4048201D01*
X1415237Y4034332D01*
X1421434Y4021175D01*
X1429258Y4008882D01*
X1438503Y3997655D01*
X1449120Y3987698D01*
X1460906Y3979164D01*
X1473657Y3972153D01*
X1487220Y3966768D01*
X1501292Y3963162D01*
X1515719Y3961333D01*
X1530299Y3961333D01*
X1544726Y3963162D01*
X1558798Y3966768D01*
X1572361Y3972153D01*
X1585112Y3979164D01*
X1596898Y3987698D01*
X1607464Y3997655D01*
X1616760Y4008882D01*
X1624584Y4021175D01*
X1630781Y4034332D01*
X1635251Y4048201D01*
X1637995Y4062476D01*
X1638909Y4077004D01*
X1637995Y4091533D01*
X1635251Y4105808D01*
X1630781Y4119676D01*
X1624584Y4132834D01*
X1616303Y4145787D01*
X1614830Y4149801D01*
X1615135Y4154119D01*
X1617218Y4157878D01*
X1620672Y4160469D01*
X1624888Y4161383D01*
X1675130Y4161383D01*
X1679346Y4160469D01*
X1682800Y4157878D01*
X1684832Y4154119D01*
X1685188Y4149801D01*
X1683664Y4145787D01*
X1675434Y4132834D01*
X1669237Y4119676D01*
X1664766Y4105808D01*
X1662023Y4091533D01*
X1661109Y4077004D01*
X1662023Y4062476D01*
X1664766Y4048201D01*
X1669237Y4034332D01*
X1675434Y4021175D01*
X1683257Y4008882D01*
X1692503Y3997655D01*
X1703120Y3987698D01*
X1714906Y3979164D01*
X1727657Y3972153D01*
X1741220Y3966768D01*
X1755292Y3963162D01*
X1769719Y3961333D01*
X1784299Y3961333D01*
X1798726Y3963162D01*
X1812798Y3966768D01*
X1817928Y3968800D01*
X1821789Y3969512D01*
X1825599Y3968750D01*
X1828850Y3966565D01*
X1872335Y3923029D01*
X1878584Y3917950D01*
X1885238Y3914343D01*
X1892452Y3912158D01*
X1900478Y3911396D01*
X1932432Y3911396D01*
X1936140Y3910685D01*
X1939391Y3908653D01*
X1941626Y3905554D01*
X1942541Y3901846D01*
X1942084Y3898087D01*
X1940255Y3894734D01*
X1937257Y3891127D01*
X1929434Y3878834D01*
X1923237Y3865676D01*
X1918766Y3851808D01*
X1916023Y3837533D01*
X1915109Y3823004D01*
X1916023Y3808476D01*
X1918766Y3794201D01*
X1923237Y3780332D01*
X1929434Y3767175D01*
X1937715Y3754221D01*
X1939188Y3750157D01*
X1938883Y3745890D01*
X1936800Y3742080D01*
X1933346Y3739540D01*
X1929130Y3738575D01*
X1878888Y3738575D01*
X1874672Y3739540D01*
X1871218Y3742080D01*
X1869135Y3745890D01*
X1868830Y3750157D01*
X1870303Y3754221D01*
X1878584Y3767175D01*
X1884781Y3780332D01*
X1889252Y3794201D01*
X1891995Y3808476D01*
X1892909Y3823004D01*
X1891995Y3837533D01*
X1889252Y3851808D01*
X1884781Y3865676D01*
X1878584Y3878834D01*
X1870760Y3891127D01*
X1861464Y3902354D01*
X1850898Y3912311D01*
X1839112Y3920845D01*
X1826361Y3927856D01*
X1812798Y3933240D01*
X1798726Y3936847D01*
X1784299Y3938676D01*
X1769719Y3938676D01*
X1755292Y3936847D01*
X1741220Y3933240D01*
X1727657Y3927856D01*
X1714906Y3920845D01*
X1703120Y3912311D01*
X1692503Y3902354D01*
X1683257Y3891127D01*
X1675434Y3878834D01*
X1669237Y3865676D01*
X1664766Y3851808D01*
X1662023Y3837533D01*
X1661109Y3823004D01*
X1662023Y3808476D01*
X1664766Y3794201D01*
X1669237Y3780332D01*
X1675434Y3767175D01*
X1683715Y3754221D01*
X1685188Y3750157D01*
X1684883Y3745890D01*
X1682800Y3742080D01*
X1679346Y3739540D01*
X1675130Y3738575D01*
X1624888Y3738575D01*
X1620672Y3739540D01*
X1617218Y3742080D01*
X1615135Y3745890D01*
X1614830Y3750157D01*
X1616303Y3754221D01*
X1624584Y3767175D01*
X1630781Y3780332D01*
X1635251Y3794201D01*
X1637995Y3808476D01*
X1638909Y3823004D01*
X1637995Y3837533D01*
X1635251Y3851808D01*
X1630781Y3865676D01*
X1624584Y3878834D01*
X1616760Y3891127D01*
X1607464Y3902354D01*
X1596898Y3912311D01*
X1585112Y3920845D01*
X1572361Y3927856D01*
X1558798Y3933240D01*
X1544726Y3936847D01*
X1530299Y3938676D01*
X1515719Y3938676D01*
X1501292Y3936847D01*
X1487220Y3933240D01*
X1473657Y3927856D01*
X1460906Y3920845D01*
X1449120Y3912311D01*
X1438503Y3902354D01*
X1429258Y3891127D01*
X1421434Y3878834D01*
X1415237Y3865676D01*
X1410766Y3851808D01*
X1408023Y3837533D01*
X1407109Y3823004D01*
X1408023Y3808476D01*
X1410766Y3794201D01*
X1415237Y3780332D01*
X1421434Y3767175D01*
X1429715Y3754221D01*
X1431188Y3750157D01*
X1430883Y3745890D01*
X1428800Y3742080D01*
X1425346Y3739540D01*
X1421130Y3738575D01*
X1370888Y3738575D01*
X1366672Y3739540D01*
X1363218Y3742080D01*
X1361135Y3745890D01*
X1360830Y3750157D01*
X1362303Y3754221D01*
X1370584Y3767175D01*
X1376781Y3780332D01*
X1381252Y3794201D01*
X1383995Y3808476D01*
X1384909Y3823004D01*
X1383995Y3837533D01*
X1381252Y3851808D01*
X1376781Y3865676D01*
X1370584Y3878834D01*
X1362760Y3891127D01*
X1353464Y3902354D01*
X1342898Y3912311D01*
X1331112Y3920845D01*
X1318361Y3927856D01*
X1304798Y3933240D01*
X1290726Y3936847D01*
X1276299Y3938676D01*
X1261719Y3938676D01*
X1247292Y3936847D01*
X1233220Y3933240D01*
X1219657Y3927856D01*
X1206906Y3920845D01*
X1195120Y3912311D01*
X1184503Y3902354D01*
X1175258Y3891127D01*
X1167434Y3878834D01*
X1161237Y3865676D01*
X1156766Y3851808D01*
X1154023Y3837533D01*
X1153109Y3823004D01*
X1154023Y3808476D01*
X1156766Y3794201D01*
X1161237Y3780332D01*
X1167434Y3767175D01*
X1170330Y3762654D01*
X1171803Y3758742D01*
X1171549Y3754526D01*
X1169568Y3750767D01*
X1166317Y3748176D01*
X1162253Y3747058D01*
X1158087Y3747770D01*
X1154531Y3750056D01*
X1127506Y3777081D01*
X1125423Y3780129D01*
X1124559Y3783736D01*
X1125067Y3787394D01*
X1127252Y3794201D01*
X1129995Y3808476D01*
X1130909Y3823004D01*
X1129995Y3837533D01*
X1127252Y3851808D01*
X1122781Y3865676D01*
X1116584Y3878834D01*
X1108760Y3891127D01*
X1099464Y3902354D01*
X1088898Y3912311D01*
X1077112Y3920845D01*
X1064361Y3927856D01*
X1050798Y3933240D01*
X1036726Y3936847D01*
X1022299Y3938676D01*
X1007719Y3938676D01*
X993292Y3936847D01*
X979220Y3933240D01*
X965657Y3927856D01*
X952906Y3920845D01*
X941120Y3912311D01*
X930503Y3902354D01*
X921258Y3891127D01*
X913434Y3878834D01*
X907237Y3865676D01*
X902766Y3851808D01*
X900023Y3837533D01*
X899109Y3823004D01*
X900023Y3808476D01*
X902766Y3794201D01*
X907237Y3780332D01*
X913434Y3767175D01*
X921258Y3754882D01*
X930503Y3743655D01*
X941120Y3733698D01*
X952906Y3725164D01*
X965657Y3718153D01*
X979220Y3712768D01*
X993292Y3709162D01*
X1007719Y3707333D01*
X1022299Y3707333D01*
X1036726Y3709162D01*
X1050798Y3712768D01*
X1064361Y3718153D01*
X1065987Y3719068D01*
X1070152Y3720287D01*
X1074420Y3719677D01*
X1078077Y3717340D01*
X1102156Y3693261D01*
X1104341Y3689959D01*
X1105103Y3686048D01*
X1104341Y3682187D01*
X1102156Y3678885D01*
X1098854Y3676650D01*
X1094943Y3675887D01*
G37*

%LPC*%
G36*
X4346346Y4776317D02*
G01*
X4390898Y4776317D01*
X4390898Y4789424D01*
X4389932Y4796536D01*
X4388256Y4801209D01*
X4385208Y4806086D01*
X4381093Y4810201D01*
X4376216Y4813300D01*
X4370730Y4815179D01*
X4364431Y4815890D01*
X4346346Y4815890D01*
G37*
G36*
X11025632Y3696258D02*
G01*
X11025632Y3748633D01*
X10973308Y3748633D01*
X10975441Y3744163D01*
X10983214Y3731869D01*
X10992510Y3720642D01*
X11003127Y3710686D01*
X11014862Y3702151D01*
G37*
G36*
X8977630Y3764178D02*
G01*
X8991092Y3764635D01*
X9004350Y3766870D01*
X9017254Y3770833D01*
X9029446Y3776522D01*
X9040825Y3783787D01*
X9051137Y3792474D01*
X9060180Y3802481D01*
X9067800Y3813556D01*
X9073845Y3825595D01*
X9078264Y3838346D01*
X9080957Y3851554D01*
X9081871Y3864965D01*
X9080957Y3878427D01*
X9078264Y3891635D01*
X9073845Y3904386D01*
X9067800Y3916426D01*
X9060180Y3927500D01*
X9051137Y3937508D01*
X9040825Y3946194D01*
X9029446Y3953459D01*
X9017254Y3959148D01*
X9004350Y3963111D01*
X8991092Y3965346D01*
X8977630Y3965803D01*
X8964218Y3964482D01*
X8951112Y3961333D01*
X8938514Y3956507D01*
X8926677Y3950004D01*
X8915857Y3942029D01*
X8906154Y3932682D01*
X8897823Y3922064D01*
X8890965Y3910482D01*
X8885682Y3898087D01*
X8882126Y3885082D01*
X8880348Y3871722D01*
X8880348Y3858260D01*
X8882126Y3844899D01*
X8885682Y3831894D01*
X8890965Y3819499D01*
X8897823Y3807917D01*
X8906154Y3797300D01*
X8915857Y3787952D01*
X8926677Y3779977D01*
X8938514Y3773474D01*
X8951112Y3768648D01*
X8964218Y3765499D01*
G37*
G36*
X8723630Y3764178D02*
G01*
X8737092Y3764635D01*
X8750350Y3766870D01*
X8763254Y3770833D01*
X8775446Y3776522D01*
X8786825Y3783787D01*
X8797137Y3792474D01*
X8806180Y3802481D01*
X8813800Y3813556D01*
X8819845Y3825595D01*
X8824264Y3838346D01*
X8826957Y3851554D01*
X8827871Y3864965D01*
X8826957Y3878427D01*
X8824264Y3891635D01*
X8819845Y3904386D01*
X8813800Y3916426D01*
X8806180Y3927500D01*
X8797137Y3937508D01*
X8786825Y3946194D01*
X8775446Y3953459D01*
X8763254Y3959148D01*
X8750350Y3963111D01*
X8737092Y3965346D01*
X8723630Y3965803D01*
X8710218Y3964482D01*
X8697112Y3961333D01*
X8684514Y3956507D01*
X8672677Y3950004D01*
X8661857Y3942029D01*
X8652154Y3932682D01*
X8643823Y3922064D01*
X8636965Y3910482D01*
X8631682Y3898087D01*
X8628126Y3885082D01*
X8626348Y3871722D01*
X8626348Y3858260D01*
X8628126Y3844899D01*
X8631682Y3831894D01*
X8636965Y3819499D01*
X8643823Y3807917D01*
X8652154Y3797300D01*
X8661857Y3787952D01*
X8672677Y3779977D01*
X8684514Y3773474D01*
X8697112Y3768648D01*
X8710218Y3765499D01*
G37*
G36*
X8469630Y3764178D02*
G01*
X8483092Y3764635D01*
X8496350Y3766870D01*
X8509254Y3770833D01*
X8521446Y3776522D01*
X8532825Y3783787D01*
X8543137Y3792474D01*
X8552180Y3802481D01*
X8559800Y3813556D01*
X8565845Y3825595D01*
X8570264Y3838346D01*
X8572957Y3851554D01*
X8573871Y3864965D01*
X8572957Y3878427D01*
X8570264Y3891635D01*
X8565845Y3904386D01*
X8559800Y3916426D01*
X8552180Y3927500D01*
X8543137Y3937508D01*
X8532825Y3946194D01*
X8521446Y3953459D01*
X8509254Y3959148D01*
X8496350Y3963111D01*
X8483092Y3965346D01*
X8469630Y3965803D01*
X8456218Y3964482D01*
X8443112Y3961333D01*
X8430514Y3956507D01*
X8418677Y3950004D01*
X8407857Y3942029D01*
X8398154Y3932682D01*
X8389823Y3922064D01*
X8382965Y3910482D01*
X8377681Y3898087D01*
X8374125Y3885082D01*
X8372348Y3871722D01*
X8372348Y3858260D01*
X8374125Y3844899D01*
X8377681Y3831894D01*
X8382965Y3819499D01*
X8389823Y3807917D01*
X8398154Y3797300D01*
X8407857Y3787952D01*
X8418677Y3779977D01*
X8430514Y3773474D01*
X8443112Y3768648D01*
X8456218Y3765499D01*
G37*
G36*
X7961630Y3764178D02*
G01*
X7975092Y3764635D01*
X7988350Y3766870D01*
X8001253Y3770833D01*
X8013446Y3776522D01*
X8024825Y3783787D01*
X8035137Y3792474D01*
X8044180Y3802481D01*
X8051800Y3813556D01*
X8057845Y3825595D01*
X8062264Y3838346D01*
X8064957Y3851554D01*
X8065871Y3864965D01*
X8064957Y3878427D01*
X8062264Y3891635D01*
X8057845Y3904386D01*
X8051800Y3916426D01*
X8044180Y3927500D01*
X8035137Y3937508D01*
X8024825Y3946194D01*
X8013446Y3953459D01*
X8001253Y3959148D01*
X7995716Y3960825D01*
X7992008Y3962958D01*
X7989468Y3966362D01*
X7988604Y3970528D01*
X7988604Y4055059D01*
X7989366Y4058970D01*
X7991551Y4062272D01*
X7993125Y4063847D01*
X7998764Y4071874D01*
X8002930Y4080814D01*
X8005470Y4090263D01*
X8006334Y4100068D01*
X8005470Y4109872D01*
X8002930Y4119321D01*
X7998764Y4128262D01*
X7993125Y4136288D01*
X7986217Y4143248D01*
X7978140Y4148886D01*
X7969250Y4153001D01*
X7959750Y4155541D01*
X7949996Y4156405D01*
X7940192Y4155541D01*
X7930692Y4153001D01*
X7921802Y4148886D01*
X7913776Y4143248D01*
X7906816Y4136288D01*
X7901178Y4128262D01*
X7897012Y4119321D01*
X7894472Y4109872D01*
X7893659Y4100068D01*
X7894472Y4090263D01*
X7897012Y4080814D01*
X7901178Y4071874D01*
X7906816Y4063847D01*
X7908391Y4062272D01*
X7910626Y4058970D01*
X7911388Y4055059D01*
X7911388Y3955643D01*
X7910880Y3952544D01*
X7909458Y3949700D01*
X7907223Y3947464D01*
X7899857Y3942029D01*
X7890154Y3932682D01*
X7881823Y3922064D01*
X7874965Y3910482D01*
X7869681Y3898087D01*
X7866125Y3885082D01*
X7864348Y3871722D01*
X7864348Y3858260D01*
X7866125Y3844899D01*
X7869681Y3831894D01*
X7874965Y3819499D01*
X7881823Y3807917D01*
X7890154Y3797300D01*
X7899857Y3787952D01*
X7910677Y3779977D01*
X7922514Y3773474D01*
X7935112Y3768648D01*
X7948218Y3765499D01*
G37*
G36*
X9231630Y3764178D02*
G01*
X9245092Y3764635D01*
X9258350Y3766870D01*
X9271254Y3770833D01*
X9283446Y3776522D01*
X9294825Y3783787D01*
X9305137Y3792474D01*
X9314180Y3802481D01*
X9321800Y3813556D01*
X9327845Y3825595D01*
X9332264Y3838346D01*
X9334957Y3851554D01*
X9335871Y3864965D01*
X9334957Y3878427D01*
X9332264Y3891635D01*
X9327845Y3904386D01*
X9321800Y3916426D01*
X9314180Y3927500D01*
X9305137Y3937508D01*
X9294825Y3946194D01*
X9283446Y3953459D01*
X9271254Y3959148D01*
X9260738Y3962400D01*
X9257030Y3964482D01*
X9254490Y3967937D01*
X9253575Y3972102D01*
X9253575Y4028897D01*
X9254286Y4032605D01*
X9256217Y4035755D01*
X9259163Y4037990D01*
X9262770Y4039057D01*
X9270796Y4039819D01*
X9276181Y4041698D01*
X9281109Y4044797D01*
X9285173Y4048861D01*
X9288272Y4053789D01*
X9290202Y4059224D01*
X9290913Y4065574D01*
X9290913Y4144416D01*
X9290202Y4150766D01*
X9288272Y4156201D01*
X9285173Y4161078D01*
X9281109Y4165193D01*
X9276181Y4168292D01*
X9270746Y4170172D01*
X9264396Y4170883D01*
X9165539Y4170883D01*
X9159240Y4170172D01*
X9153753Y4168292D01*
X9148876Y4165193D01*
X9144762Y4161078D01*
X9141714Y4156201D01*
X9139783Y4150766D01*
X9139072Y4144416D01*
X9139072Y4065574D01*
X9139783Y4059224D01*
X9141714Y4053789D01*
X9144762Y4048861D01*
X9148876Y4044797D01*
X9153753Y4041698D01*
X9159138Y4039819D01*
X9167215Y4039057D01*
X9170771Y4037990D01*
X9173718Y4035755D01*
X9175699Y4032605D01*
X9176359Y4028897D01*
X9176359Y3951986D01*
X9175902Y3948836D01*
X9174480Y3946042D01*
X9172244Y3943807D01*
X9169857Y3942029D01*
X9160154Y3932682D01*
X9151823Y3922064D01*
X9144965Y3910482D01*
X9139682Y3898087D01*
X9136126Y3885082D01*
X9134348Y3871722D01*
X9134348Y3858260D01*
X9136126Y3844899D01*
X9139682Y3831894D01*
X9144965Y3819499D01*
X9151823Y3807917D01*
X9160154Y3797300D01*
X9169857Y3787952D01*
X9180677Y3779977D01*
X9192514Y3773474D01*
X9205112Y3768648D01*
X9218218Y3765499D01*
G37*
G36*
X10973308Y3851351D02*
G01*
X11025632Y3851351D01*
X11025632Y3903726D01*
X11014862Y3897833D01*
X11003127Y3889298D01*
X10992510Y3879342D01*
X10983214Y3868115D01*
X10975441Y3855821D01*
G37*
G36*
X11128349Y3851351D02*
G01*
X11180622Y3851351D01*
X11178540Y3855821D01*
X11170716Y3868115D01*
X11161471Y3879342D01*
X11150854Y3889298D01*
X11139068Y3897833D01*
X11128349Y3903726D01*
G37*
G36*
X5576316Y4039057D02*
G01*
X5589422Y4039057D01*
X5595721Y4039768D01*
X5601208Y4041698D01*
X5606084Y4044797D01*
X5610199Y4048861D01*
X5613298Y4053789D01*
X5615178Y4059224D01*
X5615889Y4065574D01*
X5615889Y4083659D01*
X5576316Y4083659D01*
G37*
G36*
X5510580Y4039057D02*
G01*
X5523636Y4039057D01*
X5523636Y4083659D01*
X5484063Y4083659D01*
X5484063Y4065574D01*
X5484774Y4059224D01*
X5486704Y4053789D01*
X5489803Y4048861D01*
X5493867Y4044797D01*
X5498795Y4041698D01*
X5504230Y4039768D01*
G37*
G36*
X6740550Y4065066D02*
G01*
X6769404Y4065066D01*
X6769404Y4098645D01*
X6714083Y4098645D01*
X6714083Y4091584D01*
X6714794Y4085234D01*
X6716725Y4079798D01*
X6719773Y4074871D01*
X6723888Y4070807D01*
X6728764Y4067708D01*
X6734251Y4065778D01*
G37*
G36*
X6853580Y4065066D02*
G01*
X6882434Y4065066D01*
X6888734Y4065778D01*
X6894220Y4067708D01*
X6899097Y4070807D01*
X6903212Y4074871D01*
X6906259Y4079798D01*
X6908190Y4085234D01*
X6908901Y4091584D01*
X6908901Y4098645D01*
X6853580Y4098645D01*
G37*
G36*
X8935567Y4134104D02*
G01*
X8953652Y4134104D01*
X8953652Y4173626D01*
X8909100Y4173626D01*
X8909100Y4160570D01*
X8909812Y4154220D01*
X8911691Y4148785D01*
X8914790Y4143857D01*
X8918854Y4139793D01*
X8923782Y4136694D01*
X8929217Y4134815D01*
G37*
G36*
X9016339Y4134104D02*
G01*
X9034424Y4134104D01*
X9040723Y4134815D01*
X9046210Y4136694D01*
X9051086Y4139793D01*
X9055201Y4143857D01*
X9058249Y4148785D01*
X9060180Y4154220D01*
X9060891Y4160570D01*
X9060891Y4173626D01*
X9016339Y4173626D01*
G37*
G36*
X10987532Y4434078D02*
G01*
X11025632Y4434078D01*
X11025632Y4498644D01*
X10961065Y4498644D01*
X10961065Y4460544D01*
X10961776Y4454245D01*
X10963706Y4448759D01*
X10966754Y4443882D01*
X10970869Y4439767D01*
X10975746Y4436719D01*
X10981232Y4434789D01*
G37*
G36*
X11128349Y4434078D02*
G01*
X11166398Y4434078D01*
X11172748Y4434789D01*
X11178184Y4436719D01*
X11183112Y4439767D01*
X11187176Y4443882D01*
X11190274Y4448759D01*
X11192154Y4454245D01*
X11192865Y4460544D01*
X11192865Y4498644D01*
X11128349Y4498644D01*
G37*
G36*
X10815726Y4434332D02*
G01*
X10830255Y4434332D01*
X10844682Y4436160D01*
X10858804Y4439767D01*
X10872317Y4445152D01*
X10885068Y4452162D01*
X10896854Y4460697D01*
X10907471Y4470654D01*
X10916767Y4481880D01*
X10924540Y4494174D01*
X10930737Y4507331D01*
X10935258Y4521149D01*
X10937951Y4535474D01*
X10938865Y4550003D01*
X10937951Y4564532D01*
X10935258Y4578807D01*
X10930737Y4592675D01*
X10924540Y4605832D01*
X10916767Y4618126D01*
X10907471Y4629302D01*
X10896854Y4639259D01*
X10885068Y4647844D01*
X10872317Y4654854D01*
X10858804Y4660188D01*
X10844682Y4663846D01*
X10830255Y4665675D01*
X10815726Y4665675D01*
X10801299Y4663846D01*
X10787176Y4660188D01*
X10773664Y4654854D01*
X10760913Y4647844D01*
X10749127Y4639259D01*
X10738510Y4629302D01*
X10729214Y4618126D01*
X10721441Y4605832D01*
X10715244Y4592675D01*
X10710722Y4578807D01*
X10708030Y4564532D01*
X10707116Y4550003D01*
X10708030Y4535474D01*
X10710722Y4521149D01*
X10715244Y4507331D01*
X10721441Y4494174D01*
X10729214Y4481880D01*
X10738510Y4470654D01*
X10749127Y4460697D01*
X10760913Y4452162D01*
X10773664Y4445152D01*
X10787176Y4439767D01*
X10801299Y4436160D01*
G37*
G36*
X1272540Y4466183D02*
G01*
X1286713Y4467555D01*
X1300530Y4470704D01*
X1313891Y4475581D01*
X1326489Y4482185D01*
X1338122Y4490313D01*
X1348638Y4499864D01*
X1357833Y4510684D01*
X1365605Y4522571D01*
X1371752Y4535373D01*
X1376273Y4548886D01*
X1378966Y4562805D01*
X1379880Y4576978D01*
X1378966Y4591202D01*
X1376273Y4605121D01*
X1371752Y4618634D01*
X1365605Y4631436D01*
X1357833Y4643323D01*
X1348638Y4654143D01*
X1338122Y4663694D01*
X1326489Y4671822D01*
X1313891Y4678375D01*
X1300530Y4683302D01*
X1286713Y4686452D01*
X1272540Y4687824D01*
X1258366Y4687366D01*
X1244295Y4685131D01*
X1230680Y4681067D01*
X1217726Y4675327D01*
X1205534Y4667961D01*
X1194460Y4659071D01*
X1184554Y4648860D01*
X1176070Y4637481D01*
X1169111Y4625136D01*
X1163777Y4611928D01*
X1160170Y4598212D01*
X1158341Y4584090D01*
X1158341Y4569917D01*
X1160170Y4555794D01*
X1163777Y4542078D01*
X1169111Y4528870D01*
X1176070Y4516526D01*
X1184554Y4505096D01*
X1194460Y4494936D01*
X1205534Y4486046D01*
X1217726Y4478680D01*
X1230680Y4472940D01*
X1244295Y4468876D01*
X1258366Y4466640D01*
G37*
G36*
X1018540Y4466183D02*
G01*
X1032713Y4467555D01*
X1046530Y4470704D01*
X1059891Y4475581D01*
X1072489Y4482185D01*
X1084122Y4490313D01*
X1094638Y4499864D01*
X1103833Y4510684D01*
X1111605Y4522571D01*
X1117752Y4535373D01*
X1122273Y4548886D01*
X1124966Y4562805D01*
X1125880Y4576978D01*
X1124966Y4591202D01*
X1122273Y4605121D01*
X1117752Y4618634D01*
X1111605Y4631436D01*
X1103833Y4643323D01*
X1094638Y4654143D01*
X1084122Y4663694D01*
X1072489Y4671822D01*
X1059891Y4678375D01*
X1046530Y4683302D01*
X1032713Y4686452D01*
X1018540Y4687824D01*
X1004366Y4687366D01*
X990295Y4685131D01*
X976680Y4681067D01*
X963726Y4675327D01*
X951534Y4667961D01*
X940460Y4659071D01*
X930554Y4648860D01*
X922070Y4637481D01*
X915111Y4625136D01*
X909777Y4611928D01*
X906170Y4598212D01*
X904341Y4584090D01*
X904341Y4569917D01*
X906170Y4555794D01*
X909777Y4542078D01*
X915111Y4528870D01*
X922070Y4516526D01*
X930554Y4505096D01*
X940460Y4494936D01*
X951534Y4486046D01*
X963726Y4478680D01*
X976680Y4472940D01*
X990295Y4468876D01*
X1004366Y4466640D01*
G37*
G36*
X11128349Y4601362D02*
G01*
X11192865Y4601362D01*
X11192865Y4639411D01*
X11192154Y4645761D01*
X11190274Y4651197D01*
X11187176Y4656124D01*
X11183112Y4660188D01*
X11178184Y4663287D01*
X11172748Y4665167D01*
X11166398Y4665878D01*
X11128349Y4665878D01*
G37*
G36*
X11128349Y3696258D02*
G01*
X11139068Y3702151D01*
X11150854Y3710686D01*
X11161471Y3720642D01*
X11170716Y3731869D01*
X11178540Y3744163D01*
X11180622Y3748633D01*
X11128349Y3748633D01*
G37*
G36*
X8796324Y4684064D02*
G01*
X8814409Y4684064D01*
X8820708Y4684776D01*
X8826195Y4686706D01*
X8831072Y4689805D01*
X8835186Y4693869D01*
X8838285Y4698796D01*
X8840520Y4704486D01*
X8840368Y4706010D01*
X8840876Y4710582D01*
X8840876Y4723638D01*
X8796324Y4723638D01*
G37*
G36*
X8315553Y4684064D02*
G01*
X8333638Y4684064D01*
X8333638Y4723638D01*
X8289086Y4723638D01*
X8289086Y4710582D01*
X8289798Y4704232D01*
X8291677Y4698796D01*
X8294776Y4693869D01*
X8298891Y4689805D01*
X8303768Y4686706D01*
X8309203Y4684776D01*
G37*
G36*
X4665573Y4684064D02*
G01*
X4683658Y4684064D01*
X4683658Y4723638D01*
X4639056Y4723638D01*
X4639056Y4710582D01*
X4639767Y4704232D01*
X4641697Y4698796D01*
X4644796Y4693869D01*
X4648860Y4689805D01*
X4653788Y4686706D01*
X4659223Y4684776D01*
G37*
G36*
X9196324Y4684064D02*
G01*
X9214408Y4684064D01*
X9220708Y4684776D01*
X9226194Y4686706D01*
X9231071Y4689805D01*
X9235186Y4693869D01*
X9238284Y4698796D01*
X9240164Y4704232D01*
X9240875Y4710582D01*
X9240875Y4723638D01*
X9196324Y4723638D01*
G37*
G36*
X8715552Y4684064D02*
G01*
X8733637Y4684064D01*
X8733637Y4723638D01*
X8689086Y4723638D01*
X8689086Y4710582D01*
X8689797Y4704232D01*
X8691676Y4698796D01*
X8694775Y4693869D01*
X8698890Y4689805D01*
X8703767Y4686706D01*
X8709202Y4684776D01*
G37*
G36*
X4346346Y4684064D02*
G01*
X4364431Y4684064D01*
X4370730Y4684776D01*
X4376216Y4686706D01*
X4381093Y4689805D01*
X4385208Y4693869D01*
X4388256Y4698796D01*
X4390542Y4704486D01*
X4390390Y4706010D01*
X4390898Y4710582D01*
X4390898Y4723638D01*
X4346346Y4723638D01*
G37*
G36*
X4265574Y4684064D02*
G01*
X4283659Y4684064D01*
X4283659Y4723638D01*
X4239056Y4723638D01*
X4239056Y4710582D01*
X4239768Y4704232D01*
X4241698Y4698796D01*
X4244797Y4693869D01*
X4248861Y4689805D01*
X4253788Y4686706D01*
X4259224Y4684776D01*
G37*
G36*
X8396325Y4684064D02*
G01*
X8414410Y4684064D01*
X8420709Y4684776D01*
X8426196Y4686706D01*
X8431072Y4689805D01*
X8435187Y4693869D01*
X8438286Y4698796D01*
X8440521Y4704486D01*
X8440369Y4706010D01*
X8440877Y4710582D01*
X8440877Y4723638D01*
X8396325Y4723638D01*
G37*
G36*
X9115552Y4684064D02*
G01*
X9133636Y4684064D01*
X9133636Y4723638D01*
X9089085Y4723638D01*
X9089085Y4710582D01*
X9089796Y4704232D01*
X9091676Y4698796D01*
X9094774Y4693869D01*
X9098889Y4689805D01*
X9103766Y4686706D01*
X9109202Y4684776D01*
G37*
G36*
X4746345Y4684064D02*
G01*
X4764430Y4684064D01*
X4770729Y4684776D01*
X4776216Y4686706D01*
X4781092Y4689805D01*
X4785207Y4693869D01*
X4788255Y4698796D01*
X4790541Y4704486D01*
X4790389Y4706010D01*
X4790897Y4710582D01*
X4790897Y4723638D01*
X4746345Y4723638D01*
G37*
G36*
X4639056Y4776317D02*
G01*
X4683658Y4776317D01*
X4683658Y4815890D01*
X4665573Y4815890D01*
X4659223Y4815179D01*
X4653788Y4813300D01*
X4648860Y4810201D01*
X4644796Y4806086D01*
X4641697Y4801209D01*
X4639767Y4795723D01*
X4639056Y4789424D01*
G37*
G36*
X5146344Y4776317D02*
G01*
X5190896Y4776317D01*
X5190896Y4789424D01*
X5190185Y4795723D01*
X5188254Y4801209D01*
X5185206Y4806086D01*
X5181092Y4810201D01*
X5176215Y4813300D01*
X5170728Y4815179D01*
X5164429Y4815890D01*
X5146344Y4815890D01*
G37*
G36*
X8689086Y4776317D02*
G01*
X8733637Y4776317D01*
X8733637Y4815890D01*
X8715552Y4815890D01*
X8709202Y4815179D01*
X8703767Y4813300D01*
X8698890Y4810201D01*
X8694775Y4806086D01*
X8691676Y4801209D01*
X8689797Y4795723D01*
X8689086Y4789424D01*
G37*
G36*
X4239056Y4776317D02*
G01*
X4283659Y4776317D01*
X4283659Y4815890D01*
X4265574Y4815890D01*
X4259224Y4815179D01*
X4253788Y4813300D01*
X4248861Y4810201D01*
X4244797Y4806086D01*
X4241698Y4801209D01*
X4239768Y4795723D01*
X4239056Y4789424D01*
G37*
G36*
X9089085Y4776317D02*
G01*
X9133636Y4776317D01*
X9133636Y4815890D01*
X9115552Y4815890D01*
X9109202Y4815179D01*
X9103766Y4813300D01*
X9098889Y4810201D01*
X9094774Y4806086D01*
X9091676Y4801209D01*
X9089796Y4795723D01*
X9089085Y4789424D01*
G37*
G36*
X5039055Y4776317D02*
G01*
X5083657Y4776317D01*
X5083657Y4815890D01*
X5065572Y4815890D01*
X5059222Y4815179D01*
X5053787Y4813300D01*
X5048859Y4810201D01*
X5044795Y4806086D01*
X5041696Y4801209D01*
X5039766Y4795723D01*
X5039055Y4789424D01*
G37*
G36*
X8289086Y4776317D02*
G01*
X8333638Y4776317D01*
X8333638Y4815890D01*
X8315553Y4815890D01*
X8309203Y4815179D01*
X8303768Y4813300D01*
X8298891Y4810201D01*
X8294776Y4806086D01*
X8291677Y4801209D01*
X8289798Y4795723D01*
X8289086Y4789424D01*
G37*
G36*
X9196324Y4776317D02*
G01*
X9240875Y4776317D01*
X9240875Y4789424D01*
X9240164Y4795723D01*
X9238284Y4801209D01*
X9235186Y4806086D01*
X9231071Y4810201D01*
X9226194Y4813300D01*
X9220708Y4815179D01*
X9214408Y4815890D01*
X9196324Y4815890D01*
G37*
G36*
X4746345Y4776317D02*
G01*
X4790897Y4776317D01*
X4790897Y4789424D01*
X4789932Y4796536D01*
X4788255Y4801209D01*
X4785207Y4806086D01*
X4781092Y4810201D01*
X4776216Y4813300D01*
X4770729Y4815179D01*
X4764430Y4815890D01*
X4746345Y4815890D01*
G37*
G36*
X8396325Y4776317D02*
G01*
X8440877Y4776317D01*
X8440877Y4789424D01*
X8439912Y4796536D01*
X8438286Y4801209D01*
X8435187Y4806086D01*
X8431072Y4810201D01*
X8426196Y4813300D01*
X8420709Y4815179D01*
X8414410Y4815890D01*
X8396325Y4815890D01*
G37*
G36*
X8796324Y4776317D02*
G01*
X8840876Y4776317D01*
X8840876Y4789424D01*
X8839911Y4796536D01*
X8838285Y4801209D01*
X8835186Y4806086D01*
X8831072Y4810201D01*
X8826195Y4813300D01*
X8820708Y4815179D01*
X8814409Y4815890D01*
X8796324Y4815890D01*
G37*
G36*
X10961065Y4601362D02*
G01*
X11025632Y4601362D01*
X11025632Y4665878D01*
X10987532Y4665878D01*
X10981232Y4665167D01*
X10975746Y4663287D01*
X10970869Y4660188D01*
X10966754Y4656124D01*
X10963706Y4651197D01*
X10961776Y4645761D01*
X10961065Y4639411D01*
G37*

%LPD*%
D10*
X6288493Y4246003D02*
G01*
X6288493Y4119003D01*
X5020002Y5249989D02*
G01*
X9119994Y5249989D01*
X9234992Y5134990D01*
X1014999Y3822992D02*
G01*
X1026998Y3822992D01*
X1149997Y3699992D01*
X3954002Y3699992D01*
X4119001Y3864990D01*
X3954002Y3699992D02*
G01*
X8053994Y3699992D01*
X8218992Y3864990D01*
X1776999Y4076992D02*
G01*
X1776999Y4072989D01*
X1899996Y3949992D01*
X1899996Y3949992D02*
G01*
X2499995Y3949992D01*
X4799990Y4199991D02*
G01*
X4799990Y3946006D01*
X4881003Y3864990D01*
X1268984Y4323079D02*
G01*
X1395984Y4450079D01*
X1599945Y4450079D01*
X1649984Y4500118D01*
X1649984Y4599939D01*
X1649984Y4599939D02*
G01*
X1649984Y4750054D01*
X1899920Y4999989D01*
X3074161Y4999989D01*
X3087115Y4987036D01*
X1523001Y4576991D02*
G01*
X1523001Y4722995D01*
X2049995Y5249989D01*
X5020002Y5249989D01*
X1523001Y4322991D02*
G01*
X1572996Y4322991D01*
X1699996Y4449991D01*
X2499995Y4449991D01*
X1014999Y4076992D02*
G01*
X1137998Y4199991D01*
X2599994Y4199991D01*
X2599994Y4199991D02*
G01*
X2849994Y4199991D01*
X3199993Y3849992D01*
X3850002Y3849992D01*
X3865001Y3864990D01*
X3865118Y3865118D02*
G01*
X4100068Y4100068D01*
X7949984Y4100068D02*
G01*
X7949984Y3879999D01*
X7964992Y3864990D01*
X5007820Y5249989D02*
G01*
X5020002Y5249989D01*
X5135001Y5134990D01*
X8134987Y4844991D02*
G01*
X8134987Y4964996D01*
X7964992Y5134990D01*
X8534986Y4844991D02*
G01*
X8534986Y4942984D01*
X8726992Y5134990D01*
X8934985Y4844991D02*
G01*
X8934985Y5088983D01*
X8980992Y5134990D01*
X9214977Y4104990D02*
G01*
X9214977Y3885006D01*
X9234992Y3864990D01*
X3865001Y5134990D02*
G01*
X4084995Y4914996D01*
X4084995Y4844991D01*
X4484994Y4844991D02*
G01*
X4484994Y4992984D01*
X4627001Y5134990D01*
X4884994Y4844991D02*
G01*
X4884994Y5130998D01*
X4881001Y5134990D01*
X5454980Y3885006D02*
G01*
X5155018Y3885006D01*
X5135003Y3864990D01*
X6999986Y4899990D02*
G01*
X6980999Y4881003D01*
X6811479Y4881003D01*
X6288493Y4881003D02*
G01*
X6081001Y4881003D01*
X5899988Y4699990D01*
X2285001Y4322991D02*
G01*
X4799990Y4322991D01*
X6649986Y4749990D02*
G01*
X6653999Y4754003D01*
X6811479Y4754003D01*
X2284984Y4577079D02*
G01*
X2673095Y4577079D01*
X2849879Y4400042D01*
X4949952Y4400042D01*
X5103875Y4246118D01*
X6288531Y4246118D01*
X6621503Y4171508D02*
G01*
X6621503Y3871508D01*
X6499986Y3749992D01*
X6175301Y3749992D01*
X6811479Y4246003D02*
G01*
X6695998Y4246003D01*
X6621503Y4171508D01*
X5644979Y3884996D02*
G01*
X6234991Y3884996D01*
X6399987Y4049991D01*
X6399987Y4699990D01*
X6345974Y4754003D01*
X6288493Y4754003D01*
X6288493Y4627003D02*
G01*
X4912989Y4627003D01*
X4884994Y4654999D01*
X6288531Y4373118D02*
G01*
X6076950Y4373118D01*
X5999988Y4450079D01*
X4290059Y4450079D01*
X4085081Y4655057D01*
X6288531Y4500118D02*
G01*
X6238493Y4549902D01*
X4590034Y4549902D01*
X4484877Y4655057D01*
X6811479Y4627003D02*
G01*
X6839475Y4654999D01*
X8134987Y4654999D01*
X6811479Y4500003D02*
G01*
X8379990Y4500003D01*
X8534986Y4654999D01*
X6811479Y4373003D02*
G01*
X8652990Y4373003D01*
X8934985Y4654999D01*
X6811479Y4246003D02*
G01*
X6815467Y4249991D01*
X8749982Y4249991D01*
X8794973Y4294982D01*
X9214977Y4294982D01*
X4249927Y3800094D02*
G01*
X4300042Y3749979D01*
X4319521Y3749979D01*
X6175301Y3749039D02*
G01*
X6175288Y3749979D01*
X4299991Y3749992D01*
G36*
X4034990Y4804991D02*
G01*
X4134990Y4804991D01*
X4134990Y4884991D01*
X4034990Y4884991D01*
G37*
G36*
X4264992Y4709995D02*
G01*
X4364992Y4709995D01*
X4364992Y4789995D01*
X4264992Y4789995D01*
G37*
G36*
X4034993Y4614989D02*
G01*
X4134993Y4614989D01*
X4134993Y4694989D01*
X4034993Y4694989D01*
G37*
G36*
X4434989Y4804991D02*
G01*
X4534989Y4804991D01*
X4534989Y4884991D01*
X4434989Y4884991D01*
G37*
G36*
X4664991Y4709995D02*
G01*
X4764991Y4709995D01*
X4764991Y4789995D01*
X4664991Y4789995D01*
G37*
G36*
X4434992Y4614989D02*
G01*
X4534992Y4614989D01*
X4534992Y4694989D01*
X4434992Y4694989D01*
G37*
G36*
X5494987Y3834991D02*
G01*
X5494987Y3934990D01*
X5414987Y3934990D01*
X5414987Y3834991D01*
G37*
G36*
X5589983Y4064993D02*
G01*
X5589983Y4164992D01*
X5509983Y4164992D01*
X5509983Y4064993D01*
G37*
G36*
X5684989Y3834993D02*
G01*
X5684989Y3934993D01*
X5604990Y3934993D01*
X5604990Y3834993D01*
G37*
G36*
X4834989Y4804991D02*
G01*
X4934988Y4804991D01*
X4934988Y4884991D01*
X4834989Y4884991D01*
G37*
G36*
X5064991Y4709995D02*
G01*
X5164990Y4709995D01*
X5164990Y4789995D01*
X5064991Y4789995D01*
G37*
G36*
X4834991Y4614989D02*
G01*
X4934991Y4614989D01*
X4934991Y4694989D01*
X4834991Y4694989D01*
G37*
G36*
X8084982Y4804991D02*
G01*
X8184982Y4804991D01*
X8184982Y4884991D01*
X8084982Y4884991D01*
G37*
G36*
X8314984Y4709995D02*
G01*
X8414984Y4709995D01*
X8414984Y4789995D01*
X8314984Y4789995D01*
G37*
G36*
X8084985Y4614989D02*
G01*
X8184984Y4614989D01*
X8184984Y4694989D01*
X8084985Y4694989D01*
G37*
G36*
X8484981Y4804991D02*
G01*
X8584981Y4804991D01*
X8584981Y4884991D01*
X8484981Y4884991D01*
G37*
G36*
X8714983Y4709995D02*
G01*
X8814983Y4709995D01*
X8814983Y4789995D01*
X8714983Y4789995D01*
G37*
G36*
X8484984Y4614989D02*
G01*
X8584984Y4614989D01*
X8584984Y4694989D01*
X8484984Y4694989D01*
G37*
G36*
X9264982Y4144990D02*
G01*
X9164982Y4144990D01*
X9164982Y4064990D01*
X9264982Y4064990D01*
G37*
G36*
X9034980Y4239986D02*
G01*
X8934980Y4239986D01*
X8934980Y4159986D01*
X9034980Y4159986D01*
G37*
G36*
X9264980Y4334992D02*
G01*
X9164980Y4334992D01*
X9164980Y4254992D01*
X9264980Y4254992D01*
G37*
G36*
X8884980Y4804991D02*
G01*
X8984980Y4804991D01*
X8984980Y4884991D01*
X8884980Y4884991D01*
G37*
G36*
X9114983Y4709995D02*
G01*
X9214982Y4709995D01*
X9214982Y4789995D01*
X9114983Y4789995D01*
G37*
G36*
X8884983Y4614989D02*
G01*
X8984983Y4614989D01*
X8984983Y4694989D01*
X8884983Y4694989D01*
G37*
G36*
X6359994Y4090990D02*
G01*
X6359994Y4146991D01*
X6216992Y4146991D01*
X6216992Y4090990D01*
G37*
G36*
X6359994Y4217990D02*
G01*
X6359994Y4273991D01*
X6216992Y4273991D01*
X6216992Y4217990D01*
G37*
G36*
X6359994Y4344990D02*
G01*
X6359994Y4400991D01*
X6216992Y4400991D01*
X6216992Y4344990D01*
G37*
G36*
X6359994Y4471990D02*
G01*
X6359994Y4527991D01*
X6216992Y4527991D01*
X6216992Y4471990D01*
G37*
G36*
X6359994Y4598990D02*
G01*
X6359994Y4654991D01*
X6216992Y4654991D01*
X6216992Y4598990D01*
G37*
G36*
X6359994Y4725990D02*
G01*
X6359994Y4781991D01*
X6216992Y4781991D01*
X6216992Y4725990D01*
G37*
G36*
X6359994Y4852990D02*
G01*
X6359994Y4908991D01*
X6216992Y4908991D01*
X6216992Y4852990D01*
G37*
G36*
X6882980Y4852990D02*
G01*
X6882980Y4908991D01*
X6739978Y4908991D01*
X6739978Y4852990D01*
G37*
G36*
X6882980Y4725990D02*
G01*
X6882980Y4781991D01*
X6739978Y4781991D01*
X6739978Y4725990D01*
G37*
G36*
X6882980Y4598990D02*
G01*
X6882980Y4654991D01*
X6739978Y4654991D01*
X6739978Y4598990D01*
G37*
G36*
X6882980Y4471990D02*
G01*
X6882980Y4527991D01*
X6739978Y4527991D01*
X6739978Y4471990D01*
G37*
G36*
X6882980Y4344990D02*
G01*
X6882980Y4400991D01*
X6739978Y4400991D01*
X6739978Y4344990D01*
G37*
G36*
X6882980Y4217990D02*
G01*
X6882980Y4273991D01*
X6739978Y4273991D01*
X6739978Y4217990D01*
G37*
G36*
X6882980Y4090990D02*
G01*
X6882980Y4146991D01*
X6739978Y4146991D01*
X6739978Y4090990D01*
G37*
G36*
X11166977Y4639990D02*
G01*
X10986978Y4639990D01*
X10986978Y4459991D01*
X11166977Y4459991D01*
G37*
D11*
G01*
X10822965Y4549978D03*
G36*
X10732978Y3709992D02*
G01*
X10912977Y3709992D01*
X10912977Y3889992D01*
X10732978Y3889992D01*
G37*
G01*
X11076990Y3799992D03*
G36*
X2369992Y4408002D02*
G01*
X2199993Y4408002D01*
X2199993Y4238002D01*
X2369992Y4238002D01*
G37*
D12*
G01*
X2285009Y4576978D03*
G01*
X2031009Y4322978D03*
G01*
X2031009Y4576978D03*
G01*
X1777009Y4322978D03*
G01*
X1777009Y4576978D03*
G01*
X1523009Y4322978D03*
G01*
X1523009Y4576978D03*
G01*
X1269009Y4322978D03*
G01*
X1269009Y4576978D03*
G01*
X1015009Y4322978D03*
G01*
X1015009Y4576978D03*
G36*
X925007Y3987002D02*
G01*
X1105006Y3987002D01*
X1105006Y4167002D01*
X925007Y4167002D01*
G37*
D11*
G01*
X1015009Y3822979D03*
G01*
X1269009Y4076979D03*
G01*
X1269009Y3822979D03*
G01*
X1523009Y4076979D03*
G01*
X1523009Y3822979D03*
G01*
X1777009Y4076979D03*
G01*
X1777009Y3822979D03*
G01*
X2031009Y4076979D03*
G01*
X2031009Y3822979D03*
G01*
X2285009Y4076979D03*
G01*
X2285009Y3822979D03*
D13*
G01*
X3864990Y3864990D03*
G01*
X4118990Y3864990D03*
G01*
X4372990Y3864990D03*
G01*
X4626990Y3864990D03*
G01*
X4880990Y3864990D03*
G01*
X5134990Y3864990D03*
G01*
X5134990Y5134990D03*
G01*
X4880990Y5134990D03*
G01*
X4626990Y5134990D03*
G01*
X4372990Y5134990D03*
G01*
X4118990Y5134990D03*
G01*
X3864990Y5134990D03*
G01*
X7964982Y3864990D03*
G01*
X8218982Y3864990D03*
G01*
X8472982Y3864990D03*
G01*
X8726982Y3864990D03*
G01*
X8980982Y3864990D03*
G01*
X9234982Y3864990D03*
G01*
X9234982Y5134990D03*
G01*
X8980982Y5134990D03*
G01*
X8726982Y5134990D03*
G01*
X8472982Y5134990D03*
G01*
X8218982Y5134990D03*
G01*
X7964982Y5134990D03*
D14*
G01*
X2499995Y3949979D03*
G01*
X2499995Y4449978D03*
G01*
X4799990Y4199991D03*
G01*
X3087166Y4987086D03*
G01*
X4100068Y4100068D03*
G01*
X7949996Y4100068D03*
G01*
X6999986Y4899990D03*
G01*
X5899988Y4699990D03*
G01*
X4799990Y4322978D03*
G01*
X6649999Y4749977D03*
G01*
X4249927Y3800094D03*
M02*
