G04 Layer: BottomSilkscreenLayer*
G04 EasyEDA v6.5.9, 2023-12-18 21:36:12*
G04 Gerber Generator version 0.2*
G04 Scale: 100 percent, Rotated: No, Reflected: No *
G04 Dimensions in millimeters *
G04 leading zeros omitted , absolute positions ,4 integer and 5 decimal *
%FSLAX45Y45*%
%MOMM*%

%ADD10C,0.1524*%
%ADD11C,0.1500*%
%ADD12C,0.2540*%
%ADD13C,0.2032*%
%ADD14C,0.1375*%
%ADD15C,0.4000*%
%ADD16C,0.0158*%

%LPD*%
G36*
X10454284Y5184140D02*
G01*
X10449610Y5184089D01*
X10446004Y5183479D01*
X10443108Y5181904D01*
X10440670Y5178806D01*
X10438384Y5173726D01*
X10436047Y5166156D01*
X10429849Y5141518D01*
X10421366Y5106365D01*
X10438638Y5106212D01*
X10442143Y5105552D01*
X10444053Y5104333D01*
X10485272Y5104333D01*
X10488269Y5105450D01*
X10494213Y5106162D01*
X10502849Y5106365D01*
X10513517Y5106162D01*
X10519562Y5105298D01*
X10521899Y5103469D01*
X10521543Y5100421D01*
X10519714Y5097627D01*
X10516616Y5096205D01*
X10511637Y5096002D01*
X10504068Y5096916D01*
X10497870Y5098135D01*
X10492282Y5099659D01*
X10487914Y5101285D01*
X10485323Y5102860D01*
X10485272Y5104333D01*
X10444053Y5104333D01*
X10444530Y5104028D01*
X10445750Y5101285D01*
X10445953Y5096967D01*
X10445191Y5090820D01*
X10410809Y4939690D01*
X10527741Y4939690D01*
X10527995Y4949850D01*
X10529112Y4955387D01*
X10531856Y4957724D01*
X10536783Y4958232D01*
X10541609Y4957673D01*
X10544708Y4955336D01*
X10546689Y4950256D01*
X10549839Y4934204D01*
X10551922Y4928260D01*
X10554512Y4923790D01*
X10561929Y4916576D01*
X10566755Y4908651D01*
X10570616Y4899914D01*
X10572191Y4892852D01*
X10570870Y4892344D01*
X10567314Y4891938D01*
X10555528Y4891582D01*
X10538866Y4891582D01*
X10538866Y4906365D01*
X10538561Y4913223D01*
X10537596Y4917795D01*
X10535869Y4920386D01*
X10530687Y4922113D01*
X10528960Y4925212D01*
X10528046Y4930902D01*
X10527741Y4939690D01*
X10410809Y4939690D01*
X10409986Y4936134D01*
X10407751Y4928514D01*
X10405160Y4924958D01*
X10401198Y4922926D01*
X10389870Y4920996D01*
X10386161Y4919472D01*
X10383977Y4917338D01*
X10383266Y4914493D01*
X10382554Y4907635D01*
X10380980Y4899914D01*
X10378744Y4891582D01*
X10516666Y4891582D01*
X10516666Y4847132D01*
X9509201Y4847132D01*
X9509201Y4891582D01*
X9405518Y4891582D01*
X9405518Y4965649D01*
X9375851Y4965649D01*
X9375851Y4843424D01*
X9912908Y4843424D01*
X9912908Y4784140D01*
X10642549Y4784140D01*
X10642549Y4891582D01*
X10602468Y4891582D01*
X10600029Y4906162D01*
X10598353Y4913985D01*
X10596016Y4918557D01*
X10592206Y4920843D01*
X10579404Y4923028D01*
X10575391Y4925923D01*
X10572648Y4932172D01*
X10546232Y5049520D01*
X10536631Y5094630D01*
X10535158Y5102961D01*
X10536224Y5104282D01*
X10539069Y5105400D01*
X10543336Y5106111D01*
X10554411Y5106670D01*
X10558272Y5107482D01*
X10560100Y5108956D01*
X10560050Y5111089D01*
X10556341Y5124450D01*
X10545064Y5169357D01*
X10543184Y5175402D01*
X10541355Y5179568D01*
X10539476Y5182108D01*
X10537240Y5183479D01*
X10534497Y5184038D01*
X10531043Y5184140D01*
X10524032Y5182870D01*
X10520629Y5178755D01*
X10520629Y5171389D01*
X10525658Y5155082D01*
X10525404Y5152237D01*
X10522508Y5151069D01*
X10516565Y5150815D01*
X10510367Y5151170D01*
X10507065Y5153152D01*
X10505744Y5158130D01*
X10505338Y5177078D01*
X10503865Y5182057D01*
X10500055Y5183886D01*
X10492587Y5184140D01*
X10485120Y5183886D01*
X10481259Y5182057D01*
X10479836Y5177078D01*
X10479379Y5158079D01*
X10478058Y5153101D01*
X10474655Y5151170D01*
X10468254Y5150815D01*
X10462717Y5151120D01*
X10459516Y5152136D01*
X10458348Y5154117D01*
X10458805Y5157317D01*
X10462971Y5172303D01*
X10463885Y5177078D01*
X10463885Y5180330D01*
X10462971Y5182412D01*
X10461091Y5183581D01*
X10458246Y5184038D01*
G37*
G36*
X10425176Y5174132D02*
G01*
X10367721Y5171694D01*
X10348417Y5170220D01*
X10341254Y5169154D01*
X10335260Y5167884D01*
X10329976Y5166207D01*
X10325049Y5164124D01*
X10320070Y5161534D01*
X10315244Y5158638D01*
X10310723Y5155387D01*
X10306558Y5151780D01*
X10302646Y5147919D01*
X10299090Y5143754D01*
X10295788Y5139385D01*
X10292842Y5134762D01*
X10290200Y5129936D01*
X10287863Y5124958D01*
X10285831Y5119776D01*
X10284104Y5114493D01*
X10282682Y5109108D01*
X10281564Y5103672D01*
X10280294Y5092598D01*
X10280243Y5081473D01*
X10280700Y5075936D01*
X10281462Y5070449D01*
X10282529Y5065115D01*
X10283901Y5059832D01*
X10285628Y5054701D01*
X10287609Y5049672D01*
X10289946Y5044897D01*
X10292537Y5040274D01*
X10295483Y5035905D01*
X10298734Y5031740D01*
X10302290Y5027879D01*
X10306151Y5024323D01*
X10310317Y5021072D01*
X10314787Y5018176D01*
X10328046Y5011369D01*
X10332110Y5008168D01*
X10332516Y5005019D01*
X10324896Y4992217D01*
X10300563Y4949190D01*
X10285780Y4924348D01*
X10268610Y4897120D01*
X10315143Y4895392D01*
X10319105Y4895443D01*
X10322610Y4895850D01*
X10325709Y4896662D01*
X10328554Y4897932D01*
X10331246Y4899863D01*
X10333888Y4902454D01*
X10336631Y4905806D01*
X10342829Y4915357D01*
X10374985Y4972862D01*
X10384434Y4989271D01*
X10387939Y4994960D01*
X10390835Y4999228D01*
X10393222Y5002276D01*
X10395254Y5004257D01*
X10397134Y5005527D01*
X10399014Y5006136D01*
X10403179Y5006390D01*
X10407802Y5007203D01*
X10411307Y5010353D01*
X10414406Y5017109D01*
X10417911Y5028539D01*
X10422229Y5044744D01*
X10424058Y5052618D01*
X10421264Y5053380D01*
X10413796Y5053990D01*
X10402671Y5054396D01*
X10370159Y5054803D01*
X10363504Y5055209D01*
X10358221Y5055920D01*
X10354056Y5057038D01*
X10350550Y5058511D01*
X10347350Y5060492D01*
X10344150Y5063083D01*
X10339679Y5067960D01*
X10336377Y5073700D01*
X10334244Y5080000D01*
X10333380Y5086654D01*
X10333736Y5093411D01*
X10335310Y5099964D01*
X10338155Y5106111D01*
X10342219Y5111546D01*
X10345013Y5114340D01*
X10347807Y5116576D01*
X10350906Y5118252D01*
X10354564Y5119522D01*
X10359136Y5120436D01*
X10364825Y5121097D01*
X10381030Y5121960D01*
X10411104Y5123027D01*
X10421213Y5160467D01*
G37*
G36*
X9501784Y5169611D02*
G01*
X9501784Y4895240D01*
X9546234Y4895240D01*
X9546844Y4993335D01*
X9547656Y5023154D01*
X9548876Y5049469D01*
X9550247Y5069382D01*
X9550958Y5076139D01*
X9551619Y5080203D01*
X9551974Y5081168D01*
X9552279Y5081320D01*
X9552889Y5079085D01*
X9553143Y5076647D01*
X9554057Y5072278D01*
X9556089Y5064506D01*
X9589770Y4955235D01*
X9596882Y4931206D01*
X9598660Y4927803D01*
X9602520Y4925974D01*
X9609734Y4925314D01*
X9621570Y4925669D01*
X9644380Y4926736D01*
X9666224Y4993233D01*
X9674961Y5020513D01*
X9686493Y5058359D01*
X9692132Y5076088D01*
X9693757Y5080457D01*
X9694011Y5080508D01*
X9694519Y5077815D01*
X9695078Y5071516D01*
X9696043Y5049926D01*
X9696856Y5018684D01*
X9698228Y4895240D01*
X9742525Y4895240D01*
X9742525Y5169611D01*
X9674606Y5167477D01*
X9655302Y5101132D01*
X9636506Y5034991D01*
X9631578Y5018278D01*
X9627717Y5005984D01*
X9624771Y4997653D01*
X9622586Y4992878D01*
X9621723Y4991658D01*
X9620961Y4991201D01*
X9620351Y4991354D01*
X9619792Y4992116D01*
X9591294Y5093004D01*
X9569856Y5167477D01*
G37*
G36*
X10083292Y5169357D02*
G01*
X10083292Y4895240D01*
X10138867Y4895240D01*
X10138867Y5169357D01*
G37*
G36*
X9887000Y5169357D02*
G01*
X9887000Y4895240D01*
X9942576Y4895240D01*
X9942576Y5169357D01*
G37*
G36*
X10183317Y4947107D02*
G01*
X10183317Y4895240D01*
X10235133Y4895240D01*
X10235133Y4947107D01*
G37*
G36*
X9987026Y4947107D02*
G01*
X9987026Y4895240D01*
X10038842Y4895240D01*
X10038842Y4947107D01*
G37*
G36*
X9790684Y4947107D02*
G01*
X9790684Y4895240D01*
X9842550Y4895240D01*
X9842550Y4947107D01*
G37*
G36*
X9478568Y4943398D02*
G01*
X9476282Y4941519D01*
X9463024Y4928666D01*
X9429800Y4895240D01*
X9479584Y4895240D01*
X9479483Y4928666D01*
X9479280Y4936337D01*
X9478924Y4941519D01*
G37*
G36*
X9861143Y4881270D02*
G01*
X9859568Y4880508D01*
X9858146Y4878425D01*
X9857130Y4875174D01*
X9856571Y4870856D01*
X9856724Y4865624D01*
X9857486Y4859883D01*
X9858552Y4855159D01*
X9859822Y4852009D01*
X9861042Y4850790D01*
X9863480Y4853178D01*
X9865309Y4859070D01*
X9866122Y4866640D01*
X9865563Y4873955D01*
X9864344Y4878120D01*
X9862820Y4880508D01*
G37*
G36*
X10490606Y4880457D02*
G01*
X10484408Y4879136D01*
X10480090Y4875834D01*
X10478465Y4871415D01*
X10480141Y4866843D01*
X10481767Y4864201D01*
X10482173Y4861560D01*
X10481310Y4858715D01*
X10476585Y4852111D01*
X10475925Y4850841D01*
X10477195Y4851501D01*
X10480497Y4854041D01*
X10483189Y4856784D01*
X10484815Y4859985D01*
X10485323Y4863693D01*
X10484104Y4871466D01*
X10484256Y4874260D01*
X10485018Y4876088D01*
X10486390Y4876749D01*
X10488015Y4875631D01*
X10489488Y4872685D01*
X10490708Y4868265D01*
X10491470Y4862880D01*
X10492689Y4848961D01*
X10494568Y4864709D01*
X10495280Y4872482D01*
X10494924Y4877308D01*
X10493451Y4879746D01*
G37*
G36*
X10448137Y4880457D02*
G01*
X10446613Y4879390D01*
X10445699Y4876342D01*
X10445343Y4871669D01*
X10445648Y4865624D01*
X10446969Y4855159D01*
X10447578Y4852009D01*
X10448137Y4850790D01*
X10448645Y4852009D01*
X10449306Y4855159D01*
X10450626Y4865624D01*
X10450880Y4871669D01*
X10450525Y4876342D01*
X10449610Y4879390D01*
G37*
G36*
X10312095Y4880457D02*
G01*
X10310977Y4879289D01*
X10310063Y4876088D01*
X10309453Y4871364D01*
X10309250Y4865624D01*
X10309656Y4855159D01*
X10310114Y4852009D01*
X10310672Y4850790D01*
X10311384Y4852009D01*
X10312146Y4855159D01*
X10313568Y4865624D01*
X10313873Y4871364D01*
X10313720Y4876088D01*
X10313111Y4879289D01*
G37*
G36*
X10274858Y4880457D02*
G01*
X10272826Y4879594D01*
X10271607Y4876901D01*
X10271201Y4872278D01*
X10271556Y4865624D01*
X10272369Y4859883D01*
X10273538Y4855159D01*
X10274909Y4852009D01*
X10276281Y4850790D01*
X10277551Y4852009D01*
X10278618Y4855159D01*
X10279329Y4859883D01*
X10279583Y4865624D01*
X10279278Y4871974D01*
X10278364Y4876596D01*
X10276890Y4879492D01*
G37*
G36*
X10190632Y4880457D02*
G01*
X10184384Y4879949D01*
X10178897Y4878628D01*
X10174224Y4876495D01*
X10170617Y4873752D01*
X10168077Y4870450D01*
X10166756Y4866741D01*
X10166807Y4862728D01*
X10168331Y4858512D01*
X10170058Y4855514D01*
X10171785Y4853076D01*
X10173258Y4851400D01*
X10174325Y4850790D01*
X10174732Y4851349D01*
X10174579Y4852771D01*
X10173868Y4854854D01*
X10172649Y4857394D01*
X10171125Y4863744D01*
X10172598Y4870043D01*
X10176306Y4874818D01*
X10181640Y4876749D01*
X10184028Y4875885D01*
X10185857Y4873294D01*
X10187025Y4868976D01*
X10187635Y4862880D01*
X10188244Y4848961D01*
X10189718Y4862880D01*
X10190581Y4868672D01*
X10191699Y4872837D01*
X10193020Y4875428D01*
X10194391Y4876292D01*
X10195763Y4875580D01*
X10197033Y4873142D01*
X10198049Y4869129D01*
X10198811Y4863388D01*
X10199979Y4850028D01*
X10213594Y4865217D01*
X10218623Y4871161D01*
X10222280Y4875987D01*
X10224211Y4879238D01*
X10224058Y4880457D01*
X10222026Y4879492D01*
X10218928Y4876901D01*
X10215118Y4873091D01*
X10211054Y4868418D01*
X10201198Y4856378D01*
X10202722Y4868418D01*
X10203332Y4875225D01*
X10202164Y4878781D01*
X10198303Y4880203D01*
G37*
G36*
X10106101Y4880457D02*
G01*
X10099294Y4879695D01*
X10093045Y4877714D01*
X10087610Y4874768D01*
X10083342Y4871110D01*
X10080447Y4867198D01*
X10079278Y4863185D01*
X10080142Y4859528D01*
X10083241Y4856378D01*
X10084562Y4855921D01*
X10085222Y4856429D01*
X10085324Y4857800D01*
X10084714Y4859934D01*
X10084460Y4865420D01*
X10086949Y4870856D01*
X10091369Y4875072D01*
X10096703Y4876749D01*
X10098938Y4875834D01*
X10100665Y4873193D01*
X10101834Y4868824D01*
X10102443Y4862880D01*
X10103053Y4848961D01*
X10104526Y4862880D01*
X10105339Y4868265D01*
X10106558Y4872685D01*
X10107980Y4875631D01*
X10109454Y4876749D01*
X10110825Y4875631D01*
X10111943Y4872685D01*
X10112756Y4868265D01*
X10113060Y4862880D01*
X10113213Y4848961D01*
X10125506Y4862880D01*
X10130586Y4868265D01*
X10135362Y4872685D01*
X10139273Y4875631D01*
X10141813Y4876749D01*
X10143490Y4875631D01*
X10145064Y4872685D01*
X10146385Y4868265D01*
X10147249Y4862880D01*
X10148722Y4848961D01*
X10149332Y4864709D01*
X10149382Y4872736D01*
X10148570Y4877562D01*
X10146487Y4879848D01*
X10142880Y4880457D01*
X10139324Y4879492D01*
X10134904Y4876901D01*
X10130180Y4873091D01*
X10125659Y4868418D01*
X10115550Y4856378D01*
X10117277Y4868418D01*
X10118039Y4875174D01*
X10117023Y4878781D01*
X10113365Y4880203D01*
G37*
G36*
X10072827Y4880457D02*
G01*
X10071760Y4879594D01*
X10071150Y4877206D01*
X10070998Y4873650D01*
X10071404Y4869332D01*
X10072979Y4861509D01*
X10073792Y4859121D01*
X10074452Y4858207D01*
X10075011Y4859121D01*
X10075468Y4861509D01*
X10075875Y4869332D01*
X10075672Y4873650D01*
X10075011Y4877206D01*
X10073995Y4879594D01*
G37*
G36*
X9990328Y4880457D02*
G01*
X9984486Y4878882D01*
X9979863Y4875225D01*
X9977729Y4870958D01*
X9979406Y4867605D01*
X9980930Y4866030D01*
X9981387Y4863795D01*
X9980777Y4860848D01*
X9977018Y4852720D01*
X9976561Y4851044D01*
X9978034Y4851958D01*
X9981641Y4855260D01*
X9984587Y4858562D01*
X9985959Y4861306D01*
X9985705Y4863947D01*
X9982454Y4868926D01*
X9981641Y4871059D01*
X9981488Y4872939D01*
X9982098Y4874310D01*
X9985654Y4876647D01*
X9988346Y4875530D01*
X9990277Y4871008D01*
X9991445Y4862880D01*
X9992664Y4848961D01*
X9994544Y4864709D01*
X9995255Y4872634D01*
X9994900Y4877409D01*
X9993325Y4879797D01*
G37*
G36*
X9962946Y4880457D02*
G01*
X9961422Y4879390D01*
X9960508Y4876342D01*
X9960152Y4871669D01*
X9960457Y4865624D01*
X9961727Y4855159D01*
X9962388Y4852009D01*
X9962946Y4850790D01*
X9963454Y4852009D01*
X9964115Y4855159D01*
X9965436Y4865624D01*
X9965690Y4871669D01*
X9965334Y4876342D01*
X9964420Y4879390D01*
G37*
G36*
X9919309Y4880457D02*
G01*
X9917277Y4879594D01*
X9916058Y4876901D01*
X9915652Y4872278D01*
X9916007Y4865624D01*
X9916820Y4859883D01*
X9917988Y4855159D01*
X9919309Y4852009D01*
X9920732Y4850790D01*
X9922002Y4852009D01*
X9923068Y4855159D01*
X9923780Y4859883D01*
X9924034Y4865624D01*
X9923729Y4871974D01*
X9922814Y4876596D01*
X9921341Y4879492D01*
G37*
G36*
X9887204Y4880457D02*
G01*
X9885527Y4879594D01*
X9883444Y4877257D01*
X9881260Y4873802D01*
X9877044Y4865522D01*
X9874859Y4862474D01*
X9872929Y4860696D01*
X9871456Y4860544D01*
X9870490Y4860747D01*
X9870084Y4860036D01*
X9870186Y4858562D01*
X9871760Y4854194D01*
X9872624Y4852568D01*
X9873386Y4851603D01*
X9873843Y4851603D01*
X9882479Y4866538D01*
X9885324Y4871974D01*
X9887153Y4876342D01*
X9887813Y4879340D01*
G37*
G36*
X9821672Y4880457D02*
G01*
X9819640Y4879340D01*
X9816338Y4876393D01*
X9808057Y4867351D01*
X9804095Y4862423D01*
X9800894Y4858004D01*
X9798913Y4854702D01*
X9798659Y4853076D01*
X9800132Y4853787D01*
X9803231Y4856530D01*
X9807498Y4860848D01*
X9812426Y4866284D01*
X9816998Y4871770D01*
X9820300Y4876292D01*
X9821926Y4879340D01*
G37*
G36*
X9648088Y4880457D02*
G01*
X9648088Y4865979D01*
X9648342Y4860493D01*
X9648901Y4856276D01*
X9649815Y4853736D01*
X9650882Y4853228D01*
X9651949Y4854752D01*
X9652863Y4857648D01*
X9653422Y4861509D01*
X9654032Y4871110D01*
X9655200Y4874463D01*
X9657486Y4876241D01*
X9661093Y4876749D01*
X9664750Y4876139D01*
X9667138Y4874006D01*
X9668459Y4869738D01*
X9669068Y4862880D01*
X9669678Y4848961D01*
X9671202Y4861915D01*
X9672167Y4867148D01*
X9673590Y4871821D01*
X9675317Y4875479D01*
X9677095Y4877562D01*
X9677450Y4878628D01*
X9675266Y4879543D01*
X9670897Y4880152D01*
X9664750Y4880406D01*
G37*
G36*
X9625990Y4880457D02*
G01*
X9619538Y4880152D01*
X9616338Y4878425D01*
X9615424Y4874006D01*
X9615982Y4865624D01*
X9616846Y4859578D01*
X9617964Y4855159D01*
X9619284Y4852314D01*
X9620656Y4851196D01*
X9621926Y4851704D01*
X9622993Y4853990D01*
X9623755Y4858004D01*
X9624314Y4869180D01*
X9625076Y4873091D01*
X9626193Y4875530D01*
X9627514Y4876444D01*
X9628886Y4875834D01*
X9630206Y4873650D01*
X9631375Y4869992D01*
X9632188Y4864709D01*
X9633458Y4852670D01*
X9635388Y4866538D01*
X9636252Y4874412D01*
X9635540Y4878527D01*
X9632340Y4880152D01*
G37*
G36*
X9588652Y4880457D02*
G01*
X9585756Y4880051D01*
X9582708Y4878933D01*
X9579508Y4877003D01*
X9576155Y4874361D01*
X9572650Y4870958D01*
X9568992Y4866843D01*
X9565233Y4861966D01*
X9561372Y4856378D01*
X9560204Y4854295D01*
X9560661Y4854092D01*
X9562642Y4855718D01*
X9575393Y4869180D01*
X9577730Y4854702D01*
X9578289Y4853787D01*
X9578695Y4856480D01*
X9579610Y4868976D01*
X9580778Y4873294D01*
X9582556Y4875885D01*
X9584893Y4876749D01*
X9587280Y4875834D01*
X9589211Y4873193D01*
X9590582Y4868824D01*
X9591446Y4862880D01*
X9592665Y4848961D01*
X9595358Y4873142D01*
X9594850Y4877866D01*
X9592767Y4879949D01*
G37*
G36*
X9537852Y4880457D02*
G01*
X9537141Y4879898D01*
X9537801Y4878476D01*
X9539681Y4876342D01*
X9546894Y4869840D01*
X9548774Y4866589D01*
X9548418Y4862982D01*
X9546132Y4857953D01*
X9543694Y4853228D01*
X9543034Y4851196D01*
X9544304Y4851552D01*
X9547504Y4854041D01*
X9551873Y4858613D01*
X9553346Y4863033D01*
X9551873Y4867910D01*
X9547504Y4873650D01*
X9544862Y4876292D01*
X9542170Y4878476D01*
X9539732Y4879898D01*
G37*
G36*
X10400080Y4880406D02*
G01*
X10397185Y4880203D01*
X10395712Y4879594D01*
X10395610Y4878730D01*
X10396880Y4877562D01*
X10398658Y4875479D01*
X10400334Y4871821D01*
X10401706Y4867148D01*
X10402519Y4861915D01*
X10403840Y4848961D01*
X10405719Y4864709D01*
X10406481Y4873040D01*
X10406024Y4877816D01*
X10403992Y4879949D01*
G37*
G36*
X10345115Y4880406D02*
G01*
X10342473Y4880356D01*
X10339374Y4879035D01*
X10337038Y4876800D01*
X10336580Y4875479D01*
X10337038Y4874818D01*
X10338409Y4874717D01*
X10340543Y4875326D01*
X10344556Y4877308D01*
X10345826Y4878273D01*
X10346283Y4878984D01*
G37*
G36*
X10463225Y4880152D02*
G01*
X10460685Y4880102D01*
X10458907Y4879695D01*
X10458094Y4879035D01*
X10458399Y4878222D01*
X10459618Y4877511D01*
X10461396Y4877206D01*
X10463428Y4877358D01*
X10465460Y4877917D01*
X10466984Y4878730D01*
X10467086Y4879390D01*
X10465816Y4879898D01*
G37*
G36*
X10055809Y4880152D02*
G01*
X10053269Y4880102D01*
X10051491Y4879695D01*
X10050678Y4879035D01*
X10050983Y4878222D01*
X10052202Y4877511D01*
X10053980Y4877206D01*
X10056012Y4877358D01*
X10058044Y4877917D01*
X10059568Y4878730D01*
X10059670Y4879390D01*
X10058400Y4879898D01*
G37*
G36*
X9559544Y4880152D02*
G01*
X9556953Y4880102D01*
X9555175Y4879695D01*
X9554362Y4879035D01*
X9554667Y4878222D01*
X9555937Y4877511D01*
X9557664Y4877206D01*
X9559696Y4877358D01*
X9561779Y4877917D01*
X9563252Y4878730D01*
X9563354Y4879390D01*
X9562084Y4879898D01*
G37*
G36*
X9792462Y4880000D02*
G01*
X9786112Y4879949D01*
X9782911Y4878374D01*
X9782098Y4873853D01*
X9782708Y4865166D01*
X9783470Y4860137D01*
X9784537Y4856683D01*
X9785858Y4854854D01*
X9787178Y4854600D01*
X9788499Y4855870D01*
X9789566Y4858562D01*
X9790328Y4862677D01*
X9790633Y4868164D01*
X9791141Y4871466D01*
X9792563Y4874361D01*
X9794646Y4876596D01*
X9798862Y4878578D01*
X9798507Y4879238D01*
X9796322Y4879695D01*
G37*
G36*
X10366756Y4879949D02*
G01*
X10361879Y4879644D01*
X10359796Y4879187D01*
X10360406Y4878628D01*
X10363606Y4877866D01*
X10367467Y4876596D01*
X10369905Y4874310D01*
X10371124Y4870704D01*
X10371734Y4855870D01*
X10373156Y4852720D01*
X10374985Y4855921D01*
X10376509Y4865420D01*
X10377119Y4873955D01*
X10376255Y4878374D01*
X10373055Y4879949D01*
G37*
G36*
X10012934Y4879949D02*
G01*
X10008209Y4879898D01*
X10005060Y4879390D01*
X10003637Y4878628D01*
X10004298Y4877562D01*
X10006076Y4875479D01*
X10007803Y4871821D01*
X10009225Y4867148D01*
X10010190Y4861915D01*
X10011765Y4848961D01*
X10012324Y4862576D01*
X10012984Y4868824D01*
X10014305Y4873345D01*
X10016439Y4876342D01*
X10020909Y4878578D01*
X10020198Y4879187D01*
X10017455Y4879695D01*
G37*
G36*
X9758527Y4879949D02*
G01*
X9752330Y4879898D01*
X9746945Y4879289D01*
X9742932Y4878374D01*
X9740900Y4877104D01*
X9740696Y4875936D01*
X9741611Y4875276D01*
X9743541Y4875174D01*
X9750145Y4876190D01*
X9752482Y4874768D01*
X9753701Y4870653D01*
X9754260Y4863287D01*
X9754920Y4848961D01*
X9756343Y4862626D01*
X9757410Y4869281D01*
X9759188Y4873752D01*
X9761931Y4876444D01*
X9767824Y4878527D01*
X9767062Y4879136D01*
X9763912Y4879644D01*
G37*
G36*
X10030053Y4879746D02*
G01*
X10029190Y4879441D01*
X10028478Y4878171D01*
X10028224Y4876444D01*
X10028326Y4874412D01*
X10028936Y4872329D01*
X10029748Y4870856D01*
X10030409Y4870754D01*
X10030917Y4871974D01*
X10031171Y4874564D01*
X10031069Y4877155D01*
X10030714Y4878933D01*
G37*
G36*
X9838994Y4876749D02*
G01*
X9837470Y4876495D01*
X9836251Y4875733D01*
X9835438Y4874666D01*
X9834981Y4871567D01*
X9833762Y4866640D01*
X9832898Y4864100D01*
X9832289Y4861407D01*
X9832949Y4859578D01*
X9834981Y4858562D01*
X9838436Y4858207D01*
X9841484Y4858512D01*
X9843973Y4859274D01*
X9845649Y4860442D01*
X9846259Y4861814D01*
X9845802Y4863033D01*
X9844481Y4863693D01*
X9842601Y4863693D01*
X9837318Y4862220D01*
X9836150Y4862677D01*
X9836556Y4864760D01*
X9840163Y4872228D01*
X9840772Y4874717D01*
X9840366Y4876241D01*
G37*
G36*
X9703968Y4876749D02*
G01*
X9703663Y4864150D01*
X9703866Y4859375D01*
X9704476Y4855718D01*
X9705340Y4853584D01*
X9706457Y4853228D01*
X9708388Y4856937D01*
X9709150Y4863287D01*
X9708591Y4869891D01*
X9706762Y4874260D01*
G37*
G36*
X9606483Y4876749D02*
G01*
X9605924Y4876088D01*
X9605822Y4874361D01*
X9606076Y4871770D01*
X9606788Y4868621D01*
X9607296Y4865065D01*
X9607092Y4861458D01*
X9606280Y4858156D01*
X9604908Y4855616D01*
X9603435Y4853584D01*
X9602927Y4852060D01*
X9603333Y4851146D01*
X9604654Y4850790D01*
X9608108Y4852365D01*
X9610394Y4856480D01*
X9611258Y4862271D01*
X9610394Y4868976D01*
X9608413Y4874463D01*
X9607397Y4876139D01*
G37*
G36*
X10240619Y4875631D02*
G01*
X10239248Y4873040D01*
X10237063Y4867808D01*
X10235031Y4862017D01*
X10233609Y4857038D01*
X10232999Y4853330D01*
X10233304Y4851450D01*
X10234015Y4851044D01*
X10234625Y4851400D01*
X10235031Y4852365D01*
X10235133Y4853889D01*
X10235793Y4855616D01*
X10237622Y4857089D01*
X10240264Y4858156D01*
X10243464Y4858664D01*
X10247122Y4858918D01*
X10248595Y4859375D01*
X10247985Y4859934D01*
X10245344Y4860798D01*
X10242397Y4862068D01*
X10240721Y4864303D01*
X10240213Y4867656D01*
X10241127Y4875428D01*
G37*
G36*
X9942372Y4874971D02*
G01*
X9940544Y4874056D01*
X9938461Y4871059D01*
X9936124Y4865979D01*
X9934295Y4861052D01*
X9933127Y4856683D01*
X9932720Y4853381D01*
X9933127Y4851603D01*
X9933889Y4851146D01*
X9934549Y4851450D01*
X9935006Y4852365D01*
X9935159Y4853889D01*
X9935819Y4855616D01*
X9937597Y4857089D01*
X9940239Y4858156D01*
X9943490Y4858664D01*
X9947097Y4858918D01*
X9948570Y4859375D01*
X9947960Y4859934D01*
X9945319Y4860798D01*
X9941052Y4862880D01*
X9939020Y4865725D01*
X9939477Y4868265D01*
X9944100Y4869688D01*
X9944709Y4870653D01*
X9944709Y4872075D01*
X9943896Y4873853D01*
G37*
G36*
X9727488Y4874971D02*
G01*
X9725660Y4873802D01*
X9723526Y4870805D01*
X9721291Y4865979D01*
X9719513Y4861052D01*
X9718344Y4856683D01*
X9717887Y4853381D01*
X9718294Y4851603D01*
X9719056Y4851146D01*
X9719716Y4851450D01*
X9720173Y4852365D01*
X9720326Y4853889D01*
X9720986Y4855616D01*
X9722764Y4857038D01*
X9725406Y4858054D01*
X9732975Y4858715D01*
X9734600Y4859121D01*
X9733483Y4860036D01*
X9726879Y4862982D01*
X9725456Y4864354D01*
X9725507Y4865674D01*
X9728657Y4868519D01*
X9729470Y4870297D01*
X9729622Y4872228D01*
X9728962Y4874107D01*
G37*
G36*
X10386060Y4874310D02*
G01*
X10384993Y4872939D01*
X10384129Y4870500D01*
X10383520Y4867351D01*
X10383316Y4863795D01*
X10383520Y4860239D01*
X10384129Y4857038D01*
X10384993Y4854600D01*
X10386060Y4853228D01*
X10387177Y4853533D01*
X10388041Y4855616D01*
X10388650Y4859172D01*
X10388854Y4863795D01*
X10388650Y4868418D01*
X10388041Y4871923D01*
X10387177Y4874006D01*
G37*
G36*
X10416946Y4874107D02*
G01*
X10415727Y4873599D01*
X10414508Y4871567D01*
X10413695Y4868621D01*
X10413441Y4865116D01*
X10413695Y4861407D01*
X10414457Y4857394D01*
X10415168Y4856480D01*
X10415981Y4858918D01*
X10417098Y4864811D01*
X10417657Y4869586D01*
X10417606Y4872736D01*
G37*
G36*
X10045750Y4871770D02*
G01*
X10043617Y4870704D01*
X10037927Y4867300D01*
X10034016Y4864404D01*
X10030815Y4861102D01*
X10028732Y4857851D01*
X10028021Y4855006D01*
X10028275Y4852212D01*
X10028682Y4851196D01*
X10029393Y4851958D01*
X10031882Y4857038D01*
X10034270Y4860239D01*
X10037165Y4863592D01*
X10044582Y4870450D01*
G37*
G36*
X10301071Y4870653D02*
G01*
X10299090Y4870450D01*
X10296144Y4869230D01*
X10292588Y4867148D01*
X10288981Y4864506D01*
X10286034Y4861864D01*
X10284053Y4859477D01*
X10283291Y4857699D01*
X10284053Y4856886D01*
X10286034Y4857140D01*
X10288981Y4858308D01*
X10292588Y4860442D01*
X10296144Y4863033D01*
X10299090Y4865674D01*
X10301071Y4868062D01*
X10301833Y4869840D01*
G37*
G36*
X10347096Y4870246D02*
G01*
X10340848Y4866690D01*
X10334498Y4861560D01*
X10331551Y4857191D01*
X10332262Y4856581D01*
X10334193Y4856988D01*
X10337139Y4858308D01*
X10340695Y4860442D01*
X10344302Y4863033D01*
X10347248Y4865725D01*
X10349230Y4868113D01*
X10349992Y4869942D01*
G37*
G36*
X10437469Y4868621D02*
G01*
X10436606Y4868316D01*
X10435894Y4867097D01*
X10435640Y4865319D01*
X10435742Y4863287D01*
X10436352Y4861255D01*
X10437164Y4859731D01*
X10437825Y4859629D01*
X10438333Y4860899D01*
X10438587Y4863490D01*
X10438485Y4866030D01*
X10438130Y4867808D01*
G37*
G36*
X9529724Y4863896D02*
G01*
X9528962Y4862880D01*
X9528403Y4860696D01*
X9528200Y4858207D01*
X9528403Y4855768D01*
X9528962Y4853584D01*
X9529724Y4852517D01*
X9530283Y4853025D01*
X9530689Y4855006D01*
X9530842Y4858207D01*
X9530689Y4861458D01*
X9530283Y4863388D01*
G37*
D10*
X10999990Y4415307D02*
G01*
X10999990Y4306341D01*
X10927346Y4415307D02*
G01*
X10927346Y4306341D01*
X10999990Y4363491D02*
G01*
X10927346Y4363491D01*
X10893056Y4394479D02*
G01*
X10882642Y4399813D01*
X10866894Y4415307D01*
X10866894Y4306341D01*
D11*
X11292827Y4561994D02*
G01*
X11283683Y4566566D01*
X11270221Y4580028D01*
X11270221Y4484524D01*
D10*
X11029784Y4093654D02*
G01*
X11029784Y3984688D01*
X10957140Y4093654D02*
G01*
X10957140Y3984688D01*
X11029784Y4041838D02*
G01*
X10957140Y4041838D01*
X10917516Y4067746D02*
G01*
X10917516Y4072826D01*
X10912436Y4083240D01*
X10907102Y4088574D01*
X10896688Y4093654D01*
X10876114Y4093654D01*
X10865700Y4088574D01*
X10860366Y4083240D01*
X10855286Y4072826D01*
X10855286Y4062412D01*
X10860366Y4051998D01*
X10870780Y4036504D01*
X10922850Y3984688D01*
X10849952Y3984688D01*
X2679832Y3843642D02*
G01*
X2679832Y3734676D01*
X2607188Y3843642D02*
G01*
X2607188Y3734676D01*
X2679832Y3791826D02*
G01*
X2607188Y3791826D01*
X2562484Y3843642D02*
G01*
X2505334Y3843642D01*
X2536322Y3801986D01*
X2520828Y3801986D01*
X2510414Y3796906D01*
X2505334Y3791826D01*
X2500000Y3776078D01*
X2500000Y3765664D01*
X2505334Y3750170D01*
X2515748Y3739756D01*
X2531242Y3734676D01*
X2546736Y3734676D01*
X2562484Y3739756D01*
X2567564Y3744836D01*
X2572898Y3755250D01*
X2649992Y4715306D02*
G01*
X2649992Y4606340D01*
X2577348Y4715306D02*
G01*
X2577348Y4606340D01*
X2649992Y4663490D02*
G01*
X2577348Y4663490D01*
X2490988Y4715306D02*
G01*
X2543058Y4642662D01*
X2465080Y4642662D01*
X2490988Y4715306D02*
G01*
X2490988Y4606340D01*
X4268749Y4515307D02*
G01*
X4279163Y4510227D01*
X4289577Y4499813D01*
X4294911Y4489399D01*
X4299991Y4473651D01*
X4299991Y4447743D01*
X4294911Y4432249D01*
X4289577Y4421835D01*
X4279163Y4411421D01*
X4268749Y4406341D01*
X4247921Y4406341D01*
X4237761Y4411421D01*
X4227347Y4421835D01*
X4222013Y4432249D01*
X4216933Y4447743D01*
X4216933Y4473651D01*
X4222013Y4489399D01*
X4227347Y4499813D01*
X4237761Y4510227D01*
X4247921Y4515307D01*
X4268749Y4515307D01*
X4253255Y4426915D02*
G01*
X4222013Y4395927D01*
X4182643Y4494479D02*
G01*
X4172229Y4499813D01*
X4156481Y4515307D01*
X4156481Y4406341D01*
X4668748Y4515307D02*
G01*
X4679162Y4510227D01*
X4689576Y4499813D01*
X4694910Y4489399D01*
X4699990Y4473651D01*
X4699990Y4447743D01*
X4694910Y4432249D01*
X4689576Y4421835D01*
X4679162Y4411421D01*
X4668748Y4406341D01*
X4647920Y4406341D01*
X4637760Y4411421D01*
X4627346Y4421835D01*
X4622012Y4432249D01*
X4616932Y4447743D01*
X4616932Y4473651D01*
X4622012Y4489399D01*
X4627346Y4499813D01*
X4637760Y4510227D01*
X4647920Y4515307D01*
X4668748Y4515307D01*
X4653254Y4426915D02*
G01*
X4622012Y4395927D01*
X4577308Y4489399D02*
G01*
X4577308Y4494479D01*
X4572228Y4504893D01*
X4566894Y4510227D01*
X4556480Y4515307D01*
X4535906Y4515307D01*
X4525492Y4510227D01*
X4520158Y4504893D01*
X4515078Y4494479D01*
X4515078Y4484065D01*
X4520158Y4473651D01*
X4530572Y4458157D01*
X4582642Y4406341D01*
X4509744Y4406341D01*
X5908243Y4064533D02*
G01*
X5918657Y4059453D01*
X5929071Y4049039D01*
X5934405Y4038625D01*
X5939485Y4022877D01*
X5939485Y3996969D01*
X5934405Y3981475D01*
X5929071Y3971061D01*
X5918657Y3960647D01*
X5908243Y3955567D01*
X5887415Y3955567D01*
X5877255Y3960647D01*
X5866841Y3971061D01*
X5861507Y3981475D01*
X5856427Y3996969D01*
X5856427Y4022877D01*
X5861507Y4038625D01*
X5866841Y4049039D01*
X5877255Y4059453D01*
X5887415Y4064533D01*
X5908243Y4064533D01*
X5892749Y3976141D02*
G01*
X5861507Y3945153D01*
X5811723Y4064533D02*
G01*
X5754573Y4064533D01*
X5785815Y4022877D01*
X5770067Y4022877D01*
X5759653Y4017797D01*
X5754573Y4012717D01*
X5749239Y3996969D01*
X5749239Y3986555D01*
X5754573Y3971061D01*
X5764987Y3960647D01*
X5780481Y3955567D01*
X5795975Y3955567D01*
X5811723Y3960647D01*
X5816803Y3965727D01*
X5822137Y3976141D01*
X5068747Y4515307D02*
G01*
X5079161Y4510227D01*
X5089575Y4499813D01*
X5094909Y4489399D01*
X5099989Y4473651D01*
X5099989Y4447743D01*
X5094909Y4432249D01*
X5089575Y4421835D01*
X5079161Y4411421D01*
X5068747Y4406341D01*
X5047919Y4406341D01*
X5037759Y4411421D01*
X5027345Y4421835D01*
X5022011Y4432249D01*
X5016931Y4447743D01*
X5016931Y4473651D01*
X5022011Y4489399D01*
X5027345Y4499813D01*
X5037759Y4510227D01*
X5047919Y4515307D01*
X5068747Y4515307D01*
X5053253Y4426915D02*
G01*
X5022011Y4395927D01*
X4930571Y4515307D02*
G01*
X4982641Y4442663D01*
X4904663Y4442663D01*
X4930571Y4515307D02*
G01*
X4930571Y4406341D01*
X8318741Y4565307D02*
G01*
X8329155Y4560227D01*
X8339569Y4549813D01*
X8344903Y4539399D01*
X8349983Y4523651D01*
X8349983Y4497743D01*
X8344903Y4482249D01*
X8339569Y4471835D01*
X8329155Y4461421D01*
X8318741Y4456341D01*
X8297913Y4456341D01*
X8287753Y4461421D01*
X8277339Y4471835D01*
X8272005Y4482249D01*
X8266925Y4497743D01*
X8266925Y4523651D01*
X8272005Y4539399D01*
X8277339Y4549813D01*
X8287753Y4560227D01*
X8297913Y4565307D01*
X8318741Y4565307D01*
X8303247Y4476915D02*
G01*
X8272005Y4445927D01*
X8170151Y4565307D02*
G01*
X8222221Y4565307D01*
X8227301Y4518571D01*
X8222221Y4523651D01*
X8206473Y4528985D01*
X8190979Y4528985D01*
X8175485Y4523651D01*
X8165071Y4513491D01*
X8159737Y4497743D01*
X8159737Y4487329D01*
X8165071Y4471835D01*
X8175485Y4461421D01*
X8190979Y4456341D01*
X8206473Y4456341D01*
X8222221Y4461421D01*
X8227301Y4466501D01*
X8232635Y4476915D01*
X8718740Y4565307D02*
G01*
X8729154Y4560227D01*
X8739568Y4549813D01*
X8744902Y4539399D01*
X8749982Y4523651D01*
X8749982Y4497743D01*
X8744902Y4482249D01*
X8739568Y4471835D01*
X8729154Y4461421D01*
X8718740Y4456341D01*
X8697912Y4456341D01*
X8687752Y4461421D01*
X8677338Y4471835D01*
X8672004Y4482249D01*
X8666924Y4497743D01*
X8666924Y4523651D01*
X8672004Y4539399D01*
X8677338Y4549813D01*
X8687752Y4560227D01*
X8697912Y4565307D01*
X8718740Y4565307D01*
X8703246Y4476915D02*
G01*
X8672004Y4445927D01*
X8570150Y4549813D02*
G01*
X8575484Y4560227D01*
X8590978Y4565307D01*
X8601392Y4565307D01*
X8616886Y4560227D01*
X8627300Y4544479D01*
X8632634Y4518571D01*
X8632634Y4492663D01*
X8627300Y4471835D01*
X8616886Y4461421D01*
X8601392Y4456341D01*
X8596312Y4456341D01*
X8580564Y4461421D01*
X8570150Y4471835D01*
X8565070Y4487329D01*
X8565070Y4492663D01*
X8570150Y4508157D01*
X8580564Y4518571D01*
X8596312Y4523651D01*
X8601392Y4523651D01*
X8616886Y4518571D01*
X8627300Y4508157D01*
X8632634Y4492663D01*
X8808948Y4254068D02*
G01*
X8819362Y4248988D01*
X8829776Y4238574D01*
X8835110Y4228160D01*
X8840190Y4212412D01*
X8840190Y4186504D01*
X8835110Y4171010D01*
X8829776Y4160596D01*
X8819362Y4150182D01*
X8808948Y4145102D01*
X8788120Y4145102D01*
X8777960Y4150182D01*
X8767546Y4160596D01*
X8762212Y4171010D01*
X8757132Y4186504D01*
X8757132Y4212412D01*
X8762212Y4228160D01*
X8767546Y4238574D01*
X8777960Y4248988D01*
X8788120Y4254068D01*
X8808948Y4254068D01*
X8793454Y4165676D02*
G01*
X8762212Y4134688D01*
X8649944Y4254068D02*
G01*
X8702014Y4145102D01*
X8722842Y4254068D02*
G01*
X8649944Y4254068D01*
X9118739Y4565307D02*
G01*
X9129153Y4560227D01*
X9139567Y4549813D01*
X9144901Y4539399D01*
X9149981Y4523651D01*
X9149981Y4497743D01*
X9144901Y4482249D01*
X9139567Y4471835D01*
X9129153Y4461421D01*
X9118739Y4456341D01*
X9097911Y4456341D01*
X9087751Y4461421D01*
X9077337Y4471835D01*
X9072003Y4482249D01*
X9066923Y4497743D01*
X9066923Y4523651D01*
X9072003Y4539399D01*
X9077337Y4549813D01*
X9087751Y4560227D01*
X9097911Y4565307D01*
X9118739Y4565307D01*
X9103245Y4476915D02*
G01*
X9072003Y4445927D01*
X9006471Y4565307D02*
G01*
X9022219Y4560227D01*
X9027299Y4549813D01*
X9027299Y4539399D01*
X9022219Y4528985D01*
X9011805Y4523651D01*
X8990977Y4518571D01*
X8975483Y4513491D01*
X8965069Y4503077D01*
X8959735Y4492663D01*
X8959735Y4476915D01*
X8965069Y4466501D01*
X8970149Y4461421D01*
X8985897Y4456341D01*
X9006471Y4456341D01*
X9022219Y4461421D01*
X9027299Y4466501D01*
X9032633Y4476915D01*
X9032633Y4492663D01*
X9027299Y4503077D01*
X9016885Y4513491D01*
X9001391Y4518571D01*
X8980563Y4523651D01*
X8970149Y4528985D01*
X8965069Y4539399D01*
X8965069Y4549813D01*
X8970149Y4560227D01*
X8985897Y4565307D01*
X9006471Y4565307D01*
X6627368Y5120982D02*
G01*
X6627368Y5043004D01*
X6622288Y5027510D01*
X6611874Y5017096D01*
X6596125Y5012016D01*
X6585711Y5012016D01*
X6570218Y5017096D01*
X6559804Y5027510D01*
X6554724Y5043004D01*
X6554724Y5120982D01*
X6520434Y5100154D02*
G01*
X6510020Y5105488D01*
X6494272Y5120982D01*
X6494272Y5012016D01*
D11*
X11223993Y5554982D02*
G01*
X10675988Y5554982D01*
X10675988Y4704971D01*
X11223993Y4704971D01*
X11223993Y5554982D01*
D12*
X10822978Y3418992D02*
G01*
X10822978Y2783992D01*
X11076978Y3418992D02*
G01*
X11076978Y2783992D01*
X10695978Y3418992D02*
G01*
X11203978Y3418992D01*
X11203978Y3672992D01*
X10695978Y3672992D01*
X10695978Y3418992D01*
X2436888Y5572991D02*
G01*
X1687842Y5572991D01*
X862995Y5572991D01*
X2437000Y4722987D02*
G01*
X862995Y4722990D01*
X862995Y5572986D02*
G01*
X862995Y4722990D01*
X2437000Y4722987D02*
G01*
X2437000Y5578988D01*
D13*
X2242682Y3423008D02*
G01*
X2242682Y2865343D01*
X2285011Y2823006D01*
X2327341Y2865343D01*
X2327341Y3423008D01*
X1988680Y3423008D02*
G01*
X1988680Y2865343D01*
X2031009Y2823006D01*
X2073338Y2865343D01*
X2073338Y3423008D01*
X1734682Y3423008D02*
G01*
X1734682Y2865343D01*
X1777011Y2823006D01*
X1819341Y2865343D01*
X1819341Y3423008D01*
X1480682Y3423008D02*
G01*
X1480682Y2865343D01*
X1523011Y2823006D01*
X1565341Y2865343D01*
X1565341Y3423008D01*
X1226682Y3423008D02*
G01*
X1226682Y2865343D01*
X1269011Y2823006D01*
X1311341Y2865343D01*
X1311341Y3423008D01*
X972685Y3423008D02*
G01*
X972685Y2865343D01*
X1015014Y2823009D01*
X1057343Y2865343D01*
X1057343Y3423008D01*
X2412014Y3423008D02*
G01*
X2412014Y3673010D01*
X888014Y3423008D02*
G01*
X888014Y3673010D01*
X2412014Y3673010D02*
G01*
X888014Y3673010D01*
X2412014Y3423008D02*
G01*
X888014Y3423008D01*
D12*
X4269991Y4813589D02*
G01*
X4269991Y4899990D01*
X4269991Y4899990D02*
G01*
X4169989Y4899990D01*
X4129991Y4718593D02*
G01*
X4129991Y4781387D01*
X4269991Y4599990D02*
G01*
X4269991Y4686391D01*
X4269991Y4599990D02*
G01*
X4169989Y4599990D01*
X4669990Y4813589D02*
G01*
X4669990Y4899990D01*
X4669990Y4899990D02*
G01*
X4569988Y4899990D01*
X4529990Y4718593D02*
G01*
X4529990Y4781387D01*
X4669990Y4599990D02*
G01*
X4669990Y4686391D01*
X4669990Y4599990D02*
G01*
X4569988Y4599990D01*
X5486389Y4069991D02*
G01*
X5399989Y4069991D01*
X5399989Y4069991D02*
G01*
X5399989Y3969989D01*
X5581385Y3929992D02*
G01*
X5518591Y3929992D01*
X5699988Y4069991D02*
G01*
X5613587Y4069991D01*
X5699988Y4069991D02*
G01*
X5699988Y3969989D01*
X5069989Y4813589D02*
G01*
X5069989Y4899990D01*
X5069989Y4899990D02*
G01*
X4969987Y4899990D01*
X4929990Y4718593D02*
G01*
X4929990Y4781387D01*
X5069989Y4599990D02*
G01*
X5069989Y4686391D01*
X5069989Y4599990D02*
G01*
X4969987Y4599990D01*
X8319983Y4813589D02*
G01*
X8319983Y4899990D01*
X8319983Y4899990D02*
G01*
X8219981Y4899990D01*
X8179983Y4718593D02*
G01*
X8179983Y4781387D01*
X8319983Y4599990D02*
G01*
X8319983Y4686391D01*
X8319983Y4599990D02*
G01*
X8219981Y4599990D01*
X8719982Y4813589D02*
G01*
X8719982Y4899990D01*
X8719982Y4899990D02*
G01*
X8619980Y4899990D01*
X8579982Y4718593D02*
G01*
X8579982Y4781387D01*
X8719982Y4599990D02*
G01*
X8719982Y4686391D01*
X8719982Y4599990D02*
G01*
X8619980Y4599990D01*
X9029981Y4136392D02*
G01*
X9029981Y4049991D01*
X9029981Y4049991D02*
G01*
X9129984Y4049991D01*
X9169981Y4231388D02*
G01*
X9169981Y4168594D01*
X9029981Y4349991D02*
G01*
X9029981Y4263590D01*
X9029981Y4349991D02*
G01*
X9129984Y4349991D01*
X9119981Y4813589D02*
G01*
X9119981Y4899990D01*
X9119981Y4899990D02*
G01*
X9019979Y4899990D01*
X8979982Y4718593D02*
G01*
X8979982Y4781387D01*
X9119981Y4599990D02*
G01*
X9119981Y4686391D01*
X9119981Y4599990D02*
G01*
X9019979Y4599990D01*
D10*
X6390467Y4057373D02*
G01*
X6709506Y4057373D01*
X6709506Y4942611D01*
X6390467Y4942611D01*
X6390467Y4057373D01*
D14*
G75*
G01
X6426352Y4086352D02*
G03X6426352Y4086352I-6883J0D01*
D15*
G75*
G01
X6298514Y4023741D02*
G03X6298514Y4023741I-10008J0D01*
M02*
