G04 Layer: TopSilkscreenLayer*
G04 EasyEDA v6.5.9, 2023-12-18 21:36:12*
G04 Gerber Generator version 0.2*
G04 Scale: 100 percent, Rotated: No, Reflected: No *
G04 Dimensions in millimeters *
G04 leading zeros omitted , absolute positions ,4 integer and 5 decimal *
%FSLAX45Y45*%
%MOMM*%

%ADD10C,0.1524*%
%ADD11C,0.5000*%
%ADD12C,0.2540*%

%LPD*%
D10*
X6149977Y5265305D02*
G01*
X6149977Y5156339D01*
X6149977Y5156339D02*
G01*
X6212207Y5156339D01*
X6246497Y5265305D02*
G01*
X6246497Y5156339D01*
X6246497Y5265305D02*
G01*
X6314061Y5265305D01*
X6246497Y5213489D02*
G01*
X6288153Y5213489D01*
X6246497Y5156339D02*
G01*
X6314061Y5156339D01*
X6348351Y5265305D02*
G01*
X6348351Y5156339D01*
X6348351Y5265305D02*
G01*
X6384927Y5265305D01*
X6400421Y5260225D01*
X6410835Y5249811D01*
X6415915Y5239397D01*
X6421249Y5223649D01*
X6421249Y5197741D01*
X6415915Y5182247D01*
X6410835Y5171833D01*
X6400421Y5161419D01*
X6384927Y5156339D01*
X6348351Y5156339D01*
X6455539Y5244477D02*
G01*
X6465953Y5249811D01*
X6481447Y5265305D01*
X6481447Y5156339D01*
X10199969Y5265305D02*
G01*
X10199969Y5156339D01*
X10199969Y5156339D02*
G01*
X10262199Y5156339D01*
X10296489Y5265305D02*
G01*
X10296489Y5156339D01*
X10296489Y5265305D02*
G01*
X10364053Y5265305D01*
X10296489Y5213489D02*
G01*
X10338145Y5213489D01*
X10296489Y5156339D02*
G01*
X10364053Y5156339D01*
X10398343Y5265305D02*
G01*
X10398343Y5156339D01*
X10398343Y5265305D02*
G01*
X10434919Y5265305D01*
X10450413Y5260225D01*
X10460827Y5249811D01*
X10465907Y5239397D01*
X10471241Y5223649D01*
X10471241Y5197741D01*
X10465907Y5182247D01*
X10460827Y5171833D01*
X10450413Y5161419D01*
X10434919Y5156339D01*
X10398343Y5156339D01*
X10510611Y5239397D02*
G01*
X10510611Y5244477D01*
X10515945Y5254891D01*
X10521025Y5260225D01*
X10531439Y5265305D01*
X10552267Y5265305D01*
X10562681Y5260225D01*
X10567761Y5254891D01*
X10573095Y5244477D01*
X10573095Y5234063D01*
X10567761Y5223649D01*
X10557347Y5208155D01*
X10505531Y5156339D01*
X10578175Y5156339D01*
D11*
X3689781Y4720107D02*
G01*
X3649903Y4520209D01*
X3639784Y4460107D02*
G01*
X3599906Y4260209D01*
X3309838Y4240143D02*
G01*
X3539962Y4240143D01*
X3299792Y4480143D02*
G01*
X3259792Y4280143D01*
X3359835Y4500143D02*
G01*
X3589959Y4500143D01*
X3349790Y4740142D02*
G01*
X3309790Y4540143D01*
X3414732Y4750142D02*
G01*
X3644846Y4750142D01*
D12*
X2474795Y5300144D02*
G01*
X6524787Y5300141D01*
X6524787Y5300144D02*
G01*
X6524787Y3700145D01*
D11*
X3989788Y4500143D02*
G01*
X4219912Y4500143D01*
X3979743Y4740142D02*
G01*
X3939743Y4540143D01*
X4319734Y4720107D02*
G01*
X4279856Y4520209D01*
X4044685Y4750142D02*
G01*
X4274799Y4750142D01*
X3939791Y4240143D02*
G01*
X4169915Y4240143D01*
X3929745Y4480143D02*
G01*
X3889745Y4280143D01*
X4269737Y4460107D02*
G01*
X4229859Y4260209D01*
X4749787Y4500143D02*
G01*
X4979911Y4500143D01*
X4739741Y4740142D02*
G01*
X4699741Y4540143D01*
X5079733Y4720107D02*
G01*
X5039855Y4520209D01*
X4804684Y4750142D02*
G01*
X5034798Y4750142D01*
X4699789Y4240143D02*
G01*
X4929913Y4240143D01*
X4689744Y4480143D02*
G01*
X4649744Y4280143D01*
X5029735Y4460107D02*
G01*
X4989857Y4260209D01*
X5379740Y4500143D02*
G01*
X5609864Y4500143D01*
X5369694Y4740142D02*
G01*
X5329694Y4540143D01*
X5709686Y4720107D02*
G01*
X5669808Y4520209D01*
X5434637Y4750142D02*
G01*
X5664751Y4750142D01*
X5329742Y4240143D02*
G01*
X5559866Y4240143D01*
X5319697Y4480143D02*
G01*
X5279697Y4280143D01*
X5659688Y4460107D02*
G01*
X5619810Y4260209D01*
D12*
X6524787Y3700142D02*
G01*
X2474795Y3700145D01*
X2474795Y3700142D02*
G01*
X2474795Y5300141D01*
D11*
X7789773Y4720107D02*
G01*
X7749895Y4520209D01*
X7739776Y4460107D02*
G01*
X7699898Y4260209D01*
X7409830Y4240143D02*
G01*
X7639954Y4240143D01*
X7399784Y4480143D02*
G01*
X7359784Y4280143D01*
X7459827Y4500143D02*
G01*
X7689951Y4500143D01*
X7449781Y4740142D02*
G01*
X7409781Y4540143D01*
X7514724Y4750142D02*
G01*
X7744838Y4750142D01*
D12*
X6574787Y5300144D02*
G01*
X10624779Y5300141D01*
X10624779Y5300144D02*
G01*
X10624779Y3700145D01*
D11*
X8089780Y4500143D02*
G01*
X8319904Y4500143D01*
X8079734Y4740142D02*
G01*
X8039734Y4540143D01*
X8419726Y4720107D02*
G01*
X8379848Y4520209D01*
X8144677Y4750142D02*
G01*
X8374791Y4750142D01*
X8039783Y4240143D02*
G01*
X8269907Y4240143D01*
X8029737Y4480143D02*
G01*
X7989737Y4280143D01*
X8369729Y4460107D02*
G01*
X8329851Y4260209D01*
X8849779Y4500143D02*
G01*
X9079903Y4500143D01*
X8839733Y4740142D02*
G01*
X8799733Y4540143D01*
X9179725Y4720107D02*
G01*
X9139847Y4520209D01*
X8904676Y4750142D02*
G01*
X9134789Y4750142D01*
X8799781Y4240143D02*
G01*
X9029905Y4240143D01*
X8789736Y4480143D02*
G01*
X8749736Y4280143D01*
X9129727Y4460107D02*
G01*
X9089849Y4260209D01*
X9479732Y4500143D02*
G01*
X9709856Y4500143D01*
X9469686Y4740142D02*
G01*
X9429686Y4540143D01*
X9809678Y4720107D02*
G01*
X9769800Y4520209D01*
X9534629Y4750142D02*
G01*
X9764742Y4750142D01*
X9429734Y4240143D02*
G01*
X9659858Y4240143D01*
X9419689Y4480143D02*
G01*
X9379689Y4280143D01*
X9759680Y4460107D02*
G01*
X9719802Y4260209D01*
D12*
X10624779Y3700142D02*
G01*
X6574787Y3700145D01*
X6574787Y3700142D02*
G01*
X6574787Y5300141D01*
G75*
G01
X3738093Y4260139D02*
G03X3738093Y4260139I-28296J0D01*
G75*
G01
X4368038Y4260139D02*
G03X4368038Y4260139I-28296J0D01*
G75*
G01
X5128031Y4260139D02*
G03X5128031Y4260139I-28296J0D01*
G75*
G01
X5758002Y4260139D02*
G03X5758002Y4260139I-28296J0D01*
D11*
G75*
G01
X3762985Y3788791D02*
G03X3762985Y3788791I-24994J0D01*
D12*
G75*
G01
X7838084Y4260139D02*
G03X7838084Y4260139I-28296J0D01*
G75*
G01
X8468030Y4260139D02*
G03X8468030Y4260139I-28296J0D01*
G75*
G01
X9228023Y4260139D02*
G03X9228023Y4260139I-28296J0D01*
G75*
G01
X9857994Y4260139D02*
G03X9857994Y4260139I-28296J0D01*
D11*
G75*
G01
X7862976Y3788791D02*
G03X7862976Y3788791I-24994J0D01*
G36*
X899998Y5299989D02*
G01*
X2450007Y5299989D01*
X2450007Y4699990D01*
X899998Y4699990D01*
G37*
G36*
X10624972Y5299989D02*
G01*
X11224971Y5299989D01*
X11224971Y4699990D01*
X10624972Y4699990D01*
G37*
M02*
