G04 Layer: TopSolderMaskLayer*
G04 EasyEDA v6.5.9, 2023-12-18 21:36:12*
G04 Gerber Generator version 0.2*
G04 Scale: 100 percent, Rotated: No, Reflected: No *
G04 Dimensions in millimeters *
G04 leading zeros omitted , absolute positions ,4 integer and 5 decimal *
%FSLAX45Y45*%
%MOMM*%

%ADD10C,1.9000*%
%ADD11C,1.9016*%
%ADD12C,1.8016*%
%ADD13C,1.6000*%

%LPD*%
G36*
X10981943Y4454905D02*
G01*
X10981943Y4644897D01*
X11171936Y4644897D01*
X11171936Y4454905D01*
G37*
D10*
G01*
X10822965Y4549978D03*
G36*
X10727943Y3704844D02*
G01*
X10727943Y3895089D01*
X10917936Y3895089D01*
X10917936Y3704844D01*
G37*
D11*
G01*
X11076990Y3799992D03*
G36*
X2194813Y4232910D02*
G01*
X2194813Y4412995D01*
X2375154Y4412995D01*
X2375154Y4232910D01*
G37*
D12*
G01*
X2285009Y4576978D03*
G01*
X2031009Y4322978D03*
G01*
X2031009Y4576978D03*
G01*
X1777009Y4322978D03*
G01*
X1777009Y4576978D03*
G01*
X1523009Y4322978D03*
G01*
X1523009Y4576978D03*
G01*
X1269009Y4322978D03*
G01*
X1269009Y4576978D03*
G01*
X1015009Y4322978D03*
G01*
X1015009Y4576978D03*
G36*
X919987Y3981957D02*
G01*
X919987Y4172204D01*
X1109979Y4172204D01*
X1109979Y3981957D01*
G37*
D11*
G01*
X1015009Y3822979D03*
G01*
X1269009Y4076979D03*
G01*
X1269009Y3822979D03*
G01*
X1523009Y4076979D03*
G01*
X1523009Y3822979D03*
G01*
X1777009Y4076979D03*
G01*
X1777009Y3822979D03*
G01*
X2031009Y4076979D03*
G01*
X2031009Y3822979D03*
G01*
X2285009Y4076979D03*
G01*
X2285009Y3822979D03*
D13*
G01*
X3864990Y3864990D03*
G01*
X4118990Y3864990D03*
G01*
X4372990Y3864990D03*
G01*
X4626990Y3864990D03*
G01*
X4880990Y3864990D03*
G01*
X5134990Y3864990D03*
G01*
X5134990Y5134990D03*
G01*
X4880990Y5134990D03*
G01*
X4626990Y5134990D03*
G01*
X4372990Y5134990D03*
G01*
X4118990Y5134990D03*
G01*
X3864990Y5134990D03*
G01*
X7964982Y3864990D03*
G01*
X8218982Y3864990D03*
G01*
X8472982Y3864990D03*
G01*
X8726982Y3864990D03*
G01*
X8980982Y3864990D03*
G01*
X9234982Y3864990D03*
G01*
X9234982Y5134990D03*
G01*
X8980982Y5134990D03*
G01*
X8726982Y5134990D03*
G01*
X8472982Y5134990D03*
G01*
X8218982Y5134990D03*
G01*
X7964982Y5134990D03*
M02*
