G04 Layer: TopLayer*
G04 EasyEDA v6.5.9, 2023-12-18 21:36:12*
G04 Gerber Generator version 0.2*
G04 Scale: 100 percent, Rotated: No, Reflected: No *
G04 Dimensions in millimeters *
G04 leading zeros omitted , absolute positions ,4 integer and 5 decimal *
%FSLAX45Y45*%
%MOMM*%

%ADD10C,0.2540*%
%ADD11C,1.8000*%
%ADD12C,1.7000*%
%ADD13C,1.5000*%
%ADD14C,0.6096*%
%ADD15C,0.0137*%

%LPD*%
G36*
X886053Y3675887D02*
G01*
X882192Y3676650D01*
X878890Y3678885D01*
X876655Y3682187D01*
X875893Y3686048D01*
X875893Y5313934D01*
X876655Y5317794D01*
X878890Y5321096D01*
X882192Y5323332D01*
X886053Y5324094D01*
X11213896Y5324094D01*
X11217808Y5323332D01*
X11221110Y5321096D01*
X11223294Y5317794D01*
X11224056Y5313934D01*
X11224056Y3686048D01*
X11223294Y3682187D01*
X11221110Y3678885D01*
X11217808Y3676650D01*
X11213896Y3675887D01*
X11130889Y3675887D01*
X11126571Y3676853D01*
X11123066Y3679596D01*
X11121085Y3683558D01*
X11120932Y3687978D01*
X11122710Y3692042D01*
X11126012Y3694988D01*
X11139068Y3702151D01*
X11150854Y3710686D01*
X11161471Y3720642D01*
X11170716Y3731869D01*
X11178540Y3744163D01*
X11184737Y3757320D01*
X11189208Y3771188D01*
X11191951Y3785463D01*
X11192865Y3799992D01*
X11191951Y3814521D01*
X11189208Y3828796D01*
X11184737Y3842664D01*
X11178540Y3855821D01*
X11170716Y3868115D01*
X11161471Y3879342D01*
X11150854Y3889298D01*
X11139068Y3897833D01*
X11126317Y3904843D01*
X11112804Y3910228D01*
X11098682Y3913835D01*
X11084255Y3915664D01*
X11069726Y3915664D01*
X11055248Y3913835D01*
X11041176Y3910228D01*
X11027613Y3904843D01*
X11014862Y3897833D01*
X11003127Y3889298D01*
X10992510Y3879342D01*
X10983214Y3868115D01*
X10975441Y3855821D01*
X10969244Y3842664D01*
X10964722Y3828796D01*
X10961979Y3814521D01*
X10961065Y3799992D01*
X10961979Y3785463D01*
X10964722Y3771188D01*
X10969244Y3757320D01*
X10975441Y3744163D01*
X10983214Y3731869D01*
X10992510Y3720642D01*
X11003127Y3710686D01*
X11014862Y3702151D01*
X11027968Y3694988D01*
X11031270Y3692042D01*
X11033048Y3687978D01*
X11032896Y3683558D01*
X11030864Y3679596D01*
X11027359Y3676853D01*
X11023041Y3675887D01*
X10939729Y3675887D01*
X10935868Y3676650D01*
X10932566Y3678885D01*
X10930331Y3682187D01*
X10929569Y3686048D01*
X10930331Y3689959D01*
X10933176Y3693871D01*
X10936274Y3698798D01*
X10938154Y3704234D01*
X10938865Y3710584D01*
X10938865Y3748633D01*
X10874349Y3748633D01*
X10874349Y3686048D01*
X10873536Y3682187D01*
X10871352Y3678885D01*
X10868050Y3676650D01*
X10864189Y3675887D01*
X10781792Y3675887D01*
X10777880Y3676650D01*
X10774629Y3678885D01*
X10772394Y3682187D01*
X10771632Y3686048D01*
X10771632Y3748633D01*
X10707065Y3748633D01*
X10707065Y3710584D01*
X10707776Y3704234D01*
X10709706Y3698798D01*
X10715599Y3689959D01*
X10716361Y3686048D01*
X10715599Y3682187D01*
X10713415Y3678885D01*
X10710113Y3676650D01*
X10706201Y3675887D01*
X8617051Y3675887D01*
X8613140Y3676650D01*
X8609838Y3678885D01*
X8607653Y3682187D01*
X8606891Y3686048D01*
X8607653Y3689959D01*
X8609838Y3693261D01*
X8683853Y3767277D01*
X8687104Y3769410D01*
X8690864Y3770223D01*
X8694674Y3769563D01*
X8697112Y3768648D01*
X8710218Y3765499D01*
X8723630Y3764178D01*
X8737092Y3764635D01*
X8750350Y3766870D01*
X8763254Y3770833D01*
X8775446Y3776522D01*
X8786825Y3783787D01*
X8797137Y3792474D01*
X8806180Y3802481D01*
X8813800Y3813556D01*
X8819845Y3825595D01*
X8824264Y3838346D01*
X8826957Y3851554D01*
X8827871Y3864965D01*
X8826957Y3878427D01*
X8824264Y3891635D01*
X8819845Y3904386D01*
X8813800Y3916426D01*
X8806180Y3927500D01*
X8797137Y3937508D01*
X8786825Y3946194D01*
X8775446Y3953459D01*
X8763254Y3959148D01*
X8750350Y3963111D01*
X8737092Y3965346D01*
X8723630Y3965803D01*
X8710218Y3964482D01*
X8697112Y3961333D01*
X8684514Y3956507D01*
X8672677Y3950004D01*
X8661857Y3942029D01*
X8652154Y3932682D01*
X8643823Y3922064D01*
X8636965Y3910482D01*
X8631682Y3898087D01*
X8628126Y3885082D01*
X8626348Y3871722D01*
X8626348Y3858260D01*
X8628126Y3844899D01*
X8631783Y3831590D01*
X8632088Y3828084D01*
X8631174Y3824630D01*
X8629142Y3821734D01*
X8548979Y3741572D01*
X8545677Y3739387D01*
X8541816Y3738575D01*
X4579721Y3738575D01*
X4575860Y3739387D01*
X4572558Y3741572D01*
X4570374Y3744874D01*
X4569561Y3748735D01*
X4570374Y3752646D01*
X4572558Y3755948D01*
X4583887Y3767277D01*
X4587087Y3769410D01*
X4590897Y3770223D01*
X4594707Y3769563D01*
X4597095Y3768648D01*
X4610201Y3765499D01*
X4623612Y3764178D01*
X4637074Y3764635D01*
X4650384Y3766870D01*
X4663236Y3770833D01*
X4675479Y3776522D01*
X4686858Y3783787D01*
X4697120Y3792474D01*
X4706162Y3802481D01*
X4713782Y3813556D01*
X4719878Y3825595D01*
X4724298Y3838346D01*
X4726990Y3851554D01*
X4727854Y3864965D01*
X4726990Y3878427D01*
X4724298Y3891635D01*
X4719878Y3904386D01*
X4713782Y3916426D01*
X4706162Y3927500D01*
X4697120Y3937508D01*
X4690059Y3943451D01*
X4687570Y3946702D01*
X4686503Y3950665D01*
X4687112Y3954729D01*
X4689246Y3958183D01*
X4692599Y3960571D01*
X4696663Y3961384D01*
X4811217Y3961384D01*
X4815332Y3960520D01*
X4818735Y3958031D01*
X4820869Y3954373D01*
X4821326Y3950208D01*
X4820056Y3946194D01*
X4817211Y3943045D01*
X4815840Y3942029D01*
X4806188Y3932682D01*
X4797806Y3922064D01*
X4790948Y3910482D01*
X4785664Y3898087D01*
X4782108Y3885082D01*
X4780330Y3871722D01*
X4780330Y3858260D01*
X4782108Y3844899D01*
X4785664Y3831894D01*
X4790948Y3819499D01*
X4797806Y3807917D01*
X4806188Y3797300D01*
X4815840Y3787952D01*
X4826711Y3779977D01*
X4838547Y3773474D01*
X4851095Y3768648D01*
X4864201Y3765499D01*
X4877612Y3764178D01*
X4891074Y3764635D01*
X4904384Y3766870D01*
X4917236Y3770833D01*
X4929479Y3776522D01*
X4940858Y3783787D01*
X4951120Y3792474D01*
X4960162Y3802481D01*
X4967782Y3813556D01*
X4973878Y3825595D01*
X4978298Y3838346D01*
X4980990Y3851554D01*
X4981854Y3864965D01*
X4980990Y3878427D01*
X4978298Y3891635D01*
X4973878Y3904386D01*
X4967782Y3916426D01*
X4960162Y3927500D01*
X4951120Y3937508D01*
X4944059Y3943451D01*
X4941570Y3946702D01*
X4940503Y3950665D01*
X4941112Y3954729D01*
X4943246Y3958183D01*
X4946599Y3960571D01*
X4950663Y3961384D01*
X5065217Y3961384D01*
X5069332Y3960520D01*
X5072735Y3958031D01*
X5074869Y3954373D01*
X5075326Y3950208D01*
X5074056Y3946194D01*
X5071211Y3943045D01*
X5069840Y3942029D01*
X5060188Y3932682D01*
X5051806Y3922064D01*
X5044948Y3910482D01*
X5039664Y3898087D01*
X5036108Y3885082D01*
X5034330Y3871722D01*
X5034330Y3858260D01*
X5036108Y3844899D01*
X5039664Y3831894D01*
X5044948Y3819499D01*
X5051806Y3807917D01*
X5060188Y3797300D01*
X5069840Y3787952D01*
X5080711Y3779977D01*
X5092547Y3773474D01*
X5105095Y3768648D01*
X5118201Y3765499D01*
X5131612Y3764178D01*
X5145074Y3764635D01*
X5158384Y3766870D01*
X5171236Y3770833D01*
X5183479Y3776522D01*
X5194858Y3783787D01*
X5205120Y3792474D01*
X5214162Y3802481D01*
X5221782Y3813556D01*
X5227878Y3825595D01*
X5232298Y3838346D01*
X5234990Y3851554D01*
X5235854Y3864965D01*
X5234990Y3878427D01*
X5232298Y3891635D01*
X5227878Y3904386D01*
X5221782Y3916426D01*
X5214162Y3927500D01*
X5205120Y3937508D01*
X5198059Y3943451D01*
X5195570Y3946702D01*
X5194503Y3950665D01*
X5195112Y3954729D01*
X5197246Y3958183D01*
X5200599Y3960571D01*
X5204663Y3961384D01*
X7895183Y3961384D01*
X7899298Y3960520D01*
X7902752Y3958031D01*
X7904835Y3954373D01*
X7905292Y3950208D01*
X7904022Y3946194D01*
X7901228Y3943045D01*
X7899857Y3942029D01*
X7890154Y3932682D01*
X7881823Y3922064D01*
X7874965Y3910482D01*
X7869681Y3898087D01*
X7866125Y3885082D01*
X7864348Y3871722D01*
X7864348Y3858260D01*
X7866125Y3844899D01*
X7869681Y3831894D01*
X7874965Y3819499D01*
X7881823Y3807917D01*
X7890154Y3797300D01*
X7899857Y3787952D01*
X7910677Y3779977D01*
X7922514Y3773474D01*
X7935112Y3768648D01*
X7948218Y3765499D01*
X7961630Y3764178D01*
X7975092Y3764635D01*
X7988350Y3766870D01*
X8001253Y3770833D01*
X8013446Y3776522D01*
X8024825Y3783787D01*
X8035137Y3792474D01*
X8044180Y3802481D01*
X8051800Y3813556D01*
X8057845Y3825595D01*
X8062264Y3838346D01*
X8064957Y3851554D01*
X8065871Y3864965D01*
X8064957Y3878427D01*
X8062264Y3891635D01*
X8057845Y3904386D01*
X8051800Y3916426D01*
X8044180Y3927500D01*
X8035137Y3937508D01*
X8028076Y3943451D01*
X8025536Y3946702D01*
X8024469Y3950665D01*
X8025079Y3954729D01*
X8027263Y3958183D01*
X8030616Y3960571D01*
X8034629Y3961384D01*
X8149183Y3961384D01*
X8153298Y3960520D01*
X8156752Y3958031D01*
X8158835Y3954373D01*
X8159292Y3950208D01*
X8158022Y3946194D01*
X8155228Y3943045D01*
X8153857Y3942029D01*
X8144154Y3932682D01*
X8135823Y3922064D01*
X8128965Y3910482D01*
X8123681Y3898087D01*
X8120125Y3885082D01*
X8118348Y3871722D01*
X8118348Y3858260D01*
X8120125Y3844899D01*
X8123681Y3831894D01*
X8128965Y3819499D01*
X8135823Y3807917D01*
X8144154Y3797300D01*
X8153857Y3787952D01*
X8164677Y3779977D01*
X8176514Y3773474D01*
X8189112Y3768648D01*
X8202218Y3765499D01*
X8215630Y3764178D01*
X8229092Y3764635D01*
X8242350Y3766870D01*
X8255253Y3770833D01*
X8267446Y3776522D01*
X8278825Y3783787D01*
X8289137Y3792474D01*
X8298180Y3802481D01*
X8305800Y3813556D01*
X8311845Y3825595D01*
X8316264Y3838346D01*
X8318957Y3851554D01*
X8319871Y3864965D01*
X8318957Y3878427D01*
X8316264Y3891635D01*
X8311845Y3904386D01*
X8305800Y3916426D01*
X8298180Y3927500D01*
X8289137Y3937508D01*
X8282076Y3943451D01*
X8279536Y3946702D01*
X8278469Y3950665D01*
X8279079Y3954729D01*
X8281263Y3958183D01*
X8284616Y3960571D01*
X8288629Y3961384D01*
X8317788Y3961384D01*
X8321700Y3960622D01*
X8324951Y3958386D01*
X8375142Y3908247D01*
X8377174Y3905351D01*
X8378088Y3901897D01*
X8377783Y3898392D01*
X8374125Y3885082D01*
X8372348Y3871722D01*
X8372348Y3858260D01*
X8374125Y3844899D01*
X8377681Y3831894D01*
X8382965Y3819499D01*
X8389823Y3807917D01*
X8398154Y3797300D01*
X8407857Y3787952D01*
X8418677Y3779977D01*
X8430514Y3773474D01*
X8443112Y3768648D01*
X8456218Y3765499D01*
X8469630Y3764178D01*
X8483092Y3764635D01*
X8496350Y3766870D01*
X8509254Y3770833D01*
X8521446Y3776522D01*
X8532825Y3783787D01*
X8543137Y3792474D01*
X8552180Y3802481D01*
X8559800Y3813556D01*
X8565845Y3825595D01*
X8570264Y3838346D01*
X8572957Y3851554D01*
X8573871Y3864965D01*
X8572957Y3878427D01*
X8570264Y3891635D01*
X8565845Y3904386D01*
X8559800Y3916426D01*
X8552180Y3927500D01*
X8543137Y3937508D01*
X8532825Y3946194D01*
X8521446Y3953459D01*
X8509254Y3959148D01*
X8496350Y3963111D01*
X8483092Y3965346D01*
X8469630Y3965803D01*
X8456218Y3964482D01*
X8443112Y3961333D01*
X8440674Y3960418D01*
X8436864Y3959758D01*
X8433104Y3960571D01*
X8429853Y3962704D01*
X8365642Y4026915D01*
X8359394Y4032046D01*
X8352739Y4035602D01*
X8345525Y4037787D01*
X8337499Y4038600D01*
X7992313Y4038600D01*
X7988401Y4039362D01*
X7985099Y4041597D01*
X7982864Y4044899D01*
X7982153Y4048810D01*
X7982915Y4052722D01*
X7985150Y4056024D01*
X7993176Y4063898D01*
X7998764Y4071874D01*
X8002930Y4080814D01*
X8005470Y4090263D01*
X8006334Y4100068D01*
X8005470Y4109872D01*
X8002930Y4119321D01*
X7998764Y4128262D01*
X7993176Y4136288D01*
X7985353Y4144010D01*
X7983118Y4147312D01*
X7982356Y4151172D01*
X7983118Y4155084D01*
X7985302Y4158386D01*
X7988604Y4160621D01*
X7992516Y4161383D01*
X8625789Y4161383D01*
X8629700Y4160621D01*
X8632952Y4158386D01*
X8883142Y3908247D01*
X8885174Y3905351D01*
X8886088Y3901897D01*
X8885783Y3898392D01*
X8882126Y3885082D01*
X8880348Y3871722D01*
X8880348Y3858260D01*
X8882126Y3844899D01*
X8885682Y3831894D01*
X8890965Y3819499D01*
X8897823Y3807917D01*
X8906154Y3797300D01*
X8915857Y3787952D01*
X8926677Y3779977D01*
X8938514Y3773474D01*
X8951112Y3768648D01*
X8964218Y3765499D01*
X8977630Y3764178D01*
X8991092Y3764635D01*
X9004350Y3766870D01*
X9017254Y3770833D01*
X9029446Y3776522D01*
X9040825Y3783787D01*
X9051137Y3792474D01*
X9060180Y3802481D01*
X9067800Y3813556D01*
X9073845Y3825595D01*
X9078264Y3838346D01*
X9080957Y3851554D01*
X9081871Y3864965D01*
X9080957Y3878427D01*
X9078264Y3891635D01*
X9073845Y3904386D01*
X9067800Y3916426D01*
X9060180Y3927500D01*
X9051137Y3937508D01*
X9040825Y3946194D01*
X9029446Y3953459D01*
X9017254Y3959148D01*
X9004350Y3963111D01*
X8991092Y3965346D01*
X8977630Y3965803D01*
X8964218Y3964482D01*
X8951112Y3961333D01*
X8948674Y3960418D01*
X8944864Y3959758D01*
X8941104Y3960571D01*
X8937853Y3962704D01*
X8673642Y4226915D01*
X8667394Y4232046D01*
X8660739Y4235602D01*
X8653526Y4237786D01*
X8645499Y4238599D01*
X4844999Y4238599D01*
X4841087Y4239361D01*
X4837785Y4241596D01*
X4836210Y4243171D01*
X4828184Y4248810D01*
X4820666Y4252264D01*
X4817567Y4254500D01*
X4815535Y4257751D01*
X4814824Y4261510D01*
X4815535Y4265218D01*
X4817567Y4268470D01*
X4820666Y4270705D01*
X4828184Y4274210D01*
X4836210Y4279849D01*
X4837785Y4281424D01*
X4841087Y4283608D01*
X4844999Y4284370D01*
X6222492Y4284370D01*
X6230518Y4285183D01*
X6237732Y4287367D01*
X6244386Y4290923D01*
X6250635Y4296054D01*
X6645452Y4690872D01*
X6648348Y4692904D01*
X6651752Y4693818D01*
X6659778Y4694478D01*
X6669278Y4697018D01*
X6678168Y4701184D01*
X6686194Y4706823D01*
X6693153Y4713782D01*
X6698792Y4721809D01*
X6702958Y4730699D01*
X6705498Y4740198D01*
X6706311Y4750003D01*
X6705498Y4759756D01*
X6702958Y4769256D01*
X6698792Y4778146D01*
X6693153Y4786223D01*
X6686194Y4793132D01*
X6678168Y4798771D01*
X6669278Y4802936D01*
X6659778Y4805476D01*
X6649974Y4806340D01*
X6640220Y4805476D01*
X6630720Y4802936D01*
X6621830Y4798771D01*
X6613753Y4793132D01*
X6606844Y4786223D01*
X6601206Y4778146D01*
X6597040Y4769256D01*
X6594500Y4759756D01*
X6593789Y4751781D01*
X6592874Y4748326D01*
X6590842Y4745482D01*
X6209995Y4364583D01*
X6206693Y4362348D01*
X6202781Y4361586D01*
X4844999Y4361586D01*
X4841087Y4362348D01*
X4837785Y4364583D01*
X4836210Y4366158D01*
X4828184Y4371797D01*
X4819243Y4375962D01*
X4809794Y4378502D01*
X4799990Y4379315D01*
X4790186Y4378502D01*
X4780737Y4375962D01*
X4771796Y4371797D01*
X4763770Y4366158D01*
X4756810Y4359198D01*
X4751171Y4351172D01*
X4747056Y4342282D01*
X4744262Y4331868D01*
X4742332Y4328109D01*
X4739081Y4325467D01*
X4734966Y4324350D01*
X4730800Y4325010D01*
X4727244Y4327296D01*
X4577638Y4476902D01*
X4571441Y4482033D01*
X4564735Y4485589D01*
X4557522Y4487773D01*
X4549495Y4488586D01*
X2544978Y4488586D01*
X2541117Y4489348D01*
X2537815Y4491583D01*
X2536240Y4493158D01*
X2528163Y4498797D01*
X2519273Y4502962D01*
X2509774Y4505502D01*
X2500020Y4506315D01*
X2490216Y4505502D01*
X2480716Y4502962D01*
X2471826Y4498797D01*
X2463749Y4493158D01*
X2456840Y4486198D01*
X2451201Y4478172D01*
X2447036Y4469282D01*
X2444496Y4459782D01*
X2443632Y4449978D01*
X2444496Y4440224D01*
X2447036Y4430725D01*
X2451201Y4421835D01*
X2456840Y4413758D01*
X2463749Y4406849D01*
X2471826Y4401210D01*
X2480716Y4397044D01*
X2490216Y4394504D01*
X2500020Y4393641D01*
X2509774Y4394504D01*
X2519273Y4397044D01*
X2528163Y4401210D01*
X2536240Y4406849D01*
X2537764Y4408373D01*
X2541066Y4410608D01*
X2544978Y4411370D01*
X4529785Y4411370D01*
X4533696Y4410608D01*
X4536998Y4408373D01*
X4740859Y4204512D01*
X4742891Y4201617D01*
X4743805Y4198213D01*
X4744516Y4190187D01*
X4747056Y4180738D01*
X4751171Y4171797D01*
X4756810Y4163771D01*
X4764633Y4156049D01*
X4766818Y4152747D01*
X4767630Y4148886D01*
X4766868Y4144975D01*
X4764684Y4141673D01*
X4761382Y4139437D01*
X4757470Y4138676D01*
X4145076Y4138676D01*
X4141165Y4139437D01*
X4137863Y4141673D01*
X4136288Y4143248D01*
X4128262Y4148886D01*
X4119321Y4153001D01*
X4109872Y4155541D01*
X4100068Y4156405D01*
X4090263Y4155541D01*
X4080814Y4153001D01*
X4071874Y4148886D01*
X4063847Y4143248D01*
X4056887Y4136288D01*
X4051249Y4128262D01*
X4047134Y4119321D01*
X4044594Y4109872D01*
X4043730Y4100068D01*
X4044594Y4090263D01*
X4047134Y4080814D01*
X4051249Y4071874D01*
X4056887Y4063898D01*
X4064863Y4056024D01*
X4067098Y4052722D01*
X4067911Y4048810D01*
X4067149Y4044899D01*
X4064965Y4041597D01*
X4061663Y4039362D01*
X4057751Y4038600D01*
X2550515Y4038600D01*
X2542489Y4037787D01*
X2535224Y4035602D01*
X2528570Y4032046D01*
X2522321Y4026915D01*
X2504541Y4009136D01*
X2501646Y4007104D01*
X2498242Y4006189D01*
X2490216Y4005478D01*
X2480716Y4002938D01*
X2471826Y3998772D01*
X2463749Y3993134D01*
X2456840Y3986225D01*
X2451201Y3978148D01*
X2447036Y3969258D01*
X2444496Y3959758D01*
X2443632Y3950004D01*
X2444496Y3940200D01*
X2447036Y3930700D01*
X2451201Y3921810D01*
X2456840Y3913784D01*
X2463749Y3906824D01*
X2471826Y3901186D01*
X2480716Y3897020D01*
X2490216Y3894480D01*
X2500020Y3893667D01*
X2509774Y3894480D01*
X2519273Y3897020D01*
X2528163Y3901186D01*
X2536240Y3906824D01*
X2543149Y3913784D01*
X2548788Y3921810D01*
X2552954Y3930700D01*
X2555494Y3940200D01*
X2556205Y3948226D01*
X2557119Y3951630D01*
X2559151Y3954526D01*
X2563012Y3958386D01*
X2566314Y3960622D01*
X2570175Y3961384D01*
X3795217Y3961384D01*
X3799332Y3960520D01*
X3802735Y3958031D01*
X3804869Y3954373D01*
X3805326Y3950208D01*
X3804056Y3946194D01*
X3801211Y3943045D01*
X3799840Y3942029D01*
X3790187Y3932682D01*
X3781806Y3922064D01*
X3774948Y3910482D01*
X3769664Y3898087D01*
X3766108Y3885082D01*
X3764330Y3871722D01*
X3764330Y3858260D01*
X3766108Y3844899D01*
X3769664Y3831894D01*
X3774948Y3819499D01*
X3781806Y3807917D01*
X3784041Y3805072D01*
X3786022Y3800957D01*
X3785971Y3796487D01*
X3784041Y3792423D01*
X3780485Y3789578D01*
X3776065Y3788613D01*
X2408478Y3788613D01*
X2404160Y3789578D01*
X2400655Y3792270D01*
X2398623Y3796233D01*
X2398471Y3800652D01*
X2399995Y3808476D01*
X2400909Y3823004D01*
X2399995Y3837533D01*
X2397252Y3851808D01*
X2392781Y3865676D01*
X2386584Y3878834D01*
X2378760Y3891127D01*
X2369464Y3902354D01*
X2358898Y3912311D01*
X2347112Y3920845D01*
X2334361Y3927856D01*
X2320798Y3933240D01*
X2306726Y3936847D01*
X2292299Y3938676D01*
X2277719Y3938676D01*
X2263292Y3936847D01*
X2249220Y3933240D01*
X2235657Y3927856D01*
X2222906Y3920845D01*
X2211120Y3912311D01*
X2200503Y3902354D01*
X2191258Y3891127D01*
X2183434Y3878834D01*
X2177237Y3865676D01*
X2172766Y3851808D01*
X2170023Y3837533D01*
X2169109Y3823004D01*
X2170023Y3808476D01*
X2172766Y3794201D01*
X2177237Y3780332D01*
X2183434Y3767175D01*
X2191715Y3754221D01*
X2193188Y3750157D01*
X2192883Y3745890D01*
X2190800Y3742080D01*
X2187346Y3739540D01*
X2183130Y3738575D01*
X2132888Y3738575D01*
X2128672Y3739540D01*
X2125218Y3742080D01*
X2123135Y3745890D01*
X2122830Y3750157D01*
X2124303Y3754221D01*
X2132584Y3767175D01*
X2138781Y3780332D01*
X2143252Y3794201D01*
X2145995Y3808476D01*
X2146909Y3823004D01*
X2145995Y3837533D01*
X2143252Y3851808D01*
X2138781Y3865676D01*
X2137460Y3870350D01*
X2138172Y3874414D01*
X2140458Y3877818D01*
X2176932Y3914343D01*
X2182063Y3920591D01*
X2185619Y3927246D01*
X2187803Y3934460D01*
X2188616Y3942486D01*
X2188616Y3985412D01*
X2189378Y3989222D01*
X2191512Y3992524D01*
X2194712Y3994708D01*
X2198573Y3995572D01*
X2202383Y3994861D01*
X2205736Y3992778D01*
X2211120Y3987698D01*
X2222906Y3979164D01*
X2235657Y3972153D01*
X2249220Y3966768D01*
X2263292Y3963162D01*
X2277719Y3961333D01*
X2292299Y3961333D01*
X2306726Y3963162D01*
X2320798Y3966768D01*
X2334361Y3972153D01*
X2347112Y3979164D01*
X2358898Y3987698D01*
X2369464Y3997655D01*
X2378760Y4008882D01*
X2386584Y4021175D01*
X2392781Y4034332D01*
X2397252Y4048201D01*
X2399995Y4062476D01*
X2400909Y4077004D01*
X2399995Y4091533D01*
X2397252Y4105808D01*
X2392781Y4119676D01*
X2386584Y4132834D01*
X2378760Y4145127D01*
X2369464Y4156354D01*
X2358898Y4166311D01*
X2347112Y4174845D01*
X2334361Y4181856D01*
X2330043Y4183583D01*
X2326640Y4185767D01*
X2324404Y4189069D01*
X2323592Y4193032D01*
X2323592Y4201922D01*
X2324404Y4205833D01*
X2326589Y4209135D01*
X2329891Y4211320D01*
X2333752Y4212082D01*
X2369413Y4212082D01*
X2375763Y4212793D01*
X2381199Y4214723D01*
X2386126Y4217771D01*
X2390190Y4221886D01*
X2393289Y4226763D01*
X2395169Y4232249D01*
X2395880Y4238548D01*
X2395880Y4407408D01*
X2395169Y4413758D01*
X2393289Y4419193D01*
X2390190Y4424121D01*
X2386126Y4428185D01*
X2381199Y4431284D01*
X2375763Y4433214D01*
X2369413Y4433925D01*
X2200554Y4433925D01*
X2195677Y4434230D01*
X2191969Y4436364D01*
X2189480Y4439767D01*
X2188616Y4443933D01*
X2188616Y4449470D01*
X2187803Y4457496D01*
X2185619Y4464761D01*
X2182063Y4471416D01*
X2176932Y4477664D01*
X2134158Y4520438D01*
X2131872Y4523943D01*
X2131161Y4528007D01*
X2132177Y4532020D01*
X2133752Y4535373D01*
X2138273Y4548886D01*
X2140966Y4562805D01*
X2141880Y4576978D01*
X2140966Y4591202D01*
X2138273Y4605121D01*
X2134108Y4617567D01*
X2133600Y4621276D01*
X2134463Y4624882D01*
X2136597Y4627981D01*
X2367026Y4858410D01*
X2370328Y4860594D01*
X2374188Y4861356D01*
X6954977Y4861356D01*
X6958888Y4860594D01*
X6962190Y4858410D01*
X6963765Y4856835D01*
X6971792Y4851196D01*
X6980732Y4847031D01*
X6990181Y4844491D01*
X6999986Y4843627D01*
X7009790Y4844491D01*
X7019239Y4847031D01*
X7028180Y4851196D01*
X7036206Y4856835D01*
X7043166Y4863744D01*
X7048804Y4871821D01*
X7052919Y4880711D01*
X7055459Y4890211D01*
X7056323Y4899964D01*
X7055459Y4909769D01*
X7052919Y4919268D01*
X7048804Y4928158D01*
X7045756Y4932476D01*
X7044080Y4936540D01*
X7044283Y4940960D01*
X7046315Y4944872D01*
X7049770Y4947513D01*
X7054088Y4948478D01*
X8324596Y4948478D01*
X8332622Y4949291D01*
X8339836Y4951476D01*
X8346541Y4955032D01*
X8352739Y4960162D01*
X8429853Y5037277D01*
X8433104Y5039410D01*
X8436864Y5040223D01*
X8440674Y5039563D01*
X8443112Y5038648D01*
X8456218Y5035499D01*
X8469630Y5034178D01*
X8483092Y5034635D01*
X8496350Y5036870D01*
X8509254Y5040833D01*
X8521446Y5046522D01*
X8532825Y5053787D01*
X8543137Y5062474D01*
X8552180Y5072481D01*
X8559800Y5083556D01*
X8565845Y5095595D01*
X8570264Y5108346D01*
X8572957Y5121554D01*
X8573871Y5134965D01*
X8572957Y5148427D01*
X8570264Y5161635D01*
X8565845Y5174386D01*
X8559800Y5186426D01*
X8552180Y5197500D01*
X8543137Y5207508D01*
X8532825Y5216194D01*
X8521446Y5223459D01*
X8509254Y5229148D01*
X8496350Y5233111D01*
X8483092Y5235346D01*
X8469630Y5235803D01*
X8456218Y5234482D01*
X8443112Y5231333D01*
X8430514Y5226507D01*
X8418677Y5220004D01*
X8407857Y5212029D01*
X8398154Y5202682D01*
X8389823Y5192064D01*
X8382965Y5180482D01*
X8377681Y5168087D01*
X8374125Y5155082D01*
X8372348Y5141722D01*
X8372348Y5128260D01*
X8374125Y5114899D01*
X8377783Y5101590D01*
X8378088Y5098084D01*
X8377174Y5094630D01*
X8375142Y5091734D01*
X8312099Y5028692D01*
X8308797Y5026456D01*
X8304885Y5025694D01*
X8268614Y5025694D01*
X8264804Y5026456D01*
X8261553Y5028590D01*
X8259318Y5031790D01*
X8258505Y5035600D01*
X8259114Y5039461D01*
X8261197Y5042763D01*
X8264347Y5045100D01*
X8267446Y5046522D01*
X8278825Y5053787D01*
X8289137Y5062474D01*
X8298180Y5072481D01*
X8305800Y5083556D01*
X8311845Y5095595D01*
X8316264Y5108346D01*
X8318957Y5121554D01*
X8319871Y5134965D01*
X8318957Y5148427D01*
X8316264Y5161635D01*
X8311845Y5174386D01*
X8305800Y5186426D01*
X8298180Y5197500D01*
X8289137Y5207508D01*
X8278825Y5216194D01*
X8267446Y5223459D01*
X8255253Y5229148D01*
X8242350Y5233111D01*
X8229092Y5235346D01*
X8215630Y5235803D01*
X8202218Y5234482D01*
X8189112Y5231333D01*
X8186674Y5230418D01*
X8182864Y5229758D01*
X8179104Y5230571D01*
X8175853Y5232704D01*
X8131657Y5276951D01*
X8125409Y5282031D01*
X8118754Y5285638D01*
X8111540Y5287822D01*
X8103514Y5288584D01*
X2400503Y5288584D01*
X2392476Y5287822D01*
X2385263Y5285638D01*
X2378557Y5282031D01*
X2372360Y5276951D01*
X1786178Y4690770D01*
X1783029Y4688636D01*
X1779320Y4687773D01*
X1766366Y4687366D01*
X1752295Y4685131D01*
X1738680Y4681067D01*
X1725726Y4675327D01*
X1713534Y4667961D01*
X1702460Y4659071D01*
X1692554Y4648860D01*
X1684070Y4637481D01*
X1677111Y4625136D01*
X1671777Y4611928D01*
X1668170Y4598212D01*
X1666341Y4584090D01*
X1666341Y4569917D01*
X1668170Y4555794D01*
X1671777Y4542078D01*
X1677111Y4528870D01*
X1684070Y4516526D01*
X1692554Y4505096D01*
X1702460Y4494936D01*
X1713534Y4486046D01*
X1725726Y4478680D01*
X1738680Y4472940D01*
X1752295Y4468876D01*
X1766366Y4466640D01*
X1780539Y4466183D01*
X1794713Y4467555D01*
X1808530Y4470704D01*
X1814271Y4472787D01*
X1818030Y4473397D01*
X1821789Y4472584D01*
X1824939Y4470450D01*
X1858416Y4436973D01*
X1860600Y4433671D01*
X1861413Y4429810D01*
X1861413Y4418533D01*
X1860448Y4414215D01*
X1857756Y4410760D01*
X1853844Y4408728D01*
X1849475Y4408525D01*
X1845411Y4410202D01*
X1834489Y4417822D01*
X1821891Y4424375D01*
X1808530Y4429302D01*
X1794713Y4432452D01*
X1780539Y4433824D01*
X1766366Y4433366D01*
X1752295Y4431131D01*
X1738680Y4427067D01*
X1725726Y4421327D01*
X1713534Y4413961D01*
X1705102Y4407204D01*
X1701749Y4405426D01*
X1697989Y4405020D01*
X1694332Y4405985D01*
X1691335Y4408220D01*
X1689303Y4411421D01*
X1688592Y4415129D01*
X1688592Y4449470D01*
X1687830Y4457496D01*
X1685645Y4464761D01*
X1682038Y4471416D01*
X1676958Y4477664D01*
X1628546Y4526026D01*
X1626463Y4529074D01*
X1625600Y4532731D01*
X1626107Y4536389D01*
X1630273Y4548886D01*
X1632966Y4562805D01*
X1633880Y4576978D01*
X1632966Y4591202D01*
X1630273Y4605121D01*
X1625752Y4618634D01*
X1619605Y4631436D01*
X1611833Y4643323D01*
X1602638Y4654143D01*
X1592122Y4663694D01*
X1580489Y4671822D01*
X1567891Y4678375D01*
X1554530Y4683302D01*
X1540713Y4686452D01*
X1526540Y4687824D01*
X1512366Y4687366D01*
X1498295Y4685131D01*
X1484680Y4681067D01*
X1471726Y4675327D01*
X1459534Y4667961D01*
X1448460Y4659071D01*
X1438554Y4648860D01*
X1430070Y4637481D01*
X1423111Y4625136D01*
X1417777Y4611928D01*
X1414170Y4598212D01*
X1412341Y4584090D01*
X1412341Y4569917D01*
X1414170Y4555794D01*
X1417777Y4542078D01*
X1423111Y4528870D01*
X1430070Y4516526D01*
X1438554Y4505096D01*
X1448460Y4494936D01*
X1459534Y4486046D01*
X1471726Y4478680D01*
X1484680Y4472940D01*
X1498295Y4468876D01*
X1512366Y4466640D01*
X1526540Y4466183D01*
X1540713Y4467555D01*
X1554530Y4470704D01*
X1563166Y4473854D01*
X1566976Y4474514D01*
X1570685Y4473651D01*
X1573885Y4471517D01*
X1608429Y4436973D01*
X1610614Y4433671D01*
X1611376Y4429810D01*
X1611376Y4415180D01*
X1610664Y4411319D01*
X1608531Y4408068D01*
X1605330Y4405884D01*
X1601571Y4405020D01*
X1597710Y4405630D01*
X1594408Y4407611D01*
X1592122Y4409694D01*
X1580489Y4417822D01*
X1567891Y4424375D01*
X1554530Y4429302D01*
X1540713Y4432452D01*
X1526540Y4433824D01*
X1512366Y4433366D01*
X1498295Y4431131D01*
X1484680Y4427067D01*
X1471726Y4421327D01*
X1459534Y4413961D01*
X1455115Y4410405D01*
X1451762Y4408627D01*
X1448003Y4408220D01*
X1444345Y4409186D01*
X1441297Y4411421D01*
X1439316Y4414621D01*
X1438605Y4418330D01*
X1438605Y4449470D01*
X1437792Y4457496D01*
X1435608Y4464761D01*
X1432052Y4471416D01*
X1426921Y4477664D01*
X1375562Y4529023D01*
X1373479Y4532071D01*
X1372616Y4535728D01*
X1373124Y4539386D01*
X1376273Y4548886D01*
X1378966Y4562805D01*
X1379880Y4576978D01*
X1378966Y4591202D01*
X1376273Y4605121D01*
X1371752Y4618634D01*
X1365605Y4631436D01*
X1357833Y4643323D01*
X1348638Y4654143D01*
X1338122Y4663694D01*
X1326489Y4671822D01*
X1313891Y4678375D01*
X1300530Y4683302D01*
X1286713Y4686452D01*
X1272540Y4687824D01*
X1258366Y4687366D01*
X1244295Y4685131D01*
X1230680Y4681067D01*
X1217726Y4675327D01*
X1205534Y4667961D01*
X1194460Y4659071D01*
X1184554Y4648860D01*
X1176070Y4637481D01*
X1169111Y4625136D01*
X1163777Y4611928D01*
X1160170Y4598212D01*
X1158341Y4584090D01*
X1158341Y4569917D01*
X1160170Y4555794D01*
X1163777Y4542078D01*
X1169111Y4528870D01*
X1176070Y4516526D01*
X1184554Y4505096D01*
X1194460Y4494936D01*
X1205534Y4486046D01*
X1217726Y4478680D01*
X1230680Y4472940D01*
X1244295Y4468876D01*
X1258366Y4466640D01*
X1272540Y4466183D01*
X1286713Y4467555D01*
X1300530Y4470704D01*
X1312113Y4474972D01*
X1315872Y4475581D01*
X1319631Y4474768D01*
X1322781Y4472584D01*
X1358392Y4436973D01*
X1360627Y4433671D01*
X1361389Y4429810D01*
X1361389Y4411522D01*
X1360627Y4407712D01*
X1358544Y4404461D01*
X1355344Y4402226D01*
X1351534Y4401362D01*
X1347724Y4401972D01*
X1344422Y4404004D01*
X1338122Y4409694D01*
X1326489Y4417822D01*
X1313891Y4424375D01*
X1300530Y4429302D01*
X1286713Y4432452D01*
X1272540Y4433824D01*
X1258366Y4433366D01*
X1244295Y4431131D01*
X1230680Y4427067D01*
X1217726Y4421327D01*
X1205077Y4413605D01*
X1201775Y4411827D01*
X1198016Y4411421D01*
X1194358Y4412386D01*
X1191310Y4414621D01*
X1189329Y4417822D01*
X1188618Y4421530D01*
X1188618Y4449470D01*
X1187805Y4457496D01*
X1185621Y4464761D01*
X1182065Y4471416D01*
X1176934Y4477664D01*
X1122578Y4532020D01*
X1120444Y4535119D01*
X1119581Y4538726D01*
X1120089Y4542434D01*
X1122273Y4548886D01*
X1124966Y4562805D01*
X1125880Y4576978D01*
X1124966Y4591202D01*
X1122273Y4605121D01*
X1117752Y4618634D01*
X1111605Y4631436D01*
X1103833Y4643323D01*
X1094638Y4654143D01*
X1084122Y4663694D01*
X1072489Y4671822D01*
X1059891Y4678375D01*
X1046530Y4683302D01*
X1032713Y4686452D01*
X1018540Y4687824D01*
X1004366Y4687366D01*
X990295Y4685131D01*
X976680Y4681067D01*
X963726Y4675327D01*
X951534Y4667961D01*
X940460Y4659071D01*
X930554Y4648860D01*
X922070Y4637481D01*
X915111Y4625136D01*
X909777Y4611928D01*
X906170Y4598212D01*
X904341Y4584090D01*
X904341Y4569917D01*
X906170Y4555794D01*
X909777Y4542078D01*
X915111Y4528870D01*
X922070Y4516526D01*
X930554Y4505096D01*
X940460Y4494936D01*
X951534Y4486046D01*
X963726Y4478680D01*
X976680Y4472940D01*
X990295Y4468876D01*
X1004366Y4466640D01*
X1018540Y4466183D01*
X1032713Y4467555D01*
X1046530Y4470704D01*
X1060907Y4476038D01*
X1064717Y4476699D01*
X1068476Y4475886D01*
X1071676Y4473752D01*
X1108405Y4436973D01*
X1110640Y4433671D01*
X1111402Y4429810D01*
X1111402Y4407865D01*
X1110640Y4404055D01*
X1108506Y4400804D01*
X1105357Y4398619D01*
X1101547Y4397756D01*
X1097737Y4398365D01*
X1094384Y4400346D01*
X1084122Y4409694D01*
X1072489Y4417822D01*
X1059891Y4424375D01*
X1046530Y4429302D01*
X1032713Y4432452D01*
X1018540Y4433824D01*
X1004366Y4433366D01*
X990295Y4431131D01*
X976680Y4427067D01*
X963726Y4421327D01*
X951534Y4413961D01*
X940460Y4405071D01*
X930554Y4394860D01*
X922070Y4383481D01*
X915111Y4371136D01*
X909777Y4357928D01*
X906170Y4344212D01*
X904341Y4330090D01*
X904341Y4315917D01*
X906170Y4301794D01*
X909777Y4288078D01*
X915111Y4274870D01*
X922070Y4262526D01*
X930554Y4251096D01*
X940460Y4240936D01*
X951534Y4232046D01*
X963726Y4224680D01*
X970330Y4221734D01*
X973531Y4219549D01*
X975664Y4216247D01*
X976376Y4212437D01*
X976376Y4203090D01*
X975614Y4199178D01*
X973429Y4195876D01*
X970127Y4193692D01*
X966216Y4192930D01*
X925576Y4192930D01*
X919276Y4192219D01*
X913790Y4190288D01*
X908913Y4187190D01*
X904798Y4183126D01*
X901700Y4178198D01*
X899820Y4172762D01*
X899109Y4166412D01*
X899109Y3987596D01*
X899820Y3981246D01*
X901700Y3975811D01*
X904798Y3970883D01*
X908913Y3966819D01*
X913790Y3963720D01*
X919276Y3961790D01*
X925576Y3961079D01*
X1073962Y3961079D01*
X1077874Y3960317D01*
X1081176Y3958132D01*
X1083360Y3954830D01*
X1084122Y3950919D01*
X1083360Y3947058D01*
X1081176Y3943756D01*
X1069746Y3932326D01*
X1066495Y3930142D01*
X1062634Y3929329D01*
X1058824Y3930040D01*
X1050798Y3933240D01*
X1036726Y3936847D01*
X1022299Y3938676D01*
X1007719Y3938676D01*
X993292Y3936847D01*
X979220Y3933240D01*
X965657Y3927856D01*
X952906Y3920845D01*
X941120Y3912311D01*
X930503Y3902354D01*
X921258Y3891127D01*
X913434Y3878834D01*
X907237Y3865676D01*
X902766Y3851808D01*
X900023Y3837533D01*
X899109Y3823004D01*
X900023Y3808476D01*
X902766Y3794201D01*
X907237Y3780332D01*
X913434Y3767175D01*
X921258Y3754882D01*
X930503Y3743655D01*
X941120Y3733698D01*
X952906Y3725164D01*
X965657Y3718153D01*
X979220Y3712768D01*
X993292Y3709162D01*
X1007719Y3707333D01*
X1022299Y3707333D01*
X1036726Y3709162D01*
X1050798Y3712768D01*
X1064361Y3718153D01*
X1077112Y3725164D01*
X1088898Y3733698D01*
X1099464Y3743655D01*
X1108760Y3754882D01*
X1116584Y3767175D01*
X1122781Y3780332D01*
X1127252Y3794201D01*
X1129995Y3808476D01*
X1130909Y3823004D01*
X1129995Y3837533D01*
X1127252Y3851808D01*
X1122781Y3865676D01*
X1121460Y3870350D01*
X1122172Y3874414D01*
X1124458Y3877818D01*
X1176934Y3930345D01*
X1182065Y3936593D01*
X1185621Y3943248D01*
X1187805Y3950462D01*
X1188618Y3958488D01*
X1188618Y3972509D01*
X1189583Y3976827D01*
X1192276Y3980332D01*
X1196238Y3982364D01*
X1200658Y3982516D01*
X1204722Y3980738D01*
X1206906Y3979164D01*
X1219657Y3972153D01*
X1233220Y3966768D01*
X1247292Y3963162D01*
X1261719Y3961333D01*
X1276299Y3961333D01*
X1290726Y3963162D01*
X1304798Y3966768D01*
X1318361Y3972153D01*
X1331112Y3979164D01*
X1342898Y3987698D01*
X1344269Y3989019D01*
X1347571Y3991101D01*
X1351432Y3991762D01*
X1355242Y3990949D01*
X1358493Y3988714D01*
X1360627Y3985463D01*
X1361389Y3981602D01*
X1361389Y3974185D01*
X1360627Y3970324D01*
X1358392Y3967022D01*
X1323746Y3932326D01*
X1320495Y3930142D01*
X1316634Y3929329D01*
X1312824Y3930040D01*
X1304798Y3933240D01*
X1290726Y3936847D01*
X1276299Y3938676D01*
X1261719Y3938676D01*
X1247292Y3936847D01*
X1233220Y3933240D01*
X1219657Y3927856D01*
X1206906Y3920845D01*
X1195120Y3912311D01*
X1184503Y3902354D01*
X1175258Y3891127D01*
X1167434Y3878834D01*
X1161237Y3865676D01*
X1156766Y3851808D01*
X1154023Y3837533D01*
X1153109Y3823004D01*
X1154023Y3808476D01*
X1156766Y3794201D01*
X1161237Y3780332D01*
X1167434Y3767175D01*
X1175258Y3754882D01*
X1184503Y3743655D01*
X1195120Y3733698D01*
X1206906Y3725164D01*
X1219657Y3718153D01*
X1233220Y3712768D01*
X1247292Y3709162D01*
X1261719Y3707333D01*
X1276299Y3707333D01*
X1290726Y3709162D01*
X1304798Y3712768D01*
X1318514Y3718204D01*
X1322374Y3718915D01*
X1326184Y3718153D01*
X1329436Y3715969D01*
X1352143Y3693261D01*
X1354328Y3689959D01*
X1355140Y3686048D01*
X1354328Y3682187D01*
X1352143Y3678885D01*
X1348841Y3676650D01*
X1344980Y3675887D01*
G37*

%LPC*%
G36*
X8977630Y5034178D02*
G01*
X8991092Y5034635D01*
X9004350Y5036870D01*
X9017254Y5040833D01*
X9029446Y5046522D01*
X9040825Y5053787D01*
X9051137Y5062474D01*
X9060180Y5072481D01*
X9067800Y5083556D01*
X9073845Y5095595D01*
X9078264Y5108346D01*
X9080957Y5121554D01*
X9081871Y5134965D01*
X9080957Y5148427D01*
X9078264Y5161635D01*
X9073845Y5174386D01*
X9067800Y5186426D01*
X9060180Y5197500D01*
X9051137Y5207508D01*
X9040825Y5216194D01*
X9029446Y5223459D01*
X9017254Y5229148D01*
X9004350Y5233111D01*
X8991092Y5235346D01*
X8977630Y5235803D01*
X8964218Y5234482D01*
X8951112Y5231333D01*
X8938514Y5226507D01*
X8926677Y5220004D01*
X8915857Y5212029D01*
X8906154Y5202682D01*
X8897823Y5192064D01*
X8890965Y5180482D01*
X8885682Y5168087D01*
X8882126Y5155082D01*
X8880348Y5141722D01*
X8880348Y5128260D01*
X8882126Y5114899D01*
X8885682Y5101894D01*
X8890965Y5089499D01*
X8897823Y5077917D01*
X8906154Y5067300D01*
X8915857Y5057952D01*
X8926677Y5049977D01*
X8938514Y5043474D01*
X8951112Y5038648D01*
X8964218Y5035499D01*
G37*
G36*
X10707065Y3851351D02*
G01*
X10771632Y3851351D01*
X10771632Y3915918D01*
X10733532Y3915918D01*
X10727232Y3915206D01*
X10721746Y3913276D01*
X10716869Y3910177D01*
X10712754Y3906113D01*
X10709706Y3901186D01*
X10707776Y3895750D01*
X10707065Y3889400D01*
G37*
G36*
X10874349Y3851351D02*
G01*
X10938865Y3851351D01*
X10938865Y3889400D01*
X10938154Y3895750D01*
X10936274Y3901186D01*
X10933176Y3906113D01*
X10929112Y3910177D01*
X10924184Y3913276D01*
X10918748Y3915206D01*
X10912398Y3915918D01*
X10874349Y3915918D01*
G37*
G36*
X10987532Y4434078D02*
G01*
X11166398Y4434078D01*
X11172748Y4434789D01*
X11178184Y4436719D01*
X11183112Y4439767D01*
X11187176Y4443882D01*
X11190274Y4448759D01*
X11192154Y4454245D01*
X11192865Y4460544D01*
X11192865Y4639411D01*
X11192154Y4645761D01*
X11190274Y4651197D01*
X11187176Y4656124D01*
X11183112Y4660188D01*
X11178184Y4663287D01*
X11172748Y4665167D01*
X11166398Y4665878D01*
X10987532Y4665878D01*
X10981232Y4665167D01*
X10975746Y4663287D01*
X10970869Y4660188D01*
X10966754Y4656124D01*
X10963706Y4651197D01*
X10961776Y4645761D01*
X10961065Y4639411D01*
X10961065Y4460544D01*
X10961776Y4454245D01*
X10963706Y4448759D01*
X10966754Y4443882D01*
X10970869Y4439767D01*
X10975746Y4436719D01*
X10981232Y4434789D01*
G37*
G36*
X10771632Y4446219D02*
G01*
X10771632Y4498644D01*
X10719308Y4498644D01*
X10721441Y4494174D01*
X10729214Y4481880D01*
X10738510Y4470654D01*
X10749127Y4460697D01*
X10760913Y4452162D01*
G37*
G36*
X9231630Y3764178D02*
G01*
X9245092Y3764635D01*
X9258350Y3766870D01*
X9271254Y3770833D01*
X9283446Y3776522D01*
X9294825Y3783787D01*
X9305137Y3792474D01*
X9314180Y3802481D01*
X9321800Y3813556D01*
X9327845Y3825595D01*
X9332264Y3838346D01*
X9334957Y3851554D01*
X9335871Y3864965D01*
X9334957Y3878427D01*
X9332264Y3891635D01*
X9327845Y3904386D01*
X9321800Y3916426D01*
X9314180Y3927500D01*
X9305137Y3937508D01*
X9294825Y3946194D01*
X9283446Y3953459D01*
X9271254Y3959148D01*
X9258350Y3963111D01*
X9245092Y3965346D01*
X9231630Y3965803D01*
X9218218Y3964482D01*
X9205112Y3961333D01*
X9192514Y3956507D01*
X9180677Y3950004D01*
X9169857Y3942029D01*
X9160154Y3932682D01*
X9151823Y3922064D01*
X9144965Y3910482D01*
X9139682Y3898087D01*
X9136126Y3885082D01*
X9134348Y3871722D01*
X9134348Y3858260D01*
X9136126Y3844899D01*
X9139682Y3831894D01*
X9144965Y3819499D01*
X9151823Y3807917D01*
X9160154Y3797300D01*
X9169857Y3787952D01*
X9180677Y3779977D01*
X9192514Y3773474D01*
X9205112Y3768648D01*
X9218218Y3765499D01*
G37*
G36*
X2288540Y4466183D02*
G01*
X2302713Y4467555D01*
X2316530Y4470704D01*
X2329891Y4475581D01*
X2342489Y4482185D01*
X2354122Y4490313D01*
X2364638Y4499864D01*
X2373833Y4510684D01*
X2381605Y4522571D01*
X2387752Y4535373D01*
X2392273Y4548886D01*
X2394966Y4562805D01*
X2395880Y4576978D01*
X2394966Y4591202D01*
X2392273Y4605121D01*
X2387752Y4618634D01*
X2381605Y4631436D01*
X2373833Y4643323D01*
X2364638Y4654143D01*
X2354122Y4663694D01*
X2342489Y4671822D01*
X2329891Y4678375D01*
X2316530Y4683302D01*
X2302713Y4686452D01*
X2288540Y4687824D01*
X2274366Y4687366D01*
X2260295Y4685131D01*
X2246680Y4681067D01*
X2233726Y4675327D01*
X2221534Y4667961D01*
X2210460Y4659071D01*
X2200554Y4648860D01*
X2192070Y4637481D01*
X2185111Y4625136D01*
X2179777Y4611928D01*
X2176170Y4598212D01*
X2174341Y4584090D01*
X2174341Y4569917D01*
X2176170Y4555794D01*
X2179777Y4542078D01*
X2185111Y4528870D01*
X2192070Y4516526D01*
X2200554Y4505096D01*
X2210460Y4494936D01*
X2221534Y4486046D01*
X2233726Y4478680D01*
X2246680Y4472940D01*
X2260295Y4468876D01*
X2274366Y4466640D01*
G37*
G36*
X10874349Y4601362D02*
G01*
X10926673Y4601362D01*
X10924540Y4605832D01*
X10916767Y4618126D01*
X10907471Y4629302D01*
X10896854Y4639259D01*
X10885068Y4647844D01*
X10874349Y4653737D01*
G37*
G36*
X10719308Y4601362D02*
G01*
X10771632Y4601362D01*
X10771632Y4653737D01*
X10760913Y4647844D01*
X10749127Y4639259D01*
X10738510Y4629302D01*
X10729214Y4618126D01*
X10721441Y4605832D01*
G37*
G36*
X9231630Y5034178D02*
G01*
X9245092Y5034635D01*
X9258350Y5036870D01*
X9271254Y5040833D01*
X9283446Y5046522D01*
X9294825Y5053787D01*
X9305137Y5062474D01*
X9314180Y5072481D01*
X9321800Y5083556D01*
X9327845Y5095595D01*
X9332264Y5108346D01*
X9334957Y5121554D01*
X9335871Y5134965D01*
X9334957Y5148427D01*
X9332264Y5161635D01*
X9327845Y5174386D01*
X9321800Y5186426D01*
X9314180Y5197500D01*
X9305137Y5207508D01*
X9294825Y5216194D01*
X9283446Y5223459D01*
X9271254Y5229148D01*
X9258350Y5233111D01*
X9245092Y5235346D01*
X9231630Y5235803D01*
X9218218Y5234482D01*
X9205112Y5231333D01*
X9192514Y5226507D01*
X9180677Y5220004D01*
X9169857Y5212029D01*
X9160154Y5202682D01*
X9151823Y5192064D01*
X9144965Y5180482D01*
X9139682Y5168087D01*
X9136126Y5155082D01*
X9134348Y5141722D01*
X9134348Y5128260D01*
X9136126Y5114899D01*
X9139682Y5101894D01*
X9144965Y5089499D01*
X9151823Y5077917D01*
X9160154Y5067300D01*
X9169857Y5057952D01*
X9180677Y5049977D01*
X9192514Y5043474D01*
X9205112Y5038648D01*
X9218218Y5035499D01*
G37*
G36*
X8723630Y5034178D02*
G01*
X8737092Y5034635D01*
X8750350Y5036870D01*
X8763254Y5040833D01*
X8775446Y5046522D01*
X8786825Y5053787D01*
X8797137Y5062474D01*
X8806180Y5072481D01*
X8813800Y5083556D01*
X8819845Y5095595D01*
X8824264Y5108346D01*
X8826957Y5121554D01*
X8827871Y5134965D01*
X8826957Y5148427D01*
X8824264Y5161635D01*
X8819845Y5174386D01*
X8813800Y5186426D01*
X8806180Y5197500D01*
X8797137Y5207508D01*
X8786825Y5216194D01*
X8775446Y5223459D01*
X8763254Y5229148D01*
X8750350Y5233111D01*
X8737092Y5235346D01*
X8723630Y5235803D01*
X8710218Y5234482D01*
X8697112Y5231333D01*
X8684514Y5226507D01*
X8672677Y5220004D01*
X8661857Y5212029D01*
X8652154Y5202682D01*
X8643823Y5192064D01*
X8636965Y5180482D01*
X8631682Y5168087D01*
X8628126Y5155082D01*
X8626348Y5141722D01*
X8626348Y5128260D01*
X8628126Y5114899D01*
X8631682Y5101894D01*
X8636965Y5089499D01*
X8643823Y5077917D01*
X8652154Y5067300D01*
X8661857Y5057952D01*
X8672677Y5049977D01*
X8684514Y5043474D01*
X8697112Y5038648D01*
X8710218Y5035499D01*
G37*
G36*
X10874349Y4446219D02*
G01*
X10885068Y4452162D01*
X10896854Y4460697D01*
X10907471Y4470654D01*
X10916767Y4481880D01*
X10924540Y4494174D01*
X10926673Y4498644D01*
X10874349Y4498644D01*
G37*

%LPD*%
D10*
X1015001Y4322991D02*
G01*
X1014999Y4076992D01*
X1268999Y4076992D02*
G01*
X1268999Y4322988D01*
X1523001Y4322991D02*
G01*
X1523001Y4076994D01*
X1776999Y4076992D02*
G01*
X1776999Y4322988D01*
X2031001Y4322991D02*
G01*
X2031001Y4076994D01*
X2284999Y4076992D02*
G01*
X2285001Y4322991D01*
X1015001Y4576991D02*
G01*
X1022997Y4576991D01*
X1149997Y4449991D01*
X1149997Y3957990D01*
X1014999Y3822992D01*
X1269001Y4576991D02*
G01*
X1272997Y4576991D01*
X1399997Y4449991D01*
X1399997Y3953990D01*
X1268999Y3822992D01*
X1523001Y4576991D02*
G01*
X1649996Y4449991D01*
X1649996Y3949989D01*
X1522999Y3822992D01*
X1777001Y4576991D02*
G01*
X1777001Y4572985D01*
X1899996Y4449991D01*
X1899996Y3945989D01*
X1776999Y3822992D01*
X2031001Y4576991D02*
G01*
X2031001Y4568985D01*
X2149995Y4449991D01*
X2149995Y3941988D01*
X2030999Y3822992D01*
X1777001Y4576991D02*
G01*
X1777001Y4626996D01*
X2399995Y5249989D01*
X4004002Y5249989D01*
X4119001Y5134990D01*
X3988602Y5249989D02*
G01*
X8103994Y5249989D01*
X8218992Y5134990D01*
X1268999Y3822992D02*
G01*
X1276997Y3822992D01*
X1399997Y3699992D01*
X4462002Y3699992D01*
X4627001Y3864990D01*
X4462002Y3699992D02*
G01*
X8561994Y3699992D01*
X8726992Y3864990D01*
X2499995Y3949992D02*
G01*
X2549994Y3999992D01*
X4238000Y3999992D01*
X4373001Y3864990D01*
X4238000Y3999992D02*
G01*
X8337991Y3999992D01*
X8472992Y3864990D01*
X2499989Y4449978D02*
G01*
X4550003Y4449978D01*
X4799990Y4199991D01*
X4799990Y4199991D02*
G01*
X8645992Y4199991D01*
X8980992Y3864990D01*
X3087166Y4987094D02*
G01*
X4225104Y4987094D01*
X4373001Y5134990D01*
X4225104Y4987094D02*
G01*
X8325096Y4987094D01*
X8472992Y5134990D01*
X4100068Y4100068D02*
G01*
X7949984Y4100068D01*
X2031006Y4576991D02*
G01*
X2354005Y4899990D01*
X6999986Y4899990D01*
X4799990Y4322991D02*
G01*
X6222987Y4322991D01*
X6649986Y4749990D01*
X4199991Y3749992D02*
G01*
X2358006Y3749979D01*
X2284994Y3822700D01*
X4199890Y3750055D02*
G01*
X4249927Y3800094D01*
G36*
X11166977Y4639990D02*
G01*
X10986978Y4639990D01*
X10986978Y4459991D01*
X11166977Y4459991D01*
G37*
D11*
G01*
X10822965Y4549978D03*
G36*
X10732978Y3709992D02*
G01*
X10912977Y3709992D01*
X10912977Y3889992D01*
X10732978Y3889992D01*
G37*
G01*
X11076990Y3799992D03*
G36*
X2369992Y4408002D02*
G01*
X2199993Y4408002D01*
X2199993Y4238002D01*
X2369992Y4238002D01*
G37*
D12*
G01*
X2285009Y4576978D03*
G01*
X2031009Y4322978D03*
G01*
X2031009Y4576978D03*
G01*
X1777009Y4322978D03*
G01*
X1777009Y4576978D03*
G01*
X1523009Y4322978D03*
G01*
X1523009Y4576978D03*
G01*
X1269009Y4322978D03*
G01*
X1269009Y4576978D03*
G01*
X1015009Y4322978D03*
G01*
X1015009Y4576978D03*
G36*
X925007Y3987002D02*
G01*
X1105006Y3987002D01*
X1105006Y4167002D01*
X925007Y4167002D01*
G37*
D11*
G01*
X1015009Y3822979D03*
G01*
X1269009Y4076979D03*
G01*
X1269009Y3822979D03*
G01*
X1523009Y4076979D03*
G01*
X1523009Y3822979D03*
G01*
X1777009Y4076979D03*
G01*
X1777009Y3822979D03*
G01*
X2031009Y4076979D03*
G01*
X2031009Y3822979D03*
G01*
X2285009Y4076979D03*
G01*
X2285009Y3822979D03*
D13*
G01*
X3864990Y3864990D03*
G01*
X4118990Y3864990D03*
G01*
X4372990Y3864990D03*
G01*
X4626990Y3864990D03*
G01*
X4880990Y3864990D03*
G01*
X5134990Y3864990D03*
G01*
X5134990Y5134990D03*
G01*
X4880990Y5134990D03*
G01*
X4626990Y5134990D03*
G01*
X4372990Y5134990D03*
G01*
X4118990Y5134990D03*
G01*
X3864990Y5134990D03*
G01*
X7964982Y3864990D03*
G01*
X8218982Y3864990D03*
G01*
X8472982Y3864990D03*
G01*
X8726982Y3864990D03*
G01*
X8980982Y3864990D03*
G01*
X9234982Y3864990D03*
G01*
X9234982Y5134990D03*
G01*
X8980982Y5134990D03*
G01*
X8726982Y5134990D03*
G01*
X8472982Y5134990D03*
G01*
X8218982Y5134990D03*
G01*
X7964982Y5134990D03*
D14*
G01*
X2499995Y3949979D03*
G01*
X2499995Y4449978D03*
G01*
X4799990Y4199991D03*
G01*
X3087166Y4987086D03*
G01*
X4100068Y4100068D03*
G01*
X7949996Y4100068D03*
G01*
X6999986Y4899990D03*
G01*
X5899988Y4699990D03*
G01*
X4799990Y4322978D03*
G01*
X6649999Y4749977D03*
G01*
X4249927Y3800094D03*
M02*
